<?xml version="1.0" encoding="UTF-8" standalone="no"?>
<svg
   xmlns:dc="http://purl.org/dc/elements/1.1/"
   xmlns:cc="http://creativecommons.org/ns#"
   xmlns:rdf="http://www.w3.org/1999/02/22-rdf-syntax-ns#"
   xmlns:svg="http://www.w3.org/2000/svg"
   xmlns="http://www.w3.org/2000/svg"
   xmlns:sodipodi="http://sodipodi.sourceforge.net/DTD/sodipodi-0.dtd"
   xmlns:inkscape="http://www.inkscape.org/namespaces/inkscape"
   version="1.1"
   width="2560"
   height="1440"
   style="overflow: hidden; display: block; inset: 0px; position: fixed;"
   id="svg83"
   sodipodi:docname="timeline3b.svg"
   inkscape:version="1.0.2 (e86c870879, 2021-01-15)"
   inkscape:export-filename="/home/fernando/dev/timeline/timeline3b.png"
   inkscape:export-xdpi="200"
   inkscape:export-ydpi="200">
  <metadata
     id="metadata87">
    <rdf:RDF>
      <cc:Work
         rdf:about="">
        <dc:format>image/svg+xml</dc:format>
        <dc:type
           rdf:resource="http://purl.org/dc/dcmitype/StillImage" />
      </cc:Work>
    </rdf:RDF>
  </metadata>
  <sodipodi:namedview
     pagecolor="#ffffff"
     bordercolor="#666666"
     borderopacity="1"
     objecttolerance="10"
     gridtolerance="10"
     guidetolerance="10"
     inkscape:pageopacity="0"
     inkscape:pageshadow="2"
     inkscape:window-width="2560"
     inkscape:window-height="1371"
     id="namedview85"
     showgrid="false"
     inkscape:zoom="0.51484375"
     inkscape:cx="1882.2206"
     inkscape:cy="762.06509"
     inkscape:window-x="0"
     inkscape:window-y="32"
     inkscape:window-maximized="1"
     inkscape:current-layer="svg83" />
  <defs
     id="defs2" />
  <g
     id="two-0"
     transform="matrix(1 0 0 1 0 0)"
     opacity="1">
    <g
       id="two-1"
       transform="matrix(1 0 0 1 0 0)"
       opacity="1">
      <path
         transform="matrix(1 0 0 1 1280 720)"
         d="M -1280 -720 L 1280 -720 L 1280 720 L -1280 720 Z "
         fill="#2C3C4E"
         stroke="#2C3C4E"
         stroke-width="0"
         stroke-opacity="1"
         fill-opacity="1"
         visibility="visible"
         stroke-linecap="butt"
         stroke-linejoin="miter"
         stroke-miterlimit="4"
         id="two-3" />
      <path
         transform="matrix(1 0 0 1 50 720)"
         d="M -0.5 -720 L 0.5 -720 L 0.5 720 L -0.5 720 Z "
         fill="#354353"
         stroke="#354353"
         stroke-width="0"
         stroke-opacity="1"
         fill-opacity="1"
         visibility="visible"
         stroke-linecap="butt"
         stroke-linejoin="miter"
         stroke-miterlimit="4"
         id="two-7" />
      <path
         transform="matrix(1 0 0 1 219.655 720)"
         d="M -0.5 -720 L 0.5 -720 L 0.5 720 L -0.5 720 Z "
         fill="#354353"
         stroke="#354353"
         stroke-width="0"
         stroke-opacity="1"
         fill-opacity="1"
         visibility="visible"
         stroke-linecap="butt"
         stroke-linejoin="miter"
         stroke-miterlimit="4"
         id="two-10" />
      <path
         transform="matrix(1 0 0 1 389.31 720)"
         d="M -0.5 -720 L 0.5 -720 L 0.5 720 L -0.5 720 Z "
         fill="#354353"
         stroke="#354353"
         stroke-width="0"
         stroke-opacity="1"
         fill-opacity="1"
         visibility="visible"
         stroke-linecap="butt"
         stroke-linejoin="miter"
         stroke-miterlimit="4"
         id="two-13" />
      <path
         transform="matrix(1 0 0 1 558.965 720)"
         d="M -0.5 -720 L 0.5 -720 L 0.5 720 L -0.5 720 Z "
         fill="#354353"
         stroke="#354353"
         stroke-width="0"
         stroke-opacity="1"
         fill-opacity="1"
         visibility="visible"
         stroke-linecap="butt"
         stroke-linejoin="miter"
         stroke-miterlimit="4"
         id="two-16" />
      <path
         transform="matrix(1 0 0 1 728.62 720)"
         d="M -0.5 -720 L 0.5 -720 L 0.5 720 L -0.5 720 Z "
         fill="#354353"
         stroke="#354353"
         stroke-width="0"
         stroke-opacity="1"
         fill-opacity="1"
         visibility="visible"
         stroke-linecap="butt"
         stroke-linejoin="miter"
         stroke-miterlimit="4"
         id="two-19" />
      <path
         transform="matrix(1 0 0 1 898.275 720)"
         d="M -0.5 -720 L 0.5 -720 L 0.5 720 L -0.5 720 Z "
         fill="#354353"
         stroke="#354353"
         stroke-width="0"
         stroke-opacity="1"
         fill-opacity="1"
         visibility="visible"
         stroke-linecap="butt"
         stroke-linejoin="miter"
         stroke-miterlimit="4"
         id="two-22" />
      <path
         transform="matrix(1 0 0 1 1067.931 720)"
         d="M -0.5 -720 L 0.5 -720 L 0.5 720 L -0.5 720 Z "
         fill="#354353"
         stroke="#354353"
         stroke-width="0"
         stroke-opacity="1"
         fill-opacity="1"
         visibility="visible"
         stroke-linecap="butt"
         stroke-linejoin="miter"
         stroke-miterlimit="4"
         id="two-25" />
      <path
         transform="matrix(1 0 0 1 1237.586 720)"
         d="M -0.5 -720 L 0.5 -720 L 0.5 720 L -0.5 720 Z "
         fill="#354353"
         stroke="#354353"
         stroke-width="0"
         stroke-opacity="1"
         fill-opacity="1"
         visibility="visible"
         stroke-linecap="butt"
         stroke-linejoin="miter"
         stroke-miterlimit="4"
         id="two-28" />
      <path
         transform="matrix(1 0 0 1 1407.241 720)"
         d="M -0.5 -720 L 0.5 -720 L 0.5 720 L -0.5 720 Z "
         fill="#354353"
         stroke="#354353"
         stroke-width="0"
         stroke-opacity="1"
         fill-opacity="1"
         visibility="visible"
         stroke-linecap="butt"
         stroke-linejoin="miter"
         stroke-miterlimit="4"
         id="two-31" />
      <path
         transform="matrix(1 0 0 1 1576.896 720)"
         d="M -0.5 -720 L 0.5 -720 L 0.5 720 L -0.5 720 Z "
         fill="#354353"
         stroke="#354353"
         stroke-width="0"
         stroke-opacity="1"
         fill-opacity="1"
         visibility="visible"
         stroke-linecap="butt"
         stroke-linejoin="miter"
         stroke-miterlimit="4"
         id="two-34" />
      <path
         transform="matrix(1 0 0 1 1746.551 720)"
         d="M -0.5 -720 L 0.5 -720 L 0.5 720 L -0.5 720 Z "
         fill="#354353"
         stroke="#354353"
         stroke-width="0"
         stroke-opacity="1"
         fill-opacity="1"
         visibility="visible"
         stroke-linecap="butt"
         stroke-linejoin="miter"
         stroke-miterlimit="4"
         id="two-37" />
      <path
         transform="matrix(1 0 0 1 1916.206 720)"
         d="M -0.5 -720 L 0.5 -720 L 0.5 720 L -0.5 720 Z "
         fill="#354353"
         stroke="#354353"
         stroke-width="0"
         stroke-opacity="1"
         fill-opacity="1"
         visibility="visible"
         stroke-linecap="butt"
         stroke-linejoin="miter"
         stroke-miterlimit="4"
         id="two-40" />
      <path
         transform="matrix(1 0 0 1 2085.862 720)"
         d="M -0.5 -720 L 0.5 -720 L 0.5 720 L -0.5 720 Z "
         fill="#354353"
         stroke="#354353"
         stroke-width="0"
         stroke-opacity="1"
         fill-opacity="1"
         visibility="visible"
         stroke-linecap="butt"
         stroke-linejoin="miter"
         stroke-miterlimit="4"
         id="two-43" />
      <path
         transform="matrix(1 0 0 1 2255.517 720)"
         d="M -0.5 -720 L 0.5 -720 L 0.5 720 L -0.5 720 Z "
         fill="#354353"
         stroke="#354353"
         stroke-width="0"
         stroke-opacity="1"
         fill-opacity="1"
         visibility="visible"
         stroke-linecap="butt"
         stroke-linejoin="miter"
         stroke-miterlimit="4"
         id="two-46" />
      <path
         transform="matrix(1 0 0 1 2425.172 720)"
         d="M -0.5 -720 L 0.5 -720 L 0.5 720 L -0.5 720 Z "
         fill="#354353"
         stroke="#354353"
         stroke-width="0"
         stroke-opacity="1"
         fill-opacity="1"
         visibility="visible"
         stroke-linecap="butt"
         stroke-linejoin="miter"
         stroke-miterlimit="4"
         id="two-49" />
      <path
         transform="matrix(1 0 0 1 2431.958 720)"
         d="M -1.5 -720 L 1.5 -720 L 1.5 720 L -1.5 720 Z "
         fill="#0ac18e"
         stroke="#0ac18e"
         stroke-width="0"
         stroke-opacity="1"
         fill-opacity="1"
         visibility="visible"
         stroke-linecap="butt"
         stroke-linejoin="miter"
         stroke-miterlimit="4"
         id="two-68" />
      <path
         transform="matrix(1 0 0 1 2442.986 720)"
         d="M -1.5 -720 L 1.5 -720 L 1.5 720 L -1.5 720 Z "
         fill="#8a8f92"
         stroke="#8a8f92"
         stroke-width="0"
         stroke-opacity="1"
         fill-opacity="1"
         visibility="visible"
         stroke-linecap="butt"
         stroke-linejoin="miter"
         stroke-miterlimit="4"
         id="two-73" />
      <path
         transform="matrix(1 0 0 1 189.965 720)"
         d="M -1.5 -720 L 1.5 -720 L 1.5 720 L -1.5 720 Z "
         fill="#1898e0"
         stroke="#1898e0"
         stroke-width="0"
         stroke-opacity="1"
         fill-opacity="1"
         visibility="visible"
         stroke-linecap="butt"
         stroke-linejoin="miter"
         stroke-miterlimit="4"
         id="two-78" />
    </g>
    <g
       id="two-2"
       transform="matrix(1 0 0 1 0 0)"
       opacity="1" />
    <path
       transform="matrix(1 0 0 1 1280 960)"
       d="M -1280 -2.5 L 1280 -2.5 L 1280 2.5 L -1280 2.5 Z "
       fill="white"
       stroke="#000"
       stroke-width="0"
       stroke-opacity="1"
       fill-opacity="1"
       visibility="visible"
       stroke-linecap="butt"
       stroke-linejoin="miter"
       stroke-miterlimit="4"
       id="two-4" />
    <path
       transform="matrix(1 0 0 1 50 960)"
       d="M 5 0 C 5 2.761 2.761 5 0 5 C -2.762 5 -5 2.761 -5 0 C -5.001 -2.762 -2.762 -5 -0.001 -5 C 2.761 -5.001 5 -2.762 5 0 Z "
       fill="white"
       stroke="white"
       stroke-width="1"
       stroke-opacity="1"
       fill-opacity="1"
       visibility="visible"
       stroke-linecap="butt"
       stroke-linejoin="miter"
       stroke-miterlimit="4"
       id="two-5" />
    <text
       transform="matrix(1 0 0 1 50 980)"
       font-family="Open Sans"
       font-size="12"
       line-height="17"
       text-anchor="middle"
       dominant-baseline="middle"
       alignment-baseline="middle"
       font-style="normal"
       font-weight="500"
       text-decoration="none"
       fill="white"
       stroke="transparent"
       stroke-width="1"
       opacity="1"
       class=""
       visibility="visible"
       id="two-6">-800</text>
    <path
       transform="matrix(1 0 0 1 219.655 960)"
       d="M 5 0 C 5 2.761 2.761 5 0 5 C -2.762 5 -5 2.761 -5 0 C -5.001 -2.762 -2.762 -5 -0.001 -5 C 2.761 -5.001 5 -2.762 5 0 Z "
       fill="white"
       stroke="white"
       stroke-width="1"
       stroke-opacity="1"
       fill-opacity="1"
       visibility="visible"
       stroke-linecap="butt"
       stroke-linejoin="miter"
       stroke-miterlimit="4"
       id="two-8" />
    <text
       transform="matrix(1 0 0 1 219.655 980)"
       font-family="Open Sans"
       font-size="12"
       line-height="17"
       text-anchor="middle"
       dominant-baseline="middle"
       alignment-baseline="middle"
       font-style="normal"
       font-weight="500"
       text-decoration="none"
       fill="white"
       stroke="transparent"
       stroke-width="1"
       opacity="1"
       class=""
       visibility="visible"
       id="two-9">-600</text>
    <path
       transform="matrix(1 0 0 1 389.31 960)"
       d="M 5 0 C 5 2.761 2.761 5 0 5 C -2.762 5 -5 2.761 -5 0 C -5.001 -2.762 -2.762 -5 -0.001 -5 C 2.761 -5.001 5 -2.762 5 0 Z "
       fill="white"
       stroke="white"
       stroke-width="1"
       stroke-opacity="1"
       fill-opacity="1"
       visibility="visible"
       stroke-linecap="butt"
       stroke-linejoin="miter"
       stroke-miterlimit="4"
       id="two-11" />
    <text
       transform="matrix(1 0 0 1 389.31 980)"
       font-family="Open Sans"
       font-size="12"
       line-height="17"
       text-anchor="middle"
       dominant-baseline="middle"
       alignment-baseline="middle"
       font-style="normal"
       font-weight="500"
       text-decoration="none"
       fill="white"
       stroke="transparent"
       stroke-width="1"
       opacity="1"
       class=""
       visibility="visible"
       id="two-12">-400</text>
    <path
       transform="matrix(1 0 0 1 558.965 960)"
       d="M 5 0 C 5 2.761 2.761 5 0 5 C -2.762 5 -5 2.761 -5 0 C -5.001 -2.762 -2.762 -5 -0.001 -5 C 2.761 -5.001 5 -2.762 5 0 Z "
       fill="white"
       stroke="white"
       stroke-width="1"
       stroke-opacity="1"
       fill-opacity="1"
       visibility="visible"
       stroke-linecap="butt"
       stroke-linejoin="miter"
       stroke-miterlimit="4"
       id="two-14" />
    <text
       transform="matrix(1 0 0 1 558.965 980)"
       font-family="Open Sans"
       font-size="12"
       line-height="17"
       text-anchor="middle"
       dominant-baseline="middle"
       alignment-baseline="middle"
       font-style="normal"
       font-weight="500"
       text-decoration="none"
       fill="white"
       stroke="transparent"
       stroke-width="1"
       opacity="1"
       class=""
       visibility="visible"
       id="two-15">-200</text>
    <path
       transform="matrix(1 0 0 1 728.62 960)"
       d="M 5 0 C 5 2.761 2.761 5 0 5 C -2.762 5 -5 2.761 -5 0 C -5.001 -2.762 -2.762 -5 -0.001 -5 C 2.761 -5.001 5 -2.762 5 0 Z "
       fill="white"
       stroke="white"
       stroke-width="1"
       stroke-opacity="1"
       fill-opacity="1"
       visibility="visible"
       stroke-linecap="butt"
       stroke-linejoin="miter"
       stroke-miterlimit="4"
       id="two-17" />
    <text
       transform="matrix(1 0 0 1 728.62 980)"
       font-family="Open Sans"
       font-size="14"
       line-height="17"
       text-anchor="middle"
       dominant-baseline="middle"
       alignment-baseline="middle"
       font-style="normal"
       font-weight="600"
       text-decoration="none"
       fill="white"
       stroke="transparent"
       stroke-width="1"
       opacity="1"
       class=""
       visibility="visible"
       id="two-18" />
    <path
       transform="matrix(1 0 0 1 898.275 960)"
       d="M 5 0 C 5 2.761 2.761 5 0 5 C -2.762 5 -5 2.761 -5 0 C -5.001 -2.762 -2.762 -5 -0.001 -5 C 2.761 -5.001 5 -2.762 5 0 Z "
       fill="white"
       stroke="white"
       stroke-width="1"
       stroke-opacity="1"
       fill-opacity="1"
       visibility="visible"
       stroke-linecap="butt"
       stroke-linejoin="miter"
       stroke-miterlimit="4"
       id="two-20" />
    <text
       transform="matrix(1 0 0 1 898.275 980)"
       font-family="Open Sans"
       font-size="12"
       line-height="17"
       text-anchor="middle"
       dominant-baseline="middle"
       alignment-baseline="middle"
       font-style="normal"
       font-weight="500"
       text-decoration="none"
       fill="white"
       stroke="transparent"
       stroke-width="1"
       opacity="1"
       class=""
       visibility="visible"
       id="two-21">200</text>
    <path
       transform="matrix(1 0 0 1 1067.931 960)"
       d="M 5 0 C 5 2.761 2.761 5 0 5 C -2.762 5 -5 2.761 -5 0 C -5.001 -2.762 -2.762 -5 -0.001 -5 C 2.761 -5.001 5 -2.762 5 0 Z "
       fill="white"
       stroke="white"
       stroke-width="1"
       stroke-opacity="1"
       fill-opacity="1"
       visibility="visible"
       stroke-linecap="butt"
       stroke-linejoin="miter"
       stroke-miterlimit="4"
       id="two-23" />
    <text
       transform="matrix(1 0 0 1 1067.931 980)"
       font-family="Open Sans"
       font-size="12"
       line-height="17"
       text-anchor="middle"
       dominant-baseline="middle"
       alignment-baseline="middle"
       font-style="normal"
       font-weight="500"
       text-decoration="none"
       fill="white"
       stroke="transparent"
       stroke-width="1"
       opacity="1"
       class=""
       visibility="visible"
       id="two-24">400</text>
    <path
       transform="matrix(1 0 0 1 1237.586 960)"
       d="M 5 0 C 5 2.761 2.761 5 0 5 C -2.762 5 -5 2.761 -5 0 C -5.001 -2.762 -2.762 -5 -0.001 -5 C 2.761 -5.001 5 -2.762 5 0 Z "
       fill="white"
       stroke="white"
       stroke-width="1"
       stroke-opacity="1"
       fill-opacity="1"
       visibility="visible"
       stroke-linecap="butt"
       stroke-linejoin="miter"
       stroke-miterlimit="4"
       id="two-26" />
    <text
       transform="matrix(1 0 0 1 1237.586 980)"
       font-family="Open Sans"
       font-size="12"
       line-height="17"
       text-anchor="middle"
       dominant-baseline="middle"
       alignment-baseline="middle"
       font-style="normal"
       font-weight="500"
       text-decoration="none"
       fill="white"
       stroke="transparent"
       stroke-width="1"
       opacity="1"
       class=""
       visibility="visible"
       id="two-27">600</text>
    <path
       transform="matrix(1 0 0 1 1407.241 960)"
       d="M 5 0 C 5 2.761 2.761 5 0 5 C -2.762 5 -5 2.761 -5 0 C -5.001 -2.762 -2.762 -5 -0.001 -5 C 2.761 -5.001 5 -2.762 5 0 Z "
       fill="white"
       stroke="white"
       stroke-width="1"
       stroke-opacity="1"
       fill-opacity="1"
       visibility="visible"
       stroke-linecap="butt"
       stroke-linejoin="miter"
       stroke-miterlimit="4"
       id="two-29" />
    <text
       transform="matrix(1 0 0 1 1407.241 980)"
       font-family="Open Sans"
       font-size="12"
       line-height="17"
       text-anchor="middle"
       dominant-baseline="middle"
       alignment-baseline="middle"
       font-style="normal"
       font-weight="500"
       text-decoration="none"
       fill="white"
       stroke="transparent"
       stroke-width="1"
       opacity="1"
       class=""
       visibility="visible"
       id="two-30">800</text>
    <path
       transform="matrix(1 0 0 1 1576.896 960)"
       d="M 5 0 C 5 2.761 2.761 5 0 5 C -2.762 5 -5 2.761 -5 0 C -5.001 -2.762 -2.762 -5 -0.001 -5 C 2.761 -5.001 5 -2.762 5 0 Z "
       fill="white"
       stroke="white"
       stroke-width="1"
       stroke-opacity="1"
       fill-opacity="1"
       visibility="visible"
       stroke-linecap="butt"
       stroke-linejoin="miter"
       stroke-miterlimit="4"
       id="two-32" />
    <text
       transform="matrix(1 0 0 1 1576.896 980)"
       font-family="Open Sans"
       font-size="14"
       line-height="17"
       text-anchor="middle"
       dominant-baseline="middle"
       alignment-baseline="middle"
       font-style="normal"
       font-weight="600"
       text-decoration="none"
       fill="white"
       stroke="transparent"
       stroke-width="1"
       opacity="1"
       class=""
       visibility="visible"
       id="two-33">1000</text>
    <path
       transform="matrix(1 0 0 1 1746.551 960)"
       d="M 5 0 C 5 2.761 2.761 5 0 5 C -2.762 5 -5 2.761 -5 0 C -5.001 -2.762 -2.762 -5 -0.001 -5 C 2.761 -5.001 5 -2.762 5 0 Z "
       fill="white"
       stroke="white"
       stroke-width="1"
       stroke-opacity="1"
       fill-opacity="1"
       visibility="visible"
       stroke-linecap="butt"
       stroke-linejoin="miter"
       stroke-miterlimit="4"
       id="two-35" />
    <text
       transform="matrix(1 0 0 1 1746.551 980)"
       font-family="Open Sans"
       font-size="12"
       line-height="17"
       text-anchor="middle"
       dominant-baseline="middle"
       alignment-baseline="middle"
       font-style="normal"
       font-weight="500"
       text-decoration="none"
       fill="white"
       stroke="transparent"
       stroke-width="1"
       opacity="1"
       class=""
       visibility="visible"
       id="two-36">1200</text>
    <path
       transform="matrix(1 0 0 1 1916.206 960)"
       d="M 5 0 C 5 2.761 2.761 5 0 5 C -2.762 5 -5 2.761 -5 0 C -5.001 -2.762 -2.762 -5 -0.001 -5 C 2.761 -5.001 5 -2.762 5 0 Z "
       fill="white"
       stroke="white"
       stroke-width="1"
       stroke-opacity="1"
       fill-opacity="1"
       visibility="visible"
       stroke-linecap="butt"
       stroke-linejoin="miter"
       stroke-miterlimit="4"
       id="two-38" />
    <text
       transform="matrix(1 0 0 1 1916.206 980)"
       font-family="Open Sans"
       font-size="12"
       line-height="17"
       text-anchor="middle"
       dominant-baseline="middle"
       alignment-baseline="middle"
       font-style="normal"
       font-weight="500"
       text-decoration="none"
       fill="white"
       stroke="transparent"
       stroke-width="1"
       opacity="1"
       class=""
       visibility="visible"
       id="two-39">1400</text>
    <path
       transform="matrix(1 0 0 1 2085.862 960)"
       d="M 5 0 C 5 2.761 2.761 5 0 5 C -2.762 5 -5 2.761 -5 0 C -5.001 -2.762 -2.762 -5 -0.001 -5 C 2.761 -5.001 5 -2.762 5 0 Z "
       fill="white"
       stroke="white"
       stroke-width="1"
       stroke-opacity="1"
       fill-opacity="1"
       visibility="visible"
       stroke-linecap="butt"
       stroke-linejoin="miter"
       stroke-miterlimit="4"
       id="two-41" />
    <text
       transform="matrix(1 0 0 1 2085.862 980)"
       font-family="Open Sans"
       font-size="12"
       line-height="17"
       text-anchor="middle"
       dominant-baseline="middle"
       alignment-baseline="middle"
       font-style="normal"
       font-weight="500"
       text-decoration="none"
       fill="white"
       stroke="transparent"
       stroke-width="1"
       opacity="1"
       class=""
       visibility="visible"
       id="two-42">1600</text>
    <path
       transform="matrix(1 0 0 1 2255.517 960)"
       d="M 5 0 C 5 2.761 2.761 5 0 5 C -2.762 5 -5 2.761 -5 0 C -5.001 -2.762 -2.762 -5 -0.001 -5 C 2.761 -5.001 5 -2.762 5 0 Z "
       fill="white"
       stroke="white"
       stroke-width="1"
       stroke-opacity="1"
       fill-opacity="1"
       visibility="visible"
       stroke-linecap="butt"
       stroke-linejoin="miter"
       stroke-miterlimit="4"
       id="two-44" />
    <text
       transform="matrix(1 0 0 1 2255.517 980)"
       font-family="Open Sans"
       font-size="12"
       line-height="17"
       text-anchor="middle"
       dominant-baseline="middle"
       alignment-baseline="middle"
       font-style="normal"
       font-weight="500"
       text-decoration="none"
       fill="white"
       stroke="transparent"
       stroke-width="1"
       opacity="1"
       class=""
       visibility="visible"
       id="two-45">1800</text>
    <path
       transform="matrix(1 0 0 1 2425.172 960)"
       d="M 5 0 C 5 2.761 2.761 5 0 5 C -2.762 5 -5 2.761 -5 0 C -5.001 -2.762 -2.762 -5 -0.001 -5 C 2.761 -5.001 5 -2.762 5 0 Z "
       fill="white"
       stroke="white"
       stroke-width="1"
       stroke-opacity="1"
       fill-opacity="1"
       visibility="visible"
       stroke-linecap="butt"
       stroke-linejoin="miter"
       stroke-miterlimit="4"
       id="two-47" />
    <text
       transform="matrix(1 0 0 1 2425.172 980)"
       font-family="Open Sans"
       font-size="14"
       line-height="17"
       text-anchor="middle"
       dominant-baseline="middle"
       alignment-baseline="middle"
       font-style="normal"
       font-weight="600"
       text-decoration="none"
       fill="white"
       stroke="transparent"
       stroke-width="1"
       opacity="1"
       class=""
       visibility="visible"
       id="two-48">2000</text>
    <path
       transform="matrix(1 0 0 1 728.62 720)"
       d="M -0.5 -720 L 0.5 -720 L 0.5 720 L -0.5 720 Z "
       fill="black"
       stroke="#000"
       stroke-width="1"
       stroke-opacity="1"
       fill-opacity="1"
       visibility="visible"
       stroke-linecap="butt"
       stroke-linejoin="miter"
       stroke-miterlimit="4"
       id="two-50" />
    <path
       d="M 0.0050366,1005 H 446.83546 v 10 H 0.0050366 Z"
       fill="#a79b0b"
       stroke="#a79b0b"
       stroke-width="0"
       stroke-opacity="1"
       fill-opacity="1"
       visibility="visible"
       stroke-linecap="butt"
       stroke-linejoin="miter"
       stroke-miterlimit="4"
       id="two-51" />
    <text
       transform="matrix(1 0 0 1 223.048 1030)"
       font-family="Open Sans"
       font-size="17"
       line-height="17"
       text-anchor="middle"
       dominant-baseline="middle"
       alignment-baseline="middle"
       font-style="normal"
       font-weight="500"
       text-decoration="none"
       fill="#a79b0b"
       stroke="transparent"
       stroke-width="1"
       opacity="1"
       class=""
       visibility="visible"
       id="two-52">Ancient Egypt</text>
    <path
       transform="matrix(1 0 0 1 355.379 1110)"
       d="M -93.311 -5 L 93.31 -5 L 93.31 5 L -93.311 5 Z "
       fill="#b6275a"
       stroke="#b6275a"
       stroke-width="0"
       stroke-opacity="1"
       fill-opacity="1"
       visibility="visible"
       stroke-linecap="butt"
       stroke-linejoin="miter"
       stroke-miterlimit="4"
       id="two-53" />
    <text
       transform="matrix(1 0 0 1 355.379 1130)"
       font-family="Open Sans"
       font-size="17"
       line-height="17"
       text-anchor="middle"
       dominant-baseline="middle"
       alignment-baseline="middle"
       font-style="normal"
       font-weight="500"
       text-decoration="none"
       fill="#b6275a"
       stroke="transparent"
       stroke-width="1"
       opacity="1"
       class=""
       visibility="visible"
       id="two-54">Achaemenid Empire</text>
    <text
       transform="matrix(1 0 0 1 355.379 1150)"
       font-family="Open Sans"
       font-size="17"
       line-height="17"
       text-anchor="middle"
       dominant-baseline="middle"
       alignment-baseline="middle"
       font-style="normal"
       font-weight="500"
       text-decoration="none"
       fill="#b6275a"
       stroke="transparent"
       stroke-width="1"
       opacity="1"
       class=""
       visibility="visible"
       id="two-55">(Persian)</text>
    <path
       transform="matrix(1 0 0 1 482.196 1060)"
       d="M -220.128 -5 L 220.127 -5 L 220.127 5 L -220.128 5 Z "
       fill="#1898e0"
       stroke="#1898e0"
       stroke-width="0"
       stroke-opacity="1"
       fill-opacity="1"
       visibility="visible"
       stroke-linecap="butt"
       stroke-linejoin="miter"
       stroke-miterlimit="4"
       id="two-56" />
    <text
       transform="matrix(1 0 0 1 482.196 1080)"
       font-family="Open Sans"
       font-size="17"
       line-height="17"
       text-anchor="middle"
       dominant-baseline="middle"
       alignment-baseline="middle"
       font-style="normal"
       font-weight="500"
       text-decoration="none"
       fill="#1898e0"
       stroke="transparent"
       stroke-width="1"
       opacity="1"
       class=""
       visibility="visible"
       id="two-57">Ancient Greece</text>
    <path
       transform="matrix(1 0 0 1 919.058 1060)"
       d="M -213.342 -5 L 213.341 -5 L 213.341 5 L -213.342 5 Z "
       fill="#1898e0"
       stroke="#1898e0"
       stroke-width="0"
       stroke-opacity="1"
       fill-opacity="1"
       visibility="visible"
       stroke-linecap="butt"
       stroke-linejoin="miter"
       stroke-miterlimit="4"
       id="two-58" />
    <text
       transform="matrix(1 0 0 1 919.058 1080)"
       font-family="Open Sans"
       font-size="17"
       line-height="17"
       text-anchor="middle"
       dominant-baseline="middle"
       alignment-baseline="middle"
       font-style="normal"
       font-weight="500"
       text-decoration="none"
       fill="#1898e0"
       stroke="transparent"
       stroke-width="1"
       opacity="1"
       class=""
       visibility="visible"
       id="two-59">Roman Empire</text>
    <path
       transform="matrix(1 0 0 1 1563.748 1060)"
       d="M -430.5 -5 L 430.5 -5 L 430.5 5 L -430.5 5 Z "
       fill="#8a8f92"
       stroke="#8a8f92"
       stroke-width="0"
       stroke-opacity="1"
       fill-opacity="1"
       visibility="visible"
       stroke-linecap="butt"
       stroke-linejoin="miter"
       stroke-miterlimit="4"
       id="two-60" />
    <text
       transform="matrix(1 0 0 1 1563.748 1080)"
       font-family="Open Sans"
       font-size="17"
       line-height="17"
       text-anchor="middle"
       dominant-baseline="middle"
       alignment-baseline="middle"
       font-style="normal"
       font-weight="500"
       text-decoration="none"
       fill="#8a8f92"
       stroke="transparent"
       stroke-width="1"
       opacity="1"
       class=""
       visibility="visible"
       id="two-61">Middle Ages</text>
    <path
       transform="matrix(1 0 0 1 1640.093 1110)"
       d="M -375.363 -5 L 375.362 -5 L 375.362 5 L -375.363 5 Z "
       fill="#b15d42"
       stroke="#b15d42"
       stroke-width="0"
       stroke-opacity="1"
       fill-opacity="1"
       visibility="visible"
       stroke-linecap="butt"
       stroke-linejoin="miter"
       stroke-miterlimit="4"
       id="two-62" />
    <text
       transform="matrix(1 0 0 1 1640.093 1130)"
       font-family="Open Sans"
       font-size="17"
       line-height="17"
       text-anchor="middle"
       dominant-baseline="middle"
       alignment-baseline="middle"
       font-style="normal"
       font-weight="500"
       text-decoration="none"
       fill="#b15d42"
       stroke="transparent"
       stroke-width="1"
       opacity="1"
       class=""
       visibility="visible"
       id="two-63">Caliphates</text>
    <path
       transform="matrix(1 0 0 1 2431.958 735)"
       d="M -8.661 5 L -0.001 -10 L 8.66 5 L -8.661 4.999 Z "
       fill="#0ac18e"
       stroke="#0ac18e"
       stroke-width="1"
       stroke-opacity="1"
       fill-opacity="1"
       visibility="visible"
       stroke-linecap="butt"
       stroke-linejoin="miter"
       stroke-miterlimit="4"
       id="two-64" />
    <path
       transform="matrix(-1 0 -0.001 -1 2431.958 785)"
       d="M -8.661 5 L -0.001 -10 L 8.66 5 L -8.661 4.999 Z "
       fill="#0ac18e"
       stroke="#0ac18e"
       stroke-width="1"
       stroke-opacity="1"
       fill-opacity="1"
       visibility="visible"
       stroke-linecap="butt"
       stroke-linejoin="miter"
       stroke-miterlimit="4"
       id="two-65" />
    <path
       transform="matrix(1 0 0 1 2431.958 760)"
       d="M -42.7 -20 C -42.7 -20 42.699 -20 42.699 -20 C 45.699 -20 45.699 -17 45.699 -17 C 45.699 -17 45.699 17 45.699 17 C 45.699 20 42.699 20 42.699 20 C 42.699 20 -42.7 20 -42.7 20 C -45.7 20 -45.7 17 -45.7 17 C -45.7 17 -45.7 -17 -45.7 -17 C -45.7 -20 -42.7 -20 -42.7 -20 C -42.7 -20 -42.7 -20 -42.7 -20 C -42.7 -20 -42.7 -20 -42.7 -20 Z "
       fill="#0ac18e"
       stroke="#0ac18e"
       stroke-width="1"
       stroke-opacity="1"
       fill-opacity="1"
       visibility="visible"
       stroke-linecap="butt"
       stroke-linejoin="miter"
       stroke-miterlimit="4"
       id="two-66" />
    <text
       transform="matrix(1 0 0 1 2431.958 760)"
       font-family="Open Sans"
       font-size="17"
       line-height="17"
       text-anchor="middle"
       dominant-baseline="middle"
       alignment-baseline="middle"
       font-style="normal"
       font-weight="500"
       text-decoration="none"
       fill="white"
       stroke="transparent"
       stroke-width="1"
       opacity="1"
       class=""
       visibility="visible"
       id="two-67">Bitcoin</text>
    <path
       transform="matrix(1 0 0 1 2442.986 1035)"
       d="M -8.661 5 L -0.001 -10 L 8.66 5 L -8.661 4.999 Z "
       fill="#8a8f92"
       stroke="#8a8f92"
       stroke-width="1"
       stroke-opacity="1"
       fill-opacity="1"
       visibility="visible"
       stroke-linecap="butt"
       stroke-linejoin="miter"
       stroke-miterlimit="4"
       id="two-69" />
    <path
       transform="matrix(-1 0 -0.001 -1 2442.986 1085)"
       d="M -8.661 5 L -0.001 -10 L 8.66 5 L -8.661 4.999 Z "
       fill="#8a8f92"
       stroke="#8a8f92"
       stroke-width="1"
       stroke-opacity="1"
       fill-opacity="1"
       visibility="visible"
       stroke-linecap="butt"
       stroke-linejoin="miter"
       stroke-miterlimit="4"
       id="two-70" />
    <path
       transform="matrix(1 0 0 1 2442.986 1060)"
       d="M -32.5 -20 C -32.5 -20 32.5 -20 32.5 -20 C 35.5 -20 35.5 -17 35.5 -17 C 35.5 -17 35.5 17 35.5 17 C 35.5 20 32.5 20 32.5 20 C 32.5 20 -32.5 20 -32.5 20 C -35.5 20 -35.5 17 -35.5 17 C -35.5 17 -35.5 -17 -35.5 -17 C -35.5 -20 -32.5 -20 -32.5 -20 C -32.5 -20 -32.5 -20 -32.5 -20 C -32.5 -20 -32.5 -20 -32.5 -20 Z "
       fill="#8a8f92"
       stroke="#8a8f92"
       stroke-width="1"
       stroke-opacity="1"
       fill-opacity="1"
       visibility="visible"
       stroke-linecap="butt"
       stroke-linejoin="miter"
       stroke-miterlimit="4"
       id="two-71" />
    <text
       transform="matrix(1 0 0 1 2442.986 1060)"
       font-family="Open Sans"
       font-size="17"
       line-height="17"
       text-anchor="middle"
       dominant-baseline="middle"
       alignment-baseline="middle"
       font-style="normal"
       font-weight="500"
       text-decoration="none"
       fill="white"
       stroke="transparent"
       stroke-width="1"
       opacity="1"
       class=""
       visibility="visible"
       id="two-72">Today</text>
    <path
       transform="matrix(1 0 0 1 189.965 735)"
       d="M -8.661 5 L -0.001 -10 L 8.66 5 L -8.661 4.999 Z "
       fill="#1898e0"
       stroke="#1898e0"
       stroke-width="1"
       stroke-opacity="1"
       fill-opacity="1"
       visibility="visible"
       stroke-linecap="butt"
       stroke-linejoin="miter"
       stroke-miterlimit="4"
       id="two-74" />
    <path
       transform="matrix(-1 0 -0.001 -1 189.965 785)"
       d="M -8.661 5 L -0.001 -10 L 8.66 5 L -8.661 4.999 Z "
       fill="#1898e0"
       stroke="#1898e0"
       stroke-width="1"
       stroke-opacity="1"
       fill-opacity="1"
       visibility="visible"
       stroke-linecap="butt"
       stroke-linejoin="miter"
       stroke-miterlimit="4"
       id="two-75" />
    <path
       transform="matrix(1 0 0 1 189.965 760)"
       d="M -37.6 -20 C -37.6 -20 37.599 -20 37.599 -20 C 40.599 -20 40.599 -17 40.599 -17 C 40.599 -17 40.599 17 40.599 17 C 40.599 20 37.599 20 37.599 20 C 37.599 20 -37.6 20 -37.6 20 C -40.6 20 -40.6 17 -40.6 17 C -40.6 17 -40.6 -17 -40.6 -17 C -40.6 -20 -37.6 -20 -37.6 -20 C -37.6 -20 -37.6 -20 -37.6 -20 C -37.6 -20 -37.6 -20 -37.6 -20 Z "
       fill="#1898e0"
       stroke="#1898e0"
       stroke-width="1"
       stroke-opacity="1"
       fill-opacity="1"
       visibility="visible"
       stroke-linecap="butt"
       stroke-linejoin="miter"
       stroke-miterlimit="4"
       id="two-76" />
    <text
       transform="matrix(1 0 0 1 189.965 760)"
       font-family="Open Sans"
       font-size="17"
       line-height="17"
       text-anchor="middle"
       dominant-baseline="middle"
       alignment-baseline="middle"
       font-style="normal"
       font-weight="500"
       text-decoration="none"
       fill="white"
       stroke="transparent"
       stroke-width="1"
       opacity="1"
       class=""
       visibility="visible"
       id="two-77">AD 635</text>
  </g>
</svg>
