<svg version="1.1" width="1337" height="984" style="overflow: hidden; display: block; inset: 0px; position: fixed;">
   <defs></defs>
   <g id="two-0" transform="matrix(1 0 0 1 0 0)" opacity="1">
      <g id="two-1" transform="matrix(1 0 0 1 0 0)" opacity="1">
         <path transform="matrix(1 0 0 1 896 492)" d="M -896 -492 L 896 -492 L 896 492 L -896 492 Z " fill="#2C3C4E" stroke="#2C3C4E" stroke-width="0" stroke-opacity="1" fill-opacity="1" visibility="visible" stroke-linecap="butt" stroke-linejoin="miter" stroke-miterlimit="4" id="two-3"></path>
         <path transform="matrix(1 0 0 1 150 492)" d="M -0.5 -492 L 0.5 -492 L 0.5 492 L -0.5 492 Z " fill="#354353" stroke="#354353" stroke-width="0" stroke-opacity="1" fill-opacity="1" visibility="visible" stroke-linecap="butt" stroke-linejoin="miter" stroke-miterlimit="4" id="two-7"></path>
         <path transform="matrix(1 0 0 1 222.78 492)" d="M -0.5 -492 L 0.5 -492 L 0.5 492 L -0.5 492 Z " fill="#354353" stroke="#354353" stroke-width="0" stroke-opacity="1" fill-opacity="1" visibility="visible" stroke-linecap="butt" stroke-linejoin="miter" stroke-miterlimit="4" id="two-10"></path>
         <path transform="matrix(1 0 0 1 295.56 492)" d="M -0.5 -492 L 0.5 -492 L 0.5 492 L -0.5 492 Z " fill="#354353" stroke="#354353" stroke-width="0" stroke-opacity="1" fill-opacity="1" visibility="visible" stroke-linecap="butt" stroke-linejoin="miter" stroke-miterlimit="4" id="two-13"></path>
         <path transform="matrix(1 0 0 1 368.341 492)" d="M -0.5 -492 L 0.5 -492 L 0.5 492 L -0.5 492 Z " fill="#354353" stroke="#354353" stroke-width="0" stroke-opacity="1" fill-opacity="1" visibility="visible" stroke-linecap="butt" stroke-linejoin="miter" stroke-miterlimit="4" id="two-16"></path>
         <path transform="matrix(1 0 0 1 441.121 492)" d="M -0.5 -492 L 0.5 -492 L 0.5 492 L -0.5 492 Z " fill="#354353" stroke="#354353" stroke-width="0" stroke-opacity="1" fill-opacity="1" visibility="visible" stroke-linecap="butt" stroke-linejoin="miter" stroke-miterlimit="4" id="two-19"></path>
         <path transform="matrix(1 0 0 1 513.902 492)" d="M -0.5 -492 L 0.5 -492 L 0.5 492 L -0.5 492 Z " fill="#354353" stroke="#354353" stroke-width="0" stroke-opacity="1" fill-opacity="1" visibility="visible" stroke-linecap="butt" stroke-linejoin="miter" stroke-miterlimit="4" id="two-22"></path>
         <path transform="matrix(1 0 0 1 586.682 492)" d="M -0.5 -492 L 0.5 -492 L 0.5 492 L -0.5 492 Z " fill="#354353" stroke="#354353" stroke-width="0" stroke-opacity="1" fill-opacity="1" visibility="visible" stroke-linecap="butt" stroke-linejoin="miter" stroke-miterlimit="4" id="two-25"></path>
         <path transform="matrix(1 0 0 1 659.463 492)" d="M -0.5 -492 L 0.5 -492 L 0.5 492 L -0.5 492 Z " fill="#354353" stroke="#354353" stroke-width="0" stroke-opacity="1" fill-opacity="1" visibility="visible" stroke-linecap="butt" stroke-linejoin="miter" stroke-miterlimit="4" id="two-28"></path>
         <path transform="matrix(1 0 0 1 732.243 492)" d="M -0.5 -492 L 0.5 -492 L 0.5 492 L -0.5 492 Z " fill="#354353" stroke="#354353" stroke-width="0" stroke-opacity="1" fill-opacity="1" visibility="visible" stroke-linecap="butt" stroke-linejoin="miter" stroke-miterlimit="4" id="two-31"></path>
         <path transform="matrix(1 0 0 1 805.024 492)" d="M -0.5 -492 L 0.5 -492 L 0.5 492 L -0.5 492 Z " fill="#354353" stroke="#354353" stroke-width="0" stroke-opacity="1" fill-opacity="1" visibility="visible" stroke-linecap="butt" stroke-linejoin="miter" stroke-miterlimit="4" id="two-34"></path>
         <path transform="matrix(1 0 0 1 877.804 492)" d="M -0.5 -492 L 0.5 -492 L 0.5 492 L -0.5 492 Z " fill="#354353" stroke="#354353" stroke-width="0" stroke-opacity="1" fill-opacity="1" visibility="visible" stroke-linecap="butt" stroke-linejoin="miter" stroke-miterlimit="4" id="two-37"></path>
         <path transform="matrix(1 0 0 1 950.585 492)" d="M -0.5 -492 L 0.5 -492 L 0.5 492 L -0.5 492 Z " fill="#354353" stroke="#354353" stroke-width="0" stroke-opacity="1" fill-opacity="1" visibility="visible" stroke-linecap="butt" stroke-linejoin="miter" stroke-miterlimit="4" id="two-40"></path>
         <path transform="matrix(1 0 0 1 1023.365 492)" d="M -0.5 -492 L 0.5 -492 L 0.5 492 L -0.5 492 Z " fill="#354353" stroke="#354353" stroke-width="0" stroke-opacity="1" fill-opacity="1" visibility="visible" stroke-linecap="butt" stroke-linejoin="miter" stroke-miterlimit="4" id="two-43"></path>
         <path transform="matrix(1 0 0 1 1096.146 492)" d="M -0.5 -492 L 0.5 -492 L 0.5 492 L -0.5 492 Z " fill="#354353" stroke="#354353" stroke-width="0" stroke-opacity="1" fill-opacity="1" visibility="visible" stroke-linecap="butt" stroke-linejoin="miter" stroke-miterlimit="4" id="two-46"></path>
         <path transform="matrix(1 0 0 1 1168.926 492)" d="M -0.5 -492 L 0.5 -492 L 0.5 492 L -0.5 492 Z " fill="#354353" stroke="#354353" stroke-width="0" stroke-opacity="1" fill-opacity="1" visibility="visible" stroke-linecap="butt" stroke-linejoin="miter" stroke-miterlimit="4" id="two-49"></path>
         <path transform="matrix(1 0 0 1 1241.707 492)" d="M -0.5 -492 L 0.5 -492 L 0.5 492 L -0.5 492 Z " fill="#354353" stroke="#354353" stroke-width="0" stroke-opacity="1" fill-opacity="1" visibility="visible" stroke-linecap="butt" stroke-linejoin="miter" stroke-miterlimit="4" id="two-52"></path>
         <path transform="matrix(1 0 0 1 1314.487 492)" d="M -0.5 -492 L 0.5 -492 L 0.5 492 L -0.5 492 Z " fill="#354353" stroke="#354353" stroke-width="0" stroke-opacity="1" fill-opacity="1" visibility="visible" stroke-linecap="butt" stroke-linejoin="miter" stroke-miterlimit="4" id="two-55"></path>
         <path transform="matrix(1 0 0 1 1387.268 492)" d="M -0.5 -492 L 0.5 -492 L 0.5 492 L -0.5 492 Z " fill="#354353" stroke="#354353" stroke-width="0" stroke-opacity="1" fill-opacity="1" visibility="visible" stroke-linecap="butt" stroke-linejoin="miter" stroke-miterlimit="4" id="two-58"></path>
         <path transform="matrix(1 0 0 1 1460.048 492)" d="M -0.5 -492 L 0.5 -492 L 0.5 492 L -0.5 492 Z " fill="#354353" stroke="#354353" stroke-width="0" stroke-opacity="1" fill-opacity="1" visibility="visible" stroke-linecap="butt" stroke-linejoin="miter" stroke-miterlimit="4" id="two-61"></path>
         <path transform="matrix(1 0 0 1 1532.829 492)" d="M -0.5 -492 L 0.5 -492 L 0.5 492 L -0.5 492 Z " fill="#354353" stroke="#354353" stroke-width="0" stroke-opacity="1" fill-opacity="1" visibility="visible" stroke-linecap="butt" stroke-linejoin="miter" stroke-miterlimit="4" id="two-64"></path>
         <path transform="matrix(1 0 0 1 1605.609 492)" d="M -0.5 -492 L 0.5 -492 L 0.5 492 L -0.5 492 Z " fill="#354353" stroke="#354353" stroke-width="0" stroke-opacity="1" fill-opacity="1" visibility="visible" stroke-linecap="butt" stroke-linejoin="miter" stroke-miterlimit="4" id="two-67"></path>
         <path transform="matrix(1 0 0 1 150 492)" d="M -1.5 -492 L 1.5 -492 L 1.5 492 L -1.5 492 Z " fill="#a79b0b" stroke="#a79b0b" stroke-width="0" stroke-opacity="1" fill-opacity="1" visibility="visible" stroke-linecap="butt" stroke-linejoin="miter" stroke-miterlimit="4" id="two-85"></path>
         <path transform="matrix(1 0 0 1 204.585 337)" d="M -1.5 -5 L 1.5 -5 L 1.5 5 L -1.5 5 Z " fill="#a79b0b" stroke="#a79b0b" stroke-width="0" stroke-opacity="0.5" fill-opacity="0.5" visibility="visible" stroke-linecap="butt" stroke-linejoin="miter" stroke-miterlimit="4" id="two-89"></path>
         <path transform="matrix(1 0 0 1 204.585 352)" d="M -1.5 -5 L 1.5 -5 L 1.5 5 L -1.5 5 Z " fill="#a79b0b" stroke="#a79b0b" stroke-width="0" stroke-opacity="0.5" fill-opacity="0.5" visibility="visible" stroke-linecap="butt" stroke-linejoin="miter" stroke-miterlimit="4" id="two-90"></path>
         <path transform="matrix(1 0 0 1 204.585 367)" d="M -1.5 -5 L 1.5 -5 L 1.5 5 L -1.5 5 Z " fill="#a79b0b" stroke="#a79b0b" stroke-width="0" stroke-opacity="0.5" fill-opacity="0.5" visibility="visible" stroke-linecap="butt" stroke-linejoin="miter" stroke-miterlimit="4" id="two-91"></path>
         <path transform="matrix(1 0 0 1 204.585 382)" d="M -1.5 -5 L 1.5 -5 L 1.5 5 L -1.5 5 Z " fill="#a79b0b" stroke="#a79b0b" stroke-width="0" stroke-opacity="0.5" fill-opacity="0.5" visibility="visible" stroke-linecap="butt" stroke-linejoin="miter" stroke-miterlimit="4" id="two-92"></path>
         <path transform="matrix(1 0 0 1 204.585 397)" d="M -1.5 -5 L 1.5 -5 L 1.5 5 L -1.5 5 Z " fill="#a79b0b" stroke="#a79b0b" stroke-width="0" stroke-opacity="0.5" fill-opacity="0.5" visibility="visible" stroke-linecap="butt" stroke-linejoin="miter" stroke-miterlimit="4" id="two-93"></path>
         <path transform="matrix(1 0 0 1 204.585 412)" d="M -1.5 -5 L 1.5 -5 L 1.5 5 L -1.5 5 Z " fill="#a79b0b" stroke="#a79b0b" stroke-width="0" stroke-opacity="0.5" fill-opacity="0.5" visibility="visible" stroke-linecap="butt" stroke-linejoin="miter" stroke-miterlimit="4" id="two-94"></path>
         <path transform="matrix(1 0 0 1 204.585 427)" d="M -1.5 -5 L 1.5 -5 L 1.5 5 L -1.5 5 Z " fill="#a79b0b" stroke="#a79b0b" stroke-width="0" stroke-opacity="0.5" fill-opacity="0.5" visibility="visible" stroke-linecap="butt" stroke-linejoin="miter" stroke-miterlimit="4" id="two-95"></path>
         <path transform="matrix(1 0 0 1 204.585 442)" d="M -1.5 -5 L 1.5 -5 L 1.5 5 L -1.5 5 Z " fill="#a79b0b" stroke="#a79b0b" stroke-width="0" stroke-opacity="0.5" fill-opacity="0.5" visibility="visible" stroke-linecap="butt" stroke-linejoin="miter" stroke-miterlimit="4" id="two-96"></path>
         <path transform="matrix(1 0 0 1 204.585 457)" d="M -1.5 -5 L 1.5 -5 L 1.5 5 L -1.5 5 Z " fill="#a79b0b" stroke="#a79b0b" stroke-width="0" stroke-opacity="0.5" fill-opacity="0.5" visibility="visible" stroke-linecap="butt" stroke-linejoin="miter" stroke-miterlimit="4" id="two-97"></path>
         <path transform="matrix(1 0 0 1 204.585 472)" d="M -1.5 -5 L 1.5 -5 L 1.5 5 L -1.5 5 Z " fill="#a79b0b" stroke="#a79b0b" stroke-width="0" stroke-opacity="0.5" fill-opacity="0.5" visibility="visible" stroke-linecap="butt" stroke-linejoin="miter" stroke-miterlimit="4" id="two-98"></path>
         <path transform="matrix(1 0 0 1 313.756 237)" d="M -1.5 -5 L 1.5 -5 L 1.5 5 L -1.5 5 Z " fill="#a79b0b" stroke="#a79b0b" stroke-width="0" stroke-opacity="0.5" fill-opacity="0.5" visibility="visible" stroke-linecap="butt" stroke-linejoin="miter" stroke-miterlimit="4" id="two-103"></path>
         <path transform="matrix(1 0 0 1 313.756 252)" d="M -1.5 -5 L 1.5 -5 L 1.5 5 L -1.5 5 Z " fill="#a79b0b" stroke="#a79b0b" stroke-width="0" stroke-opacity="0.5" fill-opacity="0.5" visibility="visible" stroke-linecap="butt" stroke-linejoin="miter" stroke-miterlimit="4" id="two-104"></path>
         <path transform="matrix(1 0 0 1 313.756 267)" d="M -1.5 -5 L 1.5 -5 L 1.5 5 L -1.5 5 Z " fill="#a79b0b" stroke="#a79b0b" stroke-width="0" stroke-opacity="0.5" fill-opacity="0.5" visibility="visible" stroke-linecap="butt" stroke-linejoin="miter" stroke-miterlimit="4" id="two-105"></path>
         <path transform="matrix(1 0 0 1 313.756 282)" d="M -1.5 -5 L 1.5 -5 L 1.5 5 L -1.5 5 Z " fill="#a79b0b" stroke="#a79b0b" stroke-width="0" stroke-opacity="0.5" fill-opacity="0.5" visibility="visible" stroke-linecap="butt" stroke-linejoin="miter" stroke-miterlimit="4" id="two-106"></path>
         <path transform="matrix(1 0 0 1 313.756 297)" d="M -1.5 -5 L 1.5 -5 L 1.5 5 L -1.5 5 Z " fill="#a79b0b" stroke="#a79b0b" stroke-width="0" stroke-opacity="0.5" fill-opacity="0.5" visibility="visible" stroke-linecap="butt" stroke-linejoin="miter" stroke-miterlimit="4" id="two-107"></path>
         <path transform="matrix(1 0 0 1 313.756 312)" d="M -1.5 -5 L 1.5 -5 L 1.5 5 L -1.5 5 Z " fill="#a79b0b" stroke="#a79b0b" stroke-width="0" stroke-opacity="0.5" fill-opacity="0.5" visibility="visible" stroke-linecap="butt" stroke-linejoin="miter" stroke-miterlimit="4" id="two-108"></path>
         <path transform="matrix(1 0 0 1 313.756 327)" d="M -1.5 -5 L 1.5 -5 L 1.5 5 L -1.5 5 Z " fill="#a79b0b" stroke="#a79b0b" stroke-width="0" stroke-opacity="0.5" fill-opacity="0.5" visibility="visible" stroke-linecap="butt" stroke-linejoin="miter" stroke-miterlimit="4" id="two-109"></path>
         <path transform="matrix(1 0 0 1 313.756 342)" d="M -1.5 -5 L 1.5 -5 L 1.5 5 L -1.5 5 Z " fill="#a79b0b" stroke="#a79b0b" stroke-width="0" stroke-opacity="0.5" fill-opacity="0.5" visibility="visible" stroke-linecap="butt" stroke-linejoin="miter" stroke-miterlimit="4" id="two-110"></path>
         <path transform="matrix(1 0 0 1 313.756 357)" d="M -1.5 -5 L 1.5 -5 L 1.5 5 L -1.5 5 Z " fill="#a79b0b" stroke="#a79b0b" stroke-width="0" stroke-opacity="0.5" fill-opacity="0.5" visibility="visible" stroke-linecap="butt" stroke-linejoin="miter" stroke-miterlimit="4" id="two-111"></path>
         <path transform="matrix(1 0 0 1 313.756 372)" d="M -1.5 -5 L 1.5 -5 L 1.5 5 L -1.5 5 Z " fill="#a79b0b" stroke="#a79b0b" stroke-width="0" stroke-opacity="0.5" fill-opacity="0.5" visibility="visible" stroke-linecap="butt" stroke-linejoin="miter" stroke-miterlimit="4" id="two-112"></path>
         <path transform="matrix(1 0 0 1 313.756 387)" d="M -1.5 -5 L 1.5 -5 L 1.5 5 L -1.5 5 Z " fill="#a79b0b" stroke="#a79b0b" stroke-width="0" stroke-opacity="0.5" fill-opacity="0.5" visibility="visible" stroke-linecap="butt" stroke-linejoin="miter" stroke-miterlimit="4" id="two-113"></path>
         <path transform="matrix(1 0 0 1 313.756 402)" d="M -1.5 -5 L 1.5 -5 L 1.5 5 L -1.5 5 Z " fill="#a79b0b" stroke="#a79b0b" stroke-width="0" stroke-opacity="0.5" fill-opacity="0.5" visibility="visible" stroke-linecap="butt" stroke-linejoin="miter" stroke-miterlimit="4" id="two-114"></path>
         <path transform="matrix(1 0 0 1 313.756 417)" d="M -1.5 -5 L 1.5 -5 L 1.5 5 L -1.5 5 Z " fill="#a79b0b" stroke="#a79b0b" stroke-width="0" stroke-opacity="0.5" fill-opacity="0.5" visibility="visible" stroke-linecap="butt" stroke-linejoin="miter" stroke-miterlimit="4" id="two-115"></path>
         <path transform="matrix(1 0 0 1 313.756 432)" d="M -1.5 -5 L 1.5 -5 L 1.5 5 L -1.5 5 Z " fill="#a79b0b" stroke="#a79b0b" stroke-width="0" stroke-opacity="0.5" fill-opacity="0.5" visibility="visible" stroke-linecap="butt" stroke-linejoin="miter" stroke-miterlimit="4" id="two-116"></path>
         <path transform="matrix(1 0 0 1 313.756 447)" d="M -1.5 -5 L 1.5 -5 L 1.5 5 L -1.5 5 Z " fill="#a79b0b" stroke="#a79b0b" stroke-width="0" stroke-opacity="0.5" fill-opacity="0.5" visibility="visible" stroke-linecap="butt" stroke-linejoin="miter" stroke-miterlimit="4" id="two-117"></path>
         <path transform="matrix(1 0 0 1 313.756 462)" d="M -1.5 -5 L 1.5 -5 L 1.5 5 L -1.5 5 Z " fill="#a79b0b" stroke="#a79b0b" stroke-width="0" stroke-opacity="0.5" fill-opacity="0.5" visibility="visible" stroke-linecap="butt" stroke-linejoin="miter" stroke-miterlimit="4" id="two-118"></path>
         <path transform="matrix(1 0 0 1 313.756 477)" d="M -1.5 -5 L 1.5 -5 L 1.5 5 L -1.5 5 Z " fill="#a79b0b" stroke="#a79b0b" stroke-width="0" stroke-opacity="0.5" fill-opacity="0.5" visibility="visible" stroke-linecap="butt" stroke-linejoin="miter" stroke-miterlimit="4" id="two-119"></path>
         <path transform="matrix(1 0 0 1 313.756 444)" d="M -1.5 -5 L 1.5 -5 L 1.5 5 L -1.5 5 Z " fill="#a79b0b" stroke="#a79b0b" stroke-width="0" stroke-opacity="0.5" fill-opacity="0.5" visibility="visible" stroke-linecap="butt" stroke-linejoin="miter" stroke-miterlimit="4" id="two-123"></path>
         <path transform="matrix(1 0 0 1 313.756 459)" d="M -1.5 -5 L 1.5 -5 L 1.5 5 L -1.5 5 Z " fill="#a79b0b" stroke="#a79b0b" stroke-width="0" stroke-opacity="0.5" fill-opacity="0.5" visibility="visible" stroke-linecap="butt" stroke-linejoin="miter" stroke-miterlimit="4" id="two-124"></path>
         <path transform="matrix(1 0 0 1 313.756 474)" d="M -1.5 -5 L 1.5 -5 L 1.5 5 L -1.5 5 Z " fill="#a79b0b" stroke="#a79b0b" stroke-width="0" stroke-opacity="0.5" fill-opacity="0.5" visibility="visible" stroke-linecap="butt" stroke-linejoin="miter" stroke-miterlimit="4" id="two-125"></path>
         <path transform="matrix(1 0 0 1 1608.52 492)" d="M -1.5 -492 L 1.5 -492 L 1.5 492 L -1.5 492 Z " fill="#0ac18e" stroke="#0ac18e" stroke-width="0" stroke-opacity="1" fill-opacity="1" visibility="visible" stroke-linecap="butt" stroke-linejoin="miter" stroke-miterlimit="4" id="two-131"></path>
         <path transform="matrix(1 0 0 1 1613.251 492)" d="M -1.5 -492 L 1.5 -492 L 1.5 492 L -1.5 492 Z " fill="#8a8f92" stroke="#8a8f92" stroke-width="0" stroke-opacity="1" fill-opacity="1" visibility="visible" stroke-linecap="butt" stroke-linejoin="miter" stroke-miterlimit="4" id="two-136"></path>
         <path transform="matrix(1 0 0 1 699.492 492)" d="M -1.5 -492 L 1.5 -492 L 1.5 492 L -1.5 492 Z " fill="#a79b0b" stroke="#a79b0b" stroke-width="0" stroke-opacity="1" fill-opacity="1" visibility="visible" stroke-linecap="butt" stroke-linejoin="miter" stroke-miterlimit="4" id="two-141"></path>
      </g>
      <g id="two-2" transform="matrix(1 0 0 1 0 0)" opacity="1"></g>
      <path transform="matrix(1 0 0 1 896 492)" d="M -896 -2.5 L 896 -2.5 L 896 2.5 L -896 2.5 Z " fill="white" stroke="#000" stroke-width="0" stroke-opacity="1" fill-opacity="1" visibility="visible" stroke-linecap="butt" stroke-linejoin="miter" stroke-miterlimit="4" id="two-4"></path>
      <path transform="matrix(1 0 0 1 150 492)" d="M 5 0 C 5 2.761 2.761 5 0 5 C -2.762 5 -5 2.761 -5 0 C -5.001 -2.762 -2.762 -5 -0.001 -5 C 2.761 -5.001 5 -2.762 5 0 Z " fill="white" stroke="white" stroke-width="1" stroke-opacity="1" fill-opacity="1" visibility="visible" stroke-linecap="butt" stroke-linejoin="miter" stroke-miterlimit="4" id="two-5"></path>
      <text transform="matrix(1 0 0 1 150 512)" font-family="Open Sans" font-size="14" line-height="17" text-anchor="middle" dominant-baseline="middle" alignment-baseline="middle" font-style="normal" font-weight="600" text-decoration="none" fill="white" stroke="transparent" stroke-width="1" opacity="1" class="" visibility="visible" id="two-6">-2000</text>
      <path transform="matrix(1 0 0 1 222.78 492)" d="M 5 0 C 5 2.761 2.761 5 0 5 C -2.762 5 -5 2.761 -5 0 C -5.001 -2.762 -2.762 -5 -0.001 -5 C 2.761 -5.001 5 -2.762 5 0 Z " fill="white" stroke="white" stroke-width="1" stroke-opacity="1" fill-opacity="1" visibility="visible" stroke-linecap="butt" stroke-linejoin="miter" stroke-miterlimit="4" id="two-8"></path>
      <text transform="matrix(1 0 0 1 222.78 512)" font-family="Open Sans" font-size="12" line-height="17" text-anchor="middle" dominant-baseline="middle" alignment-baseline="middle" font-style="normal" font-weight="500" text-decoration="none" fill="white" stroke="transparent" stroke-width="1" opacity="1" class="" visibility="visible" id="two-9">-1800</text>
      <path transform="matrix(1 0 0 1 295.56 492)" d="M 5 0 C 5 2.761 2.761 5 0 5 C -2.762 5 -5 2.761 -5 0 C -5.001 -2.762 -2.762 -5 -0.001 -5 C 2.761 -5.001 5 -2.762 5 0 Z " fill="white" stroke="white" stroke-width="1" stroke-opacity="1" fill-opacity="1" visibility="visible" stroke-linecap="butt" stroke-linejoin="miter" stroke-miterlimit="4" id="two-11"></path>
      <text transform="matrix(1 0 0 1 295.56 512)" font-family="Open Sans" font-size="12" line-height="17" text-anchor="middle" dominant-baseline="middle" alignment-baseline="middle" font-style="normal" font-weight="500" text-decoration="none" fill="white" stroke="transparent" stroke-width="1" opacity="1" class="" visibility="visible" id="two-12">-1600</text>
      <path transform="matrix(1 0 0 1 368.341 492)" d="M 5 0 C 5 2.761 2.761 5 0 5 C -2.762 5 -5 2.761 -5 0 C -5.001 -2.762 -2.762 -5 -0.001 -5 C 2.761 -5.001 5 -2.762 5 0 Z " fill="white" stroke="white" stroke-width="1" stroke-opacity="1" fill-opacity="1" visibility="visible" stroke-linecap="butt" stroke-linejoin="miter" stroke-miterlimit="4" id="two-14"></path>
      <text transform="matrix(1 0 0 1 368.341 512)" font-family="Open Sans" font-size="12" line-height="17" text-anchor="middle" dominant-baseline="middle" alignment-baseline="middle" font-style="normal" font-weight="500" text-decoration="none" fill="white" stroke="transparent" stroke-width="1" opacity="1" class="" visibility="visible" id="two-15">-1400</text>
      <path transform="matrix(1 0 0 1 441.121 492)" d="M 5 0 C 5 2.761 2.761 5 0 5 C -2.762 5 -5 2.761 -5 0 C -5.001 -2.762 -2.762 -5 -0.001 -5 C 2.761 -5.001 5 -2.762 5 0 Z " fill="white" stroke="white" stroke-width="1" stroke-opacity="1" fill-opacity="1" visibility="visible" stroke-linecap="butt" stroke-linejoin="miter" stroke-miterlimit="4" id="two-17"></path>
      <text transform="matrix(1 0 0 1 441.121 512)" font-family="Open Sans" font-size="12" line-height="17" text-anchor="middle" dominant-baseline="middle" alignment-baseline="middle" font-style="normal" font-weight="500" text-decoration="none" fill="white" stroke="transparent" stroke-width="1" opacity="1" class="" visibility="visible" id="two-18">-1200</text>
      <path transform="matrix(1 0 0 1 513.902 492)" d="M 5 0 C 5 2.761 2.761 5 0 5 C -2.762 5 -5 2.761 -5 0 C -5.001 -2.762 -2.762 -5 -0.001 -5 C 2.761 -5.001 5 -2.762 5 0 Z " fill="white" stroke="white" stroke-width="1" stroke-opacity="1" fill-opacity="1" visibility="visible" stroke-linecap="butt" stroke-linejoin="miter" stroke-miterlimit="4" id="two-20"></path>
      <text transform="matrix(1 0 0 1 513.902 512)" font-family="Open Sans" font-size="14" line-height="17" text-anchor="middle" dominant-baseline="middle" alignment-baseline="middle" font-style="normal" font-weight="600" text-decoration="none" fill="white" stroke="transparent" stroke-width="1" opacity="1" class="" visibility="visible" id="two-21">-1000</text>
      <path transform="matrix(1 0 0 1 586.682 492)" d="M 5 0 C 5 2.761 2.761 5 0 5 C -2.762 5 -5 2.761 -5 0 C -5.001 -2.762 -2.762 -5 -0.001 -5 C 2.761 -5.001 5 -2.762 5 0 Z " fill="white" stroke="white" stroke-width="1" stroke-opacity="1" fill-opacity="1" visibility="visible" stroke-linecap="butt" stroke-linejoin="miter" stroke-miterlimit="4" id="two-23"></path>
      <text transform="matrix(1 0 0 1 586.682 512)" font-family="Open Sans" font-size="12" line-height="17" text-anchor="middle" dominant-baseline="middle" alignment-baseline="middle" font-style="normal" font-weight="500" text-decoration="none" fill="white" stroke="transparent" stroke-width="1" opacity="1" class="" visibility="visible" id="two-24">-800</text>
      <path transform="matrix(1 0 0 1 659.463 492)" d="M 5 0 C 5 2.761 2.761 5 0 5 C -2.762 5 -5 2.761 -5 0 C -5.001 -2.762 -2.762 -5 -0.001 -5 C 2.761 -5.001 5 -2.762 5 0 Z " fill="white" stroke="white" stroke-width="1" stroke-opacity="1" fill-opacity="1" visibility="visible" stroke-linecap="butt" stroke-linejoin="miter" stroke-miterlimit="4" id="two-26"></path>
      <text transform="matrix(1 0 0 1 659.463 512)" font-family="Open Sans" font-size="12" line-height="17" text-anchor="middle" dominant-baseline="middle" alignment-baseline="middle" font-style="normal" font-weight="500" text-decoration="none" fill="white" stroke="transparent" stroke-width="1" opacity="1" class="" visibility="visible" id="two-27">-600</text>
      <path transform="matrix(1 0 0 1 732.243 492)" d="M 5 0 C 5 2.761 2.761 5 0 5 C -2.762 5 -5 2.761 -5 0 C -5.001 -2.762 -2.762 -5 -0.001 -5 C 2.761 -5.001 5 -2.762 5 0 Z " fill="white" stroke="white" stroke-width="1" stroke-opacity="1" fill-opacity="1" visibility="visible" stroke-linecap="butt" stroke-linejoin="miter" stroke-miterlimit="4" id="two-29"></path>
      <text transform="matrix(1 0 0 1 732.243 512)" font-family="Open Sans" font-size="12" line-height="17" text-anchor="middle" dominant-baseline="middle" alignment-baseline="middle" font-style="normal" font-weight="500" text-decoration="none" fill="white" stroke="transparent" stroke-width="1" opacity="1" class="" visibility="visible" id="two-30">-400</text>
      <path transform="matrix(1 0 0 1 805.024 492)" d="M 5 0 C 5 2.761 2.761 5 0 5 C -2.762 5 -5 2.761 -5 0 C -5.001 -2.762 -2.762 -5 -0.001 -5 C 2.761 -5.001 5 -2.762 5 0 Z " fill="white" stroke="white" stroke-width="1" stroke-opacity="1" fill-opacity="1" visibility="visible" stroke-linecap="butt" stroke-linejoin="miter" stroke-miterlimit="4" id="two-32"></path>
      <text transform="matrix(1 0 0 1 805.024 512)" font-family="Open Sans" font-size="12" line-height="17" text-anchor="middle" dominant-baseline="middle" alignment-baseline="middle" font-style="normal" font-weight="500" text-decoration="none" fill="white" stroke="transparent" stroke-width="1" opacity="1" class="" visibility="visible" id="two-33">-200</text>
      <path transform="matrix(1 0 0 1 877.804 492)" d="M 5 0 C 5 2.761 2.761 5 0 5 C -2.762 5 -5 2.761 -5 0 C -5.001 -2.762 -2.762 -5 -0.001 -5 C 2.761 -5.001 5 -2.762 5 0 Z " fill="white" stroke="white" stroke-width="1" stroke-opacity="1" fill-opacity="1" visibility="visible" stroke-linecap="butt" stroke-linejoin="miter" stroke-miterlimit="4" id="two-35"></path>
      <text transform="matrix(1 0 0 1 877.804 512)" font-family="Open Sans" font-size="14" line-height="17" text-anchor="middle" dominant-baseline="middle" alignment-baseline="middle" font-style="normal" font-weight="600" text-decoration="none" fill="white" stroke="transparent" stroke-width="1" opacity="1" class="" visibility="visible" id="two-36"></text>
      <path transform="matrix(1 0 0 1 950.585 492)" d="M 5 0 C 5 2.761 2.761 5 0 5 C -2.762 5 -5 2.761 -5 0 C -5.001 -2.762 -2.762 -5 -0.001 -5 C 2.761 -5.001 5 -2.762 5 0 Z " fill="white" stroke="white" stroke-width="1" stroke-opacity="1" fill-opacity="1" visibility="visible" stroke-linecap="butt" stroke-linejoin="miter" stroke-miterlimit="4" id="two-38"></path>
      <text transform="matrix(1 0 0 1 950.585 512)" font-family="Open Sans" font-size="12" line-height="17" text-anchor="middle" dominant-baseline="middle" alignment-baseline="middle" font-style="normal" font-weight="500" text-decoration="none" fill="white" stroke="transparent" stroke-width="1" opacity="1" class="" visibility="visible" id="two-39">200</text>
      <path transform="matrix(1 0 0 1 1023.365 492)" d="M 5 0 C 5 2.761 2.761 5 0 5 C -2.762 5 -5 2.761 -5 0 C -5.001 -2.762 -2.762 -5 -0.001 -5 C 2.761 -5.001 5 -2.762 5 0 Z " fill="white" stroke="white" stroke-width="1" stroke-opacity="1" fill-opacity="1" visibility="visible" stroke-linecap="butt" stroke-linejoin="miter" stroke-miterlimit="4" id="two-41"></path>
      <text transform="matrix(1 0 0 1 1023.365 512)" font-family="Open Sans" font-size="12" line-height="17" text-anchor="middle" dominant-baseline="middle" alignment-baseline="middle" font-style="normal" font-weight="500" text-decoration="none" fill="white" stroke="transparent" stroke-width="1" opacity="1" class="" visibility="visible" id="two-42">400</text>
      <path transform="matrix(1 0 0 1 1096.146 492)" d="M 5 0 C 5 2.761 2.761 5 0 5 C -2.762 5 -5 2.761 -5 0 C -5.001 -2.762 -2.762 -5 -0.001 -5 C 2.761 -5.001 5 -2.762 5 0 Z " fill="white" stroke="white" stroke-width="1" stroke-opacity="1" fill-opacity="1" visibility="visible" stroke-linecap="butt" stroke-linejoin="miter" stroke-miterlimit="4" id="two-44"></path>
      <text transform="matrix(1 0 0 1 1096.146 512)" font-family="Open Sans" font-size="12" line-height="17" text-anchor="middle" dominant-baseline="middle" alignment-baseline="middle" font-style="normal" font-weight="500" text-decoration="none" fill="white" stroke="transparent" stroke-width="1" opacity="1" class="" visibility="visible" id="two-45">600</text>
      <path transform="matrix(1 0 0 1 1168.926 492)" d="M 5 0 C 5 2.761 2.761 5 0 5 C -2.762 5 -5 2.761 -5 0 C -5.001 -2.762 -2.762 -5 -0.001 -5 C 2.761 -5.001 5 -2.762 5 0 Z " fill="white" stroke="white" stroke-width="1" stroke-opacity="1" fill-opacity="1" visibility="visible" stroke-linecap="butt" stroke-linejoin="miter" stroke-miterlimit="4" id="two-47"></path>
      <text transform="matrix(1 0 0 1 1168.926 512)" font-family="Open Sans" font-size="12" line-height="17" text-anchor="middle" dominant-baseline="middle" alignment-baseline="middle" font-style="normal" font-weight="500" text-decoration="none" fill="white" stroke="transparent" stroke-width="1" opacity="1" class="" visibility="visible" id="two-48">800</text>
      <path transform="matrix(1 0 0 1 1241.707 492)" d="M 5 0 C 5 2.761 2.761 5 0 5 C -2.762 5 -5 2.761 -5 0 C -5.001 -2.762 -2.762 -5 -0.001 -5 C 2.761 -5.001 5 -2.762 5 0 Z " fill="white" stroke="white" stroke-width="1" stroke-opacity="1" fill-opacity="1" visibility="visible" stroke-linecap="butt" stroke-linejoin="miter" stroke-miterlimit="4" id="two-50"></path>
      <text transform="matrix(1 0 0 1 1241.707 512)" font-family="Open Sans" font-size="14" line-height="17" text-anchor="middle" dominant-baseline="middle" alignment-baseline="middle" font-style="normal" font-weight="600" text-decoration="none" fill="white" stroke="transparent" stroke-width="1" opacity="1" class="" visibility="visible" id="two-51">1000</text>
      <path transform="matrix(1 0 0 1 1314.487 492)" d="M 5 0 C 5 2.761 2.761 5 0 5 C -2.762 5 -5 2.761 -5 0 C -5.001 -2.762 -2.762 -5 -0.001 -5 C 2.761 -5.001 5 -2.762 5 0 Z " fill="white" stroke="white" stroke-width="1" stroke-opacity="1" fill-opacity="1" visibility="visible" stroke-linecap="butt" stroke-linejoin="miter" stroke-miterlimit="4" id="two-53"></path>
      <text transform="matrix(1 0 0 1 1314.487 512)" font-family="Open Sans" font-size="12" line-height="17" text-anchor="middle" dominant-baseline="middle" alignment-baseline="middle" font-style="normal" font-weight="500" text-decoration="none" fill="white" stroke="transparent" stroke-width="1" opacity="1" class="" visibility="visible" id="two-54">1200</text>
      <path transform="matrix(1 0 0 1 1387.268 492)" d="M 5 0 C 5 2.761 2.761 5 0 5 C -2.762 5 -5 2.761 -5 0 C -5.001 -2.762 -2.762 -5 -0.001 -5 C 2.761 -5.001 5 -2.762 5 0 Z " fill="white" stroke="white" stroke-width="1" stroke-opacity="1" fill-opacity="1" visibility="visible" stroke-linecap="butt" stroke-linejoin="miter" stroke-miterlimit="4" id="two-56"></path>
      <text transform="matrix(1 0 0 1 1387.268 512)" font-family="Open Sans" font-size="12" line-height="17" text-anchor="middle" dominant-baseline="middle" alignment-baseline="middle" font-style="normal" font-weight="500" text-decoration="none" fill="white" stroke="transparent" stroke-width="1" opacity="1" class="" visibility="visible" id="two-57">1400</text>
      <path transform="matrix(1 0 0 1 1460.048 492)" d="M 5 0 C 5 2.761 2.761 5 0 5 C -2.762 5 -5 2.761 -5 0 C -5.001 -2.762 -2.762 -5 -0.001 -5 C 2.761 -5.001 5 -2.762 5 0 Z " fill="white" stroke="white" stroke-width="1" stroke-opacity="1" fill-opacity="1" visibility="visible" stroke-linecap="butt" stroke-linejoin="miter" stroke-miterlimit="4" id="two-59"></path>
      <text transform="matrix(1 0 0 1 1460.048 512)" font-family="Open Sans" font-size="12" line-height="17" text-anchor="middle" dominant-baseline="middle" alignment-baseline="middle" font-style="normal" font-weight="500" text-decoration="none" fill="white" stroke="transparent" stroke-width="1" opacity="1" class="" visibility="visible" id="two-60">1600</text>
      <path transform="matrix(1 0 0 1 1532.829 492)" d="M 5 0 C 5 2.761 2.761 5 0 5 C -2.762 5 -5 2.761 -5 0 C -5.001 -2.762 -2.762 -5 -0.001 -5 C 2.761 -5.001 5 -2.762 5 0 Z " fill="white" stroke="white" stroke-width="1" stroke-opacity="1" fill-opacity="1" visibility="visible" stroke-linecap="butt" stroke-linejoin="miter" stroke-miterlimit="4" id="two-62"></path>
      <text transform="matrix(1 0 0 1 1532.829 512)" font-family="Open Sans" font-size="12" line-height="17" text-anchor="middle" dominant-baseline="middle" alignment-baseline="middle" font-style="normal" font-weight="500" text-decoration="none" fill="white" stroke="transparent" stroke-width="1" opacity="1" class="" visibility="visible" id="two-63">1800</text>
      <path transform="matrix(1 0 0 1 1605.609 492)" d="M 5 0 C 5 2.761 2.761 5 0 5 C -2.762 5 -5 2.761 -5 0 C -5.001 -2.762 -2.762 -5 -0.001 -5 C 2.761 -5.001 5 -2.762 5 0 Z " fill="white" stroke="white" stroke-width="1" stroke-opacity="1" fill-opacity="1" visibility="visible" stroke-linecap="butt" stroke-linejoin="miter" stroke-miterlimit="4" id="two-65"></path>
      <text transform="matrix(1 0 0 1 1605.609 512)" font-family="Open Sans" font-size="14" line-height="17" text-anchor="middle" dominant-baseline="middle" alignment-baseline="middle" font-style="normal" font-weight="600" text-decoration="none" fill="white" stroke="transparent" stroke-width="1" opacity="1" class="" visibility="visible" id="two-66">2000</text>
      <path transform="matrix(1 0 0 1 877.804 492)" d="M -0.5 -492 L 0.5 -492 L 0.5 492 L -0.5 492 Z " fill="black" stroke="#000" stroke-width="1" stroke-opacity="1" fill-opacity="1" visibility="visible" stroke-linecap="butt" stroke-linejoin="miter" stroke-miterlimit="4" id="two-68"></path>
      <path transform="matrix(1 0 0 1 398.909 542)" d="M -358.08 -5 L 358.08 -5 L 358.08 5 L -358.08 5 Z " fill="#a79b0b" stroke="#a79b0b" stroke-width="0" stroke-opacity="1" fill-opacity="1" visibility="visible" stroke-linecap="butt" stroke-linejoin="miter" stroke-miterlimit="4" id="two-69"></path>
      <text transform="matrix(1 0 0 1 398.909 562)" font-family="Open Sans" font-size="17" line-height="17" text-anchor="middle" dominant-baseline="middle" alignment-baseline="middle" font-style="normal" font-weight="500" text-decoration="none" fill="#a79b0b" stroke="transparent" stroke-width="1" opacity="1" class="" visibility="visible" id="two-70">Ancient Egypt</text>
      <path transform="matrix(1 0 0 1 772.091 592)" d="M -94.433 -5 L 94.432 -5 L 94.432 5 L -94.433 5 Z " fill="#1898e0" stroke="#1898e0" stroke-width="0" stroke-opacity="1" fill-opacity="1" visibility="visible" stroke-linecap="butt" stroke-linejoin="miter" stroke-miterlimit="4" id="two-71"></path>
      <text transform="matrix(1 0 0 1 772.091 612)" font-family="Open Sans" font-size="17" line-height="17" text-anchor="middle" dominant-baseline="middle" alignment-baseline="middle" font-style="normal" font-weight="500" text-decoration="none" fill="#1898e0" stroke="transparent" stroke-width="1" opacity="1" class="" visibility="visible" id="two-72"> Ancient</text>
      <text transform="matrix(1 0 0 1 772.091 632)" font-family="Open Sans" font-size="17" line-height="17" text-anchor="middle" dominant-baseline="middle" alignment-baseline="middle" font-style="normal" font-weight="500" text-decoration="none" fill="#1898e0" stroke="transparent" stroke-width="1" opacity="1" class="" visibility="visible" id="two-73">Greece</text>
      <path transform="matrix(1 0 0 1 959.5 592)" d="M -91.522 -5 L 91.521 -5 L 91.521 5 L -91.522 5 Z " fill="#1898e0" stroke="#1898e0" stroke-width="0" stroke-opacity="1" fill-opacity="1" visibility="visible" stroke-linecap="butt" stroke-linejoin="miter" stroke-miterlimit="4" id="two-74"></path>
      <text transform="matrix(1 0 0 1 959.5 612)" font-family="Open Sans" font-size="17" line-height="17" text-anchor="middle" dominant-baseline="middle" alignment-baseline="middle" font-style="normal" font-weight="500" text-decoration="none" fill="#1898e0" stroke="transparent" stroke-width="1" opacity="1" class="" visibility="visible" id="two-75">Roman</text>
      <text transform="matrix(1 0 0 1 959.5 632)" font-family="Open Sans" font-size="17" line-height="17" text-anchor="middle" dominant-baseline="middle" alignment-baseline="middle" font-style="normal" font-weight="500" text-decoration="none" fill="#1898e0" stroke="transparent" stroke-width="1" opacity="1" class="" visibility="visible" id="two-76">Empire</text>
      <path transform="matrix(1 0 0 1 1236.066 592)" d="M -184.681 -5 L 184.68 -5 L 184.68 5 L -184.681 5 Z " fill="#8a8f92" stroke="#8a8f92" stroke-width="0" stroke-opacity="1" fill-opacity="1" visibility="visible" stroke-linecap="butt" stroke-linejoin="miter" stroke-miterlimit="4" id="two-77"></path>
      <text transform="matrix(1 0 0 1 1236.066 612)" font-family="Open Sans" font-size="17" line-height="17" text-anchor="middle" dominant-baseline="middle" alignment-baseline="middle" font-style="normal" font-weight="500" text-decoration="none" fill="#8a8f92" stroke="transparent" stroke-width="1" opacity="1" class="" visibility="visible" id="two-78">Middle Ages</text>
      <path transform="matrix(1 0 0 1 1268.817 642)" d="M -161.027 -5 L 161.026 -5 L 161.026 5 L -161.027 5 Z " fill="#b15d42" stroke="#b15d42" stroke-width="0" stroke-opacity="1" fill-opacity="1" visibility="visible" stroke-linecap="butt" stroke-linejoin="miter" stroke-miterlimit="4" id="two-79"></path>
      <text transform="matrix(1 0 0 1 1268.817 662)" font-family="Open Sans" font-size="17" line-height="17" text-anchor="middle" dominant-baseline="middle" alignment-baseline="middle" font-style="normal" font-weight="500" text-decoration="none" fill="#b15d42" stroke="transparent" stroke-width="1" opacity="1" class="" visibility="visible" id="two-80">Caliphates</text>
      <path transform="matrix(1 0 0 1 150 367)" d="M -8.661 5 L -0.001 -10 L 8.66 5 L -8.661 4.999 Z " fill="#a79b0b" stroke="#a79b0b" stroke-width="1" stroke-opacity="1" fill-opacity="1" visibility="visible" stroke-linecap="butt" stroke-linejoin="miter" stroke-miterlimit="4" id="two-81"></path>
      <path transform="matrix(-1 0 -0.001 -1 150 417)" d="M -8.661 5 L -0.001 -10 L 8.66 5 L -8.661 4.999 Z " fill="#a79b0b" stroke="#a79b0b" stroke-width="1" stroke-opacity="1" fill-opacity="1" visibility="visible" stroke-linecap="butt" stroke-linejoin="miter" stroke-miterlimit="4" id="two-82"></path>
      <path transform="matrix(1 0 0 1 150 392)" d="M -83.5 -20 C -83.5 -20 83.5 -20 83.5 -20 C 86.5 -20 86.5 -17 86.5 -17 C 86.5 -17 86.5 17 86.5 17 C 86.5 20 83.5 20 83.5 20 C 83.5 20 -83.5 20 -83.5 20 C -86.5 20 -86.5 17 -86.5 17 C -86.5 17 -86.5 -17 -86.5 -17 C -86.5 -20 -83.5 -20 -83.5 -20 C -83.5 -20 -83.5 -20 -83.5 -20 C -83.5 -20 -83.5 -20 -83.5 -20 Z " fill="#a79b0b" stroke="#a79b0b" stroke-width="1" stroke-opacity="1" fill-opacity="1" visibility="visible" stroke-linecap="butt" stroke-linejoin="miter" stroke-miterlimit="4" id="two-83"></path>
      <text transform="matrix(1 0 0 1 150 392)" font-family="Open Sans" font-size="17" line-height="17" text-anchor="middle" dominant-baseline="middle" alignment-baseline="middle" font-style="normal" font-weight="500" text-decoration="none" fill="white" stroke="transparent" stroke-width="1" opacity="1" class="" visibility="visible" id="two-84">First Algorithm</text>
      <path transform="matrix(-1 0 -0.001 -1 204.585 317)" d="M -8.661 5 L -0.001 -10 L 8.66 5 L -8.661 4.999 Z " fill="#a79b0b" stroke="#a79b0b" stroke-width="1" stroke-opacity="1" fill-opacity="1" visibility="visible" stroke-linecap="butt" stroke-linejoin="miter" stroke-miterlimit="4" id="two-86"></path>
      <path transform="matrix(1 0 0 1 204.585 292)" d="M -144.7 -20 C -144.7 -20 144.7 -20 144.7 -20 C 147.7 -20 147.7 -17 147.7 -17 C 147.7 -17 147.7 17 147.7 17 C 147.7 20 144.7 20 144.7 20 C 144.7 20 -144.7 20 -144.7 20 C -147.7 20 -147.7 17 -147.7 17 C -147.7 17 -147.7 -17 -147.7 -17 C -147.7 -20 -144.7 -20 -144.7 -20 C -144.7 -20 -144.7 -20 -144.7 -20 C -144.7 -20 -144.7 -20 -144.7 -20 Z " fill="#a79b0b" stroke="#a79b0b" stroke-width="1" stroke-opacity="1" fill-opacity="1" visibility="visible" stroke-linecap="butt" stroke-linejoin="miter" stroke-miterlimit="4" id="two-87"></path>
      <text transform="matrix(1 0 0 1 204.585 292)" font-family="Open Sans" font-size="17" line-height="17" text-anchor="middle" dominant-baseline="middle" alignment-baseline="middle" font-style="normal" font-weight="500" text-decoration="none" fill="white" stroke="transparent" stroke-width="1" opacity="1" class="" visibility="visible" id="two-88">Moscow Mathematical Papyrus</text>
      <path transform="matrix(1 0 0 1 204.585 482)" d="M 3 0 C 3 1.656 1.656 3 0 3 C -1.657 3 -3 1.656 -3 0 C -3.001 -1.657 -1.657 -3 -0.001 -3 C 1.656 -3.001 3 -1.657 3 0 Z " fill="#a79b0b" stroke="#a79b0b" stroke-width="1" stroke-opacity="1" fill-opacity="1" visibility="visible" stroke-linecap="butt" stroke-linejoin="miter" stroke-miterlimit="4" id="two-99"></path>
      <path transform="matrix(-1 0 -0.001 -1 313.756 217)" d="M -8.661 5 L -0.001 -10 L 8.66 5 L -8.661 4.999 Z " fill="#a79b0b" stroke="#a79b0b" stroke-width="1" stroke-opacity="1" fill-opacity="1" visibility="visible" stroke-linecap="butt" stroke-linejoin="miter" stroke-miterlimit="4" id="two-100"></path>
      <path transform="matrix(1 0 0 1 313.756 192)" d="M -139.6 -20 C -139.6 -20 139.6 -20 139.6 -20 C 142.6 -20 142.6 -17 142.6 -17 C 142.6 -17 142.6 17 142.6 17 C 142.6 20 139.6 20 139.6 20 C 139.6 20 -139.6 20 -139.6 20 C -142.6 20 -142.6 17 -142.6 17 C -142.6 17 -142.6 -17 -142.6 -17 C -142.6 -20 -139.6 -20 -139.6 -20 C -139.6 -20 -139.6 -20 -139.6 -20 C -139.6 -20 -139.6 -20 -139.6 -20 Z " fill="#a79b0b" stroke="#a79b0b" stroke-width="1" stroke-opacity="1" fill-opacity="1" visibility="visible" stroke-linecap="butt" stroke-linejoin="miter" stroke-miterlimit="4" id="two-101"></path>
      <text transform="matrix(1 0 0 1 313.756 192)" font-family="Open Sans" font-size="17" line-height="17" text-anchor="middle" dominant-baseline="middle" alignment-baseline="middle" font-style="normal" font-weight="500" text-decoration="none" fill="white" stroke="transparent" stroke-width="1" opacity="1" class="" visibility="visible" id="two-102">Rhind Mathematical Papyrus</text>
      <path transform="matrix(1 0 0 1 313.756 482)" d="M 3 0 C 3 1.656 1.656 3 0 3 C -1.657 3 -3 1.656 -3 0 C -3.001 -1.657 -1.657 -3 -0.001 -3 C 1.656 -3.001 3 -1.657 3 0 Z " fill="#a79b0b" stroke="#a79b0b" stroke-width="1" stroke-opacity="1" fill-opacity="1" visibility="visible" stroke-linecap="butt" stroke-linejoin="miter" stroke-miterlimit="4" id="two-120"></path>
      <path transform="matrix(1 0 0 1 313.756 422)" d="M -8.098 -12.5 C -8.098 -12.5 8.097 -12.5 8.097 -12.5 C 9.097 -12.5 9.097 -11.5 9.097 -11.5 C 9.097 -11.5 9.097 11.5 9.097 11.5 C 9.097 12.5 8.097 12.5 8.097 12.5 C 8.097 12.5 -8.098 12.5 -8.098 12.5 C -9.098 12.5 -9.098 11.5 -9.098 11.5 C -9.098 11.5 -9.098 -11.5 -9.098 -11.5 C -9.098 -12.5 -8.098 -12.5 -8.098 -12.5 C -8.098 -12.5 -8.098 -12.5 -8.098 -12.5 C -8.098 -12.5 -8.098 -12.5 -8.098 -12.5 Z " fill="#a79b0b" stroke="#a79b0b" stroke-width="1" stroke-opacity="1" fill-opacity="1" visibility="visible" stroke-linecap="butt" stroke-linejoin="miter" stroke-miterlimit="4" id="two-121"></path>
      <text transform="matrix(1 0 0 1 313.756 397)" font-family="Open Sans" font-size="17" line-height="17" text-anchor="middle" dominant-baseline="middle" alignment-baseline="middle" font-style="normal" font-weight="500" text-decoration="none" fill="white" stroke="transparent" stroke-width="1" opacity="1" class="" visibility="visible" id="two-122">Ahmes</text>
      <path transform="matrix(1 0 0 1 313.756 482)" d="M 3 0 C 3 1.656 1.656 3 0 3 C -1.657 3 -3 1.656 -3 0 C -3.001 -1.657 -1.657 -3 -0.001 -3 C 1.656 -3.001 3 -1.657 3 0 Z " fill="#a79b0b" stroke="#a79b0b" stroke-width="1" stroke-opacity="1" fill-opacity="1" visibility="visible" stroke-linecap="butt" stroke-linejoin="miter" stroke-miterlimit="4" id="two-126"></path>
      <path transform="matrix(1 0 0 1 1608.52 367)" d="M -8.661 5 L -0.001 -10 L 8.66 5 L -8.661 4.999 Z " fill="#0ac18e" stroke="#0ac18e" stroke-width="1" stroke-opacity="1" fill-opacity="1" visibility="visible" stroke-linecap="butt" stroke-linejoin="miter" stroke-miterlimit="4" id="two-127"></path>
      <path transform="matrix(-1 0 -0.001 -1 1608.52 417)" d="M -8.661 5 L -0.001 -10 L 8.66 5 L -8.661 4.999 Z " fill="#0ac18e" stroke="#0ac18e" stroke-width="1" stroke-opacity="1" fill-opacity="1" visibility="visible" stroke-linecap="butt" stroke-linejoin="miter" stroke-miterlimit="4" id="two-128"></path>
      <path transform="matrix(1 0 0 1 1608.52 392)" d="M -42.7 -20 C -42.7 -20 42.699 -20 42.699 -20 C 45.699 -20 45.699 -17 45.699 -17 C 45.699 -17 45.699 17 45.699 17 C 45.699 20 42.699 20 42.699 20 C 42.699 20 -42.7 20 -42.7 20 C -45.7 20 -45.7 17 -45.7 17 C -45.7 17 -45.7 -17 -45.7 -17 C -45.7 -20 -42.7 -20 -42.7 -20 C -42.7 -20 -42.7 -20 -42.7 -20 C -42.7 -20 -42.7 -20 -42.7 -20 Z " fill="#0ac18e" stroke="#0ac18e" stroke-width="1" stroke-opacity="1" fill-opacity="1" visibility="visible" stroke-linecap="butt" stroke-linejoin="miter" stroke-miterlimit="4" id="two-129"></path>
      <text transform="matrix(1 0 0 1 1608.52 392)" font-family="Open Sans" font-size="17" line-height="17" text-anchor="middle" dominant-baseline="middle" alignment-baseline="middle" font-style="normal" font-weight="500" text-decoration="none" fill="white" stroke="transparent" stroke-width="1" opacity="1" class="" visibility="visible" id="two-130">Bitcoin</text>
      <path transform="matrix(1 0 0 1 1613.251 567)" d="M -8.661 5 L -0.001 -10 L 8.66 5 L -8.661 4.999 Z " fill="#8a8f92" stroke="#8a8f92" stroke-width="1" stroke-opacity="1" fill-opacity="1" visibility="visible" stroke-linecap="butt" stroke-linejoin="miter" stroke-miterlimit="4" id="two-132"></path>
      <path transform="matrix(-1 0 -0.001 -1 1613.251 617)" d="M -8.661 5 L -0.001 -10 L 8.66 5 L -8.661 4.999 Z " fill="#8a8f92" stroke="#8a8f92" stroke-width="1" stroke-opacity="1" fill-opacity="1" visibility="visible" stroke-linecap="butt" stroke-linejoin="miter" stroke-miterlimit="4" id="two-133"></path>
      <path transform="matrix(1 0 0 1 1613.251 592)" d="M -32.5 -20 C -32.5 -20 32.5 -20 32.5 -20 C 35.5 -20 35.5 -17 35.5 -17 C 35.5 -17 35.5 17 35.5 17 C 35.5 20 32.5 20 32.5 20 C 32.5 20 -32.5 20 -32.5 20 C -35.5 20 -35.5 17 -35.5 17 C -35.5 17 -35.5 -17 -35.5 -17 C -35.5 -20 -32.5 -20 -32.5 -20 C -32.5 -20 -32.5 -20 -32.5 -20 C -32.5 -20 -32.5 -20 -32.5 -20 Z " fill="#8a8f92" stroke="#8a8f92" stroke-width="1" stroke-opacity="1" fill-opacity="1" visibility="visible" stroke-linecap="butt" stroke-linejoin="miter" stroke-miterlimit="4" id="two-134"></path>
      <text transform="matrix(1 0 0 1 1613.251 592)" font-family="Open Sans" font-size="17" line-height="17" text-anchor="middle" dominant-baseline="middle" alignment-baseline="middle" font-style="normal" font-weight="500" text-decoration="none" fill="white" stroke="transparent" stroke-width="1" opacity="1" class="" visibility="visible" id="two-135">Today</text>
      <path transform="matrix(1 0 0 1 699.492 767)" d="M -8.661 5 L -0.001 -10 L 8.66 5 L -8.661 4.999 Z " fill="#a79b0b" stroke="#a79b0b" stroke-width="1" stroke-opacity="1" fill-opacity="1" visibility="visible" stroke-linecap="butt" stroke-linejoin="miter" stroke-miterlimit="4" id="two-137"></path>
      <path transform="matrix(-1 0 -0.001 -1 699.492 817)" d="M -8.661 5 L -0.001 -10 L 8.66 5 L -8.661 4.999 Z " fill="#a79b0b" stroke="#a79b0b" stroke-width="1" stroke-opacity="1" fill-opacity="1" visibility="visible" stroke-linecap="butt" stroke-linejoin="miter" stroke-miterlimit="4" id="two-138"></path>
      <path transform="matrix(1 0 0 1 699.492 792)" d="M -47.8 -20 C -47.8 -20 47.8 -20 47.8 -20 C 50.8 -20 50.8 -17 50.8 -17 C 50.8 -17 50.8 17 50.8 17 C 50.8 20 47.8 20 47.8 20 C 47.8 20 -47.8 20 -47.8 20 C -50.8 20 -50.8 17 -50.8 17 C -50.8 17 -50.8 -17 -50.8 -17 C -50.8 -20 -47.8 -20 -47.8 -20 C -47.8 -20 -47.8 -20 -47.8 -20 C -47.8 -20 -47.8 -20 -47.8 -20 Z " fill="#a79b0b" stroke="#a79b0b" stroke-width="1" stroke-opacity="1" fill-opacity="1" visibility="visible" stroke-linecap="butt" stroke-linejoin="miter" stroke-miterlimit="4" id="two-139"></path>
      <text transform="matrix(1 0 0 1 699.492 792)" font-family="Open Sans" font-size="17" line-height="17" text-anchor="middle" dominant-baseline="middle" alignment-baseline="middle" font-style="normal" font-weight="500" text-decoration="none" fill="white" stroke="transparent" stroke-width="1" opacity="1" class="" visibility="visible" id="two-140">Marathon</text>
   </g>
</svg>