<svg xmlns="http://www.w3.org/2000/svg" version="1.1" width="1878" height="1305" style="overflow: hidden; display: block; inset: 0px; position: fixed;">
    <defs></defs>
    <g id="two-0" transform="matrix(1 0 0 1 0 0)" opacity="1">
        <g id="two-1" transform="matrix(1 0 0 1 0 0)" opacity="1">
            <path transform="matrix(1 0 0 1 1182.894 552.5)" d="M -1.5 -1305 L 1.5 -1305 L 1.5 1305 L -1.5 1305 Z " fill="#a79b0b" stroke="#a79b0b" stroke-width="0" stroke-opacity="1" fill-opacity="1" visibility="visible" stroke-linecap="butt" stroke-linejoin="miter" stroke-miterlimit="4" id="two-53"></path>
            <path transform="matrix(1 0 0 1 1231.447 497.5)" d="M -1.5 -5 L 1.5 -5 L 1.5 5 L -1.5 5 Z " fill="#a79b0b" stroke="#a79b0b" stroke-width="0" stroke-opacity="0.5" fill-opacity="0.5" visibility="visible" stroke-linecap="butt" stroke-linejoin="miter" stroke-miterlimit="4" id="two-57"></path>
            <path transform="matrix(1 0 0 1 1231.447 512.5)" d="M -1.5 -5 L 1.5 -5 L 1.5 5 L -1.5 5 Z " fill="#a79b0b" stroke="#a79b0b" stroke-width="0" stroke-opacity="0.5" fill-opacity="0.5" visibility="visible" stroke-linecap="butt" stroke-linejoin="miter" stroke-miterlimit="4" id="two-58"></path>
            <path transform="matrix(1 0 0 1 1231.447 527.5)" d="M -1.5 -5 L 1.5 -5 L 1.5 5 L -1.5 5 Z " fill="#a79b0b" stroke="#a79b0b" stroke-width="0" stroke-opacity="0.5" fill-opacity="0.5" visibility="visible" stroke-linecap="butt" stroke-linejoin="miter" stroke-miterlimit="4" id="two-59"></path>
            <path transform="matrix(1 0 0 1 1231.447 542.5)" d="M -1.5 -5 L 1.5 -5 L 1.5 5 L -1.5 5 Z " fill="#a79b0b" stroke="#a79b0b" stroke-width="0" stroke-opacity="0.5" fill-opacity="0.5" visibility="visible" stroke-linecap="butt" stroke-linejoin="miter" stroke-miterlimit="4" id="two-60"></path>
            <path transform="matrix(1 0 0 1 1231.447 557.5)" d="M -1.5 -5 L 1.5 -5 L 1.5 5 L -1.5 5 Z " fill="#a79b0b" stroke="#a79b0b" stroke-width="0" stroke-opacity="0.5" fill-opacity="0.5" visibility="visible" stroke-linecap="butt" stroke-linejoin="miter" stroke-miterlimit="4" id="two-61"></path>
            <path transform="matrix(1 0 0 1 1231.447 572.5)" d="M -1.5 -5 L 1.5 -5 L 1.5 5 L -1.5 5 Z " fill="#a79b0b" stroke="#a79b0b" stroke-width="0" stroke-opacity="0.5" fill-opacity="0.5" visibility="visible" stroke-linecap="butt" stroke-linejoin="miter" stroke-miterlimit="4" id="two-62"></path>
            <path transform="matrix(1 0 0 1 1231.447 587.5)" d="M -1.5 -5 L 1.5 -5 L 1.5 5 L -1.5 5 Z " fill="#a79b0b" stroke="#a79b0b" stroke-width="0" stroke-opacity="0.5" fill-opacity="0.5" visibility="visible" stroke-linecap="butt" stroke-linejoin="miter" stroke-miterlimit="4" id="two-63"></path>
            <path transform="matrix(1 0 0 1 1231.447 602.5)" d="M -1.5 -5 L 1.5 -5 L 1.5 5 L -1.5 5 Z " fill="#a79b0b" stroke="#a79b0b" stroke-width="0" stroke-opacity="0.5" fill-opacity="0.5" visibility="visible" stroke-linecap="butt" stroke-linejoin="miter" stroke-miterlimit="4" id="two-64"></path>
            <path transform="matrix(1 0 0 1 1231.447 617.5)" d="M -1.5 -5 L 1.5 -5 L 1.5 5 L -1.5 5 Z " fill="#a79b0b" stroke="#a79b0b" stroke-width="0" stroke-opacity="0.5" fill-opacity="0.5" visibility="visible" stroke-linecap="butt" stroke-linejoin="miter" stroke-miterlimit="4" id="two-65"></path>
            <path transform="matrix(1 0 0 1 1231.447 632.5)" d="M -1.5 -5 L 1.5 -5 L 1.5 5 L -1.5 5 Z " fill="#a79b0b" stroke="#a79b0b" stroke-width="0" stroke-opacity="0.5" fill-opacity="0.5" visibility="visible" stroke-linecap="butt" stroke-linejoin="miter" stroke-miterlimit="4" id="two-66"></path>
            <path transform="matrix(1 0 0 1 1296.184 397.5)" d="M -1.5 -5 L 1.5 -5 L 1.5 5 L -1.5 5 Z " fill="#a79b0b" stroke="#a79b0b" stroke-width="0" stroke-opacity="0.5" fill-opacity="0.5" visibility="visible" stroke-linecap="butt" stroke-linejoin="miter" stroke-miterlimit="4" id="two-71"></path>
            <path transform="matrix(1 0 0 1 1296.184 412.5)" d="M -1.5 -5 L 1.5 -5 L 1.5 5 L -1.5 5 Z " fill="#a79b0b" stroke="#a79b0b" stroke-width="0" stroke-opacity="0.5" fill-opacity="0.5" visibility="visible" stroke-linecap="butt" stroke-linejoin="miter" stroke-miterlimit="4" id="two-72"></path>
            <path transform="matrix(1 0 0 1 1296.184 427.5)" d="M -1.5 -5 L 1.5 -5 L 1.5 5 L -1.5 5 Z " fill="#a79b0b" stroke="#a79b0b" stroke-width="0" stroke-opacity="0.5" fill-opacity="0.5" visibility="visible" stroke-linecap="butt" stroke-linejoin="miter" stroke-miterlimit="4" id="two-73"></path>
            <path transform="matrix(1 0 0 1 1296.184 442.5)" d="M -1.5 -5 L 1.5 -5 L 1.5 5 L -1.5 5 Z " fill="#a79b0b" stroke="#a79b0b" stroke-width="0" stroke-opacity="0.5" fill-opacity="0.5" visibility="visible" stroke-linecap="butt" stroke-linejoin="miter" stroke-miterlimit="4" id="two-74"></path>
            <path transform="matrix(1 0 0 1 1296.184 457.5)" d="M -1.5 -5 L 1.5 -5 L 1.5 5 L -1.5 5 Z " fill="#a79b0b" stroke="#a79b0b" stroke-width="0" stroke-opacity="0.5" fill-opacity="0.5" visibility="visible" stroke-linecap="butt" stroke-linejoin="miter" stroke-miterlimit="4" id="two-75"></path>
            <path transform="matrix(1 0 0 1 1296.184 472.5)" d="M -1.5 -5 L 1.5 -5 L 1.5 5 L -1.5 5 Z " fill="#a79b0b" stroke="#a79b0b" stroke-width="0" stroke-opacity="0.5" fill-opacity="0.5" visibility="visible" stroke-linecap="butt" stroke-linejoin="miter" stroke-miterlimit="4" id="two-76"></path>
            <path transform="matrix(1 0 0 1 1296.184 487.5)" d="M -1.5 -5 L 1.5 -5 L 1.5 5 L -1.5 5 Z " fill="#a79b0b" stroke="#a79b0b" stroke-width="0" stroke-opacity="0.5" fill-opacity="0.5" visibility="visible" stroke-linecap="butt" stroke-linejoin="miter" stroke-miterlimit="4" id="two-77"></path>
            <path transform="matrix(1 0 0 1 1296.184 502.5)" d="M -1.5 -5 L 1.5 -5 L 1.5 5 L -1.5 5 Z " fill="#a79b0b" stroke="#a79b0b" stroke-width="0" stroke-opacity="0.5" fill-opacity="0.5" visibility="visible" stroke-linecap="butt" stroke-linejoin="miter" stroke-miterlimit="4" id="two-78"></path>
            <path transform="matrix(1 0 0 1 1296.184 517.5)" d="M -1.5 -5 L 1.5 -5 L 1.5 5 L -1.5 5 Z " fill="#a79b0b" stroke="#a79b0b" stroke-width="0" stroke-opacity="0.5" fill-opacity="0.5" visibility="visible" stroke-linecap="butt" stroke-linejoin="miter" stroke-miterlimit="4" id="two-79"></path>
            <path transform="matrix(1 0 0 1 1296.184 532.5)" d="M -1.5 -5 L 1.5 -5 L 1.5 5 L -1.5 5 Z " fill="#a79b0b" stroke="#a79b0b" stroke-width="0" stroke-opacity="0.5" fill-opacity="0.5" visibility="visible" stroke-linecap="butt" stroke-linejoin="miter" stroke-miterlimit="4" id="two-80"></path>
            <path transform="matrix(1 0 0 1 1296.184 547.5)" d="M -1.5 -5 L 1.5 -5 L 1.5 5 L -1.5 5 Z " fill="#a79b0b" stroke="#a79b0b" stroke-width="0" stroke-opacity="0.5" fill-opacity="0.5" visibility="visible" stroke-linecap="butt" stroke-linejoin="miter" stroke-miterlimit="4" id="two-81"></path>
            <path transform="matrix(1 0 0 1 1296.184 562.5)" d="M -1.5 -5 L 1.5 -5 L 1.5 5 L -1.5 5 Z " fill="#a79b0b" stroke="#a79b0b" stroke-width="0" stroke-opacity="0.5" fill-opacity="0.5" visibility="visible" stroke-linecap="butt" stroke-linejoin="miter" stroke-miterlimit="4" id="two-82"></path>
            <path transform="matrix(1 0 0 1 1296.184 577.5)" d="M -1.5 -5 L 1.5 -5 L 1.5 5 L -1.5 5 Z " fill="#a79b0b" stroke="#a79b0b" stroke-width="0" stroke-opacity="0.5" fill-opacity="0.5" visibility="visible" stroke-linecap="butt" stroke-linejoin="miter" stroke-miterlimit="4" id="two-83"></path>
            <path transform="matrix(1 0 0 1 1296.184 592.5)" d="M -1.5 -5 L 1.5 -5 L 1.5 5 L -1.5 5 Z " fill="#a79b0b" stroke="#a79b0b" stroke-width="0" stroke-opacity="0.5" fill-opacity="0.5" visibility="visible" stroke-linecap="butt" stroke-linejoin="miter" stroke-miterlimit="4" id="two-84"></path>
            <path transform="matrix(1 0 0 1 1296.184 607.5)" d="M -1.5 -5 L 1.5 -5 L 1.5 5 L -1.5 5 Z " fill="#a79b0b" stroke="#a79b0b" stroke-width="0" stroke-opacity="0.5" fill-opacity="0.5" visibility="visible" stroke-linecap="butt" stroke-linejoin="miter" stroke-miterlimit="4" id="two-85"></path>
            <path transform="matrix(1 0 0 1 1296.184 622.5)" d="M -1.5 -5 L 1.5 -5 L 1.5 5 L -1.5 5 Z " fill="#a79b0b" stroke="#a79b0b" stroke-width="0" stroke-opacity="0.5" fill-opacity="0.5" visibility="visible" stroke-linecap="butt" stroke-linejoin="miter" stroke-miterlimit="4" id="two-86"></path>
            <path transform="matrix(1 0 0 1 1296.184 637.5)" d="M -1.5 -5 L 1.5 -5 L 1.5 5 L -1.5 5 Z " fill="#a79b0b" stroke="#a79b0b" stroke-width="0" stroke-opacity="0.5" fill-opacity="0.5" visibility="visible" stroke-linecap="butt" stroke-linejoin="miter" stroke-miterlimit="4" id="two-87"></path>
            <path transform="matrix(1 0 0 1 956.315 597.5)" d="M -1.5 -5 L 1.5 -5 L 1.5 5 L -1.5 5 Z " fill="#a79b0b" stroke="#a79b0b" stroke-width="0" stroke-opacity="0.5" fill-opacity="0.5" visibility="visible" stroke-linecap="butt" stroke-linejoin="miter" stroke-miterlimit="4" id="two-92"></path>
            <path transform="matrix(1 0 0 1 956.315 612.5)" d="M -1.5 -5 L 1.5 -5 L 1.5 5 L -1.5 5 Z " fill="#a79b0b" stroke="#a79b0b" stroke-width="0" stroke-opacity="0.5" fill-opacity="0.5" visibility="visible" stroke-linecap="butt" stroke-linejoin="miter" stroke-miterlimit="4" id="two-93"></path>
            <path transform="matrix(1 0 0 1 956.315 627.5)" d="M -1.5 -5 L 1.5 -5 L 1.5 5 L -1.5 5 Z " fill="#a79b0b" stroke="#a79b0b" stroke-width="0" stroke-opacity="0.5" fill-opacity="0.5" visibility="visible" stroke-linecap="butt" stroke-linejoin="miter" stroke-miterlimit="4" id="two-94"></path>
            <path transform="matrix(1 0 0 1 2480.22 552.5)" d="M -1.5 -1305 L 1.5 -1305 L 1.5 1305 L -1.5 1305 Z " fill="#0ac18e" stroke="#0ac18e" stroke-width="0" stroke-opacity="1" fill-opacity="1" visibility="visible" stroke-linecap="butt" stroke-linejoin="miter" stroke-miterlimit="4" id="two-100"></path>
            <path transform="matrix(1 0 0 1 1671.657 952.5)" d="M -1.5 -1305 L 1.5 -1305 L 1.5 1305 L -1.5 1305 Z " fill="#2850ce" stroke="#2850ce" stroke-width="0" stroke-opacity="1" fill-opacity="1" visibility="visible" stroke-linecap="butt" stroke-linejoin="miter" stroke-miterlimit="4" id="two-105"></path>
        </g>
        <g id="two-2" transform="matrix(1 0 0 1 0 0)" opacity="1"></g>
        <path transform="matrix(1 0 0 1 0 652.5)" d="M -2560 -2.5 L 2560 -2.5 L 2560 2.5 L -2560 2.5 Z " fill="white" stroke="#000" stroke-width="0" stroke-opacity="1" fill-opacity="1" visibility="visible" stroke-linecap="butt" stroke-linejoin="miter" stroke-miterlimit="4" id="two-3"></path>
        <path transform="matrix(1 0 0 1 50 652.5)" d="M 5 0 C 5 2.761 2.761 5 0 5 C -2.762 5 -5 2.761 -5 0 C -5.001 -2.762 -2.762 -5 -0.001 -5 C 2.761 -5.001 5 -2.762 5 0 Z " fill="white" stroke="white" stroke-width="1" stroke-opacity="1" fill-opacity="1" visibility="visible" stroke-linecap="butt" stroke-linejoin="miter" stroke-miterlimit="4" id="two-4"></path>
        <text transform="matrix(1 0 0 1 50 672.5)" font-family="FiraCode" font-size="13" line-height="17" text-anchor="middle" dominant-baseline="middle" alignment-baseline="middle" font-style="normal" font-weight="500" text-decoration="none" fill="white" stroke="transparent" stroke-width="1" opacity="1" class="" visibility="visible" id="two-5">-5500</text>
        <path transform="matrix(1 0 0 1 211.842 652.5)" d="M 5 0 C 5 2.761 2.761 5 0 5 C -2.762 5 -5 2.761 -5 0 C -5.001 -2.762 -2.762 -5 -0.001 -5 C 2.761 -5.001 5 -2.762 5 0 Z " fill="white" stroke="white" stroke-width="1" stroke-opacity="1" fill-opacity="1" visibility="visible" stroke-linecap="butt" stroke-linejoin="miter" stroke-miterlimit="4" id="two-6"></path>
        <text transform="matrix(1 0 0 1 211.842 672.5)" font-family="FiraCode" font-size="16" line-height="17" text-anchor="middle" dominant-baseline="middle" alignment-baseline="middle" font-style="normal" font-weight="500" text-decoration="none" fill="white" stroke="transparent" stroke-width="1" opacity="1" class="" visibility="visible" id="two-7">-5000</text>
        <path transform="matrix(1 0 0 1 373.684 652.5)" d="M 5 0 C 5 2.761 2.761 5 0 5 C -2.762 5 -5 2.761 -5 0 C -5.001 -2.762 -2.762 -5 -0.001 -5 C 2.761 -5.001 5 -2.762 5 0 Z " fill="white" stroke="white" stroke-width="1" stroke-opacity="1" fill-opacity="1" visibility="visible" stroke-linecap="butt" stroke-linejoin="miter" stroke-miterlimit="4" id="two-8"></path>
        <text transform="matrix(1 0 0 1 373.684 672.5)" font-family="FiraCode" font-size="13" line-height="17" text-anchor="middle" dominant-baseline="middle" alignment-baseline="middle" font-style="normal" font-weight="500" text-decoration="none" fill="white" stroke="transparent" stroke-width="1" opacity="1" class="" visibility="visible" id="two-9">-4500</text>
        <path transform="matrix(1 0 0 1 535.526 652.5)" d="M 5 0 C 5 2.761 2.761 5 0 5 C -2.762 5 -5 2.761 -5 0 C -5.001 -2.762 -2.762 -5 -0.001 -5 C 2.761 -5.001 5 -2.762 5 0 Z " fill="white" stroke="white" stroke-width="1" stroke-opacity="1" fill-opacity="1" visibility="visible" stroke-linecap="butt" stroke-linejoin="miter" stroke-miterlimit="4" id="two-10"></path>
        <text transform="matrix(1 0 0 1 535.526 672.5)" font-family="FiraCode" font-size="16" line-height="17" text-anchor="middle" dominant-baseline="middle" alignment-baseline="middle" font-style="normal" font-weight="500" text-decoration="none" fill="white" stroke="transparent" stroke-width="1" opacity="1" class="" visibility="visible" id="two-11">-4000</text>
        <path transform="matrix(1 0 0 1 697.368 652.5)" d="M 5 0 C 5 2.761 2.761 5 0 5 C -2.762 5 -5 2.761 -5 0 C -5.001 -2.762 -2.762 -5 -0.001 -5 C 2.761 -5.001 5 -2.762 5 0 Z " fill="white" stroke="white" stroke-width="1" stroke-opacity="1" fill-opacity="1" visibility="visible" stroke-linecap="butt" stroke-linejoin="miter" stroke-miterlimit="4" id="two-12"></path>
        <text transform="matrix(1 0 0 1 697.368 672.5)" font-family="FiraCode" font-size="13" line-height="17" text-anchor="middle" dominant-baseline="middle" alignment-baseline="middle" font-style="normal" font-weight="500" text-decoration="none" fill="white" stroke="transparent" stroke-width="1" opacity="1" class="" visibility="visible" id="two-13">-3500</text>
        <path transform="matrix(1 0 0 1 859.21 652.5)" d="M 5 0 C 5 2.761 2.761 5 0 5 C -2.762 5 -5 2.761 -5 0 C -5.001 -2.762 -2.762 -5 -0.001 -5 C 2.761 -5.001 5 -2.762 5 0 Z " fill="white" stroke="white" stroke-width="1" stroke-opacity="1" fill-opacity="1" visibility="visible" stroke-linecap="butt" stroke-linejoin="miter" stroke-miterlimit="4" id="two-14"></path>
        <text transform="matrix(1 0 0 1 859.21 672.5)" font-family="FiraCode" font-size="16" line-height="17" text-anchor="middle" dominant-baseline="middle" alignment-baseline="middle" font-style="normal" font-weight="500" text-decoration="none" fill="white" stroke="transparent" stroke-width="1" opacity="1" class="" visibility="visible" id="two-15">-3000</text>
        <path transform="matrix(1 0 0 1 1021.052 652.5)" d="M 5 0 C 5 2.761 2.761 5 0 5 C -2.762 5 -5 2.761 -5 0 C -5.001 -2.762 -2.762 -5 -0.001 -5 C 2.761 -5.001 5 -2.762 5 0 Z " fill="white" stroke="white" stroke-width="1" stroke-opacity="1" fill-opacity="1" visibility="visible" stroke-linecap="butt" stroke-linejoin="miter" stroke-miterlimit="4" id="two-16"></path>
        <text transform="matrix(1 0 0 1 1021.052 672.5)" font-family="FiraCode" font-size="13" line-height="17" text-anchor="middle" dominant-baseline="middle" alignment-baseline="middle" font-style="normal" font-weight="500" text-decoration="none" fill="white" stroke="transparent" stroke-width="1" opacity="1" class="" visibility="visible" id="two-17">-2500</text>
        <path transform="matrix(1 0 0 1 1182.894 652.5)" d="M 5 0 C 5 2.761 2.761 5 0 5 C -2.762 5 -5 2.761 -5 0 C -5.001 -2.762 -2.762 -5 -0.001 -5 C 2.761 -5.001 5 -2.762 5 0 Z " fill="white" stroke="white" stroke-width="1" stroke-opacity="1" fill-opacity="1" visibility="visible" stroke-linecap="butt" stroke-linejoin="miter" stroke-miterlimit="4" id="two-18"></path>
        <text transform="matrix(1 0 0 1 1182.894 672.5)" font-family="FiraCode" font-size="16" line-height="17" text-anchor="middle" dominant-baseline="middle" alignment-baseline="middle" font-style="normal" font-weight="500" text-decoration="none" fill="white" stroke="transparent" stroke-width="1" opacity="1" class="" visibility="visible" id="two-19">-2000</text>
        <path transform="matrix(1 0 0 1 1344.736 652.5)" d="M 5 0 C 5 2.761 2.761 5 0 5 C -2.762 5 -5 2.761 -5 0 C -5.001 -2.762 -2.762 -5 -0.001 -5 C 2.761 -5.001 5 -2.762 5 0 Z " fill="white" stroke="white" stroke-width="1" stroke-opacity="1" fill-opacity="1" visibility="visible" stroke-linecap="butt" stroke-linejoin="miter" stroke-miterlimit="4" id="two-20"></path>
        <text transform="matrix(1 0 0 1 1344.736 672.5)" font-family="FiraCode" font-size="13" line-height="17" text-anchor="middle" dominant-baseline="middle" alignment-baseline="middle" font-style="normal" font-weight="500" text-decoration="none" fill="white" stroke="transparent" stroke-width="1" opacity="1" class="" visibility="visible" id="two-21">-1500</text>
        <path transform="matrix(1 0 0 1 1506.578 652.5)" d="M 5 0 C 5 2.761 2.761 5 0 5 C -2.762 5 -5 2.761 -5 0 C -5.001 -2.762 -2.762 -5 -0.001 -5 C 2.761 -5.001 5 -2.762 5 0 Z " fill="white" stroke="white" stroke-width="1" stroke-opacity="1" fill-opacity="1" visibility="visible" stroke-linecap="butt" stroke-linejoin="miter" stroke-miterlimit="4" id="two-22"></path>
        <text transform="matrix(1 0 0 1 1506.578 672.5)" font-family="FiraCode" font-size="16" line-height="17" text-anchor="middle" dominant-baseline="middle" alignment-baseline="middle" font-style="normal" font-weight="500" text-decoration="none" fill="white" stroke="transparent" stroke-width="1" opacity="1" class="" visibility="visible" id="two-23">-1000</text>
        <path transform="matrix(1 0 0 1 1668.421 652.5)" d="M 5 0 C 5 2.761 2.761 5 0 5 C -2.762 5 -5 2.761 -5 0 C -5.001 -2.762 -2.762 -5 -0.001 -5 C 2.761 -5.001 5 -2.762 5 0 Z " fill="white" stroke="white" stroke-width="1" stroke-opacity="1" fill-opacity="1" visibility="visible" stroke-linecap="butt" stroke-linejoin="miter" stroke-miterlimit="4" id="two-24"></path>
        <text transform="matrix(1 0 0 1 1668.421 672.5)" font-family="FiraCode" font-size="13" line-height="17" text-anchor="middle" dominant-baseline="middle" alignment-baseline="middle" font-style="normal" font-weight="500" text-decoration="none" fill="white" stroke="transparent" stroke-width="1" opacity="1" class="" visibility="visible" id="two-25">-500</text>
        <path transform="matrix(1 0 0 1 1830.263 652.5)" d="M 5 0 C 5 2.761 2.761 5 0 5 C -2.762 5 -5 2.761 -5 0 C -5.001 -2.762 -2.762 -5 -0.001 -5 C 2.761 -5.001 5 -2.762 5 0 Z " fill="white" stroke="white" stroke-width="1" stroke-opacity="1" fill-opacity="1" visibility="visible" stroke-linecap="butt" stroke-linejoin="miter" stroke-miterlimit="4" id="two-26"></path>
        <text transform="matrix(1 0 0 1 1830.263 672.5)" font-family="FiraCode" font-size="16" line-height="17" text-anchor="middle" dominant-baseline="middle" alignment-baseline="middle" font-style="normal" font-weight="500" text-decoration="none" fill="white" stroke="transparent" stroke-width="1" opacity="1" class="" visibility="visible" id="two-27"></text>
        <path transform="matrix(1 0 0 1 1992.105 652.5)" d="M 5 0 C 5 2.761 2.761 5 0 5 C -2.762 5 -5 2.761 -5 0 C -5.001 -2.762 -2.762 -5 -0.001 -5 C 2.761 -5.001 5 -2.762 5 0 Z " fill="white" stroke="white" stroke-width="1" stroke-opacity="1" fill-opacity="1" visibility="visible" stroke-linecap="butt" stroke-linejoin="miter" stroke-miterlimit="4" id="two-28"></path>
        <text transform="matrix(1 0 0 1 1992.105 672.5)" font-family="FiraCode" font-size="13" line-height="17" text-anchor="middle" dominant-baseline="middle" alignment-baseline="middle" font-style="normal" font-weight="500" text-decoration="none" fill="white" stroke="transparent" stroke-width="1" opacity="1" class="" visibility="visible" id="two-29">500</text>
        <path transform="matrix(1 0 0 1 2153.947 652.5)" d="M 5 0 C 5 2.761 2.761 5 0 5 C -2.762 5 -5 2.761 -5 0 C -5.001 -2.762 -2.762 -5 -0.001 -5 C 2.761 -5.001 5 -2.762 5 0 Z " fill="white" stroke="white" stroke-width="1" stroke-opacity="1" fill-opacity="1" visibility="visible" stroke-linecap="butt" stroke-linejoin="miter" stroke-miterlimit="4" id="two-30"></path>
        <text transform="matrix(1 0 0 1 2153.947 672.5)" font-family="FiraCode" font-size="16" line-height="17" text-anchor="middle" dominant-baseline="middle" alignment-baseline="middle" font-style="normal" font-weight="500" text-decoration="none" fill="white" stroke="transparent" stroke-width="1" opacity="1" class="" visibility="visible" id="two-31">1000</text>
        <path transform="matrix(1 0 0 1 2315.789 652.5)" d="M 5 0 C 5 2.761 2.761 5 0 5 C -2.762 5 -5 2.761 -5 0 C -5.001 -2.762 -2.762 -5 -0.001 -5 C 2.761 -5.001 5 -2.762 5 0 Z " fill="white" stroke="white" stroke-width="1" stroke-opacity="1" fill-opacity="1" visibility="visible" stroke-linecap="butt" stroke-linejoin="miter" stroke-miterlimit="4" id="two-32"></path>
        <text transform="matrix(1 0 0 1 2315.789 672.5)" font-family="FiraCode" font-size="13" line-height="17" text-anchor="middle" dominant-baseline="middle" alignment-baseline="middle" font-style="normal" font-weight="500" text-decoration="none" fill="white" stroke="transparent" stroke-width="1" opacity="1" class="" visibility="visible" id="two-33">1500</text>
        <path transform="matrix(1 0 0 1 2477.631 652.5)" d="M 5 0 C 5 2.761 2.761 5 0 5 C -2.762 5 -5 2.761 -5 0 C -5.001 -2.762 -2.762 -5 -0.001 -5 C 2.761 -5.001 5 -2.762 5 0 Z " fill="white" stroke="white" stroke-width="1" stroke-opacity="1" fill-opacity="1" visibility="visible" stroke-linecap="butt" stroke-linejoin="miter" stroke-miterlimit="4" id="two-34"></path>
        <text transform="matrix(1 0 0 1 2477.631 672.5)" font-family="FiraCode" font-size="16" line-height="17" text-anchor="middle" dominant-baseline="middle" alignment-baseline="middle" font-style="normal" font-weight="500" text-decoration="none" fill="white" stroke="transparent" stroke-width="1" opacity="1" class="" visibility="visible" id="two-35">2000</text>
        <path transform="matrix(1 0 0 1 1830.263 0)" d="M -0.5 -1305 L 0.5 -1305 L 0.5 1305 L -0.5 1305 Z " fill="black" stroke="#000" stroke-width="1" stroke-opacity="1" fill-opacity="1" visibility="visible" stroke-linecap="butt" stroke-linejoin="miter" stroke-miterlimit="4" id="two-36"></path>
        <path transform="matrix(1 0 0 1 428.71 702.5)" d="M -378.711 -5 L 378.71 -5 L 378.71 5 L -378.711 5 Z " fill="#a79b0b" stroke="#a79b0b" stroke-width="0" stroke-opacity="1" fill-opacity="1" visibility="visible" stroke-linecap="butt" stroke-linejoin="miter" stroke-miterlimit="4" id="two-37"></path>
        <text transform="matrix(1 0 0 1 428.71 722.5)" font-family="FiraCode" font-size="16" line-height="17" text-anchor="middle" dominant-baseline="middle" alignment-baseline="middle" font-style="normal" font-weight="500" text-decoration="none" fill="#a79b0b" stroke="transparent" stroke-width="1" opacity="1" class="" visibility="visible" id="two-38">Predynastic Egypt</text>
        <path transform="matrix(1 0 0 1 1266.89 702.5)" d="M -455.91 -5 L 455.909 -5 L 455.909 5 L -455.91 5 Z " fill="#a79b0b" stroke="#a79b0b" stroke-width="0" stroke-opacity="1" fill-opacity="1" visibility="visible" stroke-linecap="butt" stroke-linejoin="miter" stroke-miterlimit="4" id="two-39"></path>
        <text transform="matrix(1 0 0 1 1266.89 722.5)" font-family="FiraCode" font-size="16" line-height="17" text-anchor="middle" dominant-baseline="middle" alignment-baseline="middle" font-style="normal" font-weight="500" text-decoration="none" fill="#a79b0b" stroke="transparent" stroke-width="1" opacity="1" class="" visibility="visible" id="two-40">Ancient Egypt</text>
        <path transform="matrix(1 0 0 1 1736.232 752.5)" d="M -83.997 -5 L 83.996 -5 L 83.996 5 L -83.997 5 Z " fill="#1898e0" stroke="#1898e0" stroke-width="0" stroke-opacity="1" fill-opacity="1" visibility="visible" stroke-linecap="butt" stroke-linejoin="miter" stroke-miterlimit="4" id="two-41"></path>
        <text transform="matrix(1 0 0 1 1736.232 772.5)" font-family="FiraCode" font-size="16" line-height="17" text-anchor="middle" dominant-baseline="middle" alignment-baseline="middle" font-style="normal" font-weight="500" text-decoration="none" fill="#1898e0" stroke="transparent" stroke-width="1" opacity="1" class="" visibility="visible" id="two-42"> Ancient Greece</text>
        <path transform="matrix(1 0 0 1 1902.93 752.5)" d="M -81.407 -5 L 81.406 -5 L 81.406 5 L -81.407 5 Z " fill="#1898e0" stroke="#1898e0" stroke-width="0" stroke-opacity="1" fill-opacity="1" visibility="visible" stroke-linecap="butt" stroke-linejoin="miter" stroke-miterlimit="4" id="two-43"></path>
        <text transform="matrix(1 0 0 1 1902.93 772.5)" font-family="FiraCode" font-size="16" line-height="17" text-anchor="middle" dominant-baseline="middle" alignment-baseline="middle" font-style="normal" font-weight="500" text-decoration="none" fill="#1898e0" stroke="transparent" stroke-width="1" opacity="1" class="" visibility="visible" id="two-44">Roman Empire</text>
        <path transform="matrix(1 0 0 1 2148.93 752.5)" d="M -164.27 -5 L 164.269 -5 L 164.269 5 L -164.27 5 Z " fill="#8a8f92" stroke="#8a8f92" stroke-width="0" stroke-opacity="1" fill-opacity="1" visibility="visible" stroke-linecap="butt" stroke-linejoin="miter" stroke-miterlimit="4" id="two-45"></path>
        <text transform="matrix(1 0 0 1 2148.93 772.5)" font-family="FiraCode" font-size="16" line-height="17" text-anchor="middle" dominant-baseline="middle" alignment-baseline="middle" font-style="normal" font-weight="500" text-decoration="none" fill="#8a8f92" stroke="transparent" stroke-width="1" opacity="1" class="" visibility="visible" id="two-46">Middle Ages</text>
        <path transform="matrix(1 0 0 1 2178.061 802.5)" d="M -143.231 -5 L 143.23 -5 L 143.23 5 L -143.231 5 Z " fill="#b15d42" stroke="#b15d42" stroke-width="0" stroke-opacity="1" fill-opacity="1" visibility="visible" stroke-linecap="butt" stroke-linejoin="miter" stroke-miterlimit="4" id="two-47"></path>
        <text transform="matrix(1 0 0 1 2178.061 822.5)" font-family="FiraCode" font-size="16" line-height="17" text-anchor="middle" dominant-baseline="middle" alignment-baseline="middle" font-style="normal" font-weight="500" text-decoration="none" fill="#b15d42" stroke="transparent" stroke-width="1" opacity="1" class="" visibility="visible" id="two-48">Caliphates</text>
        <path transform="matrix(1 0 0 1 1182.894 527.5)" d="M -8.661 5 L -0.001 -10 L 8.66 5 L -8.661 4.999 Z " fill="#a79b0b" stroke="#a79b0b" stroke-width="1" stroke-opacity="1" fill-opacity="1" visibility="visible" stroke-linecap="butt" stroke-linejoin="miter" stroke-miterlimit="4" id="two-49"></path>
        <path transform="matrix(-1 0 -0.001 -1 1182.894 577.5)" d="M -8.661 5 L -0.001 -10 L 8.66 5 L -8.661 4.999 Z " fill="#a79b0b" stroke="#a79b0b" stroke-width="1" stroke-opacity="1" fill-opacity="1" visibility="visible" stroke-linecap="butt" stroke-linejoin="miter" stroke-miterlimit="4" id="two-50"></path>
        <path transform="matrix(1 0 0 1 1182.894 552.5)" d="M -89 -20 C -89 -20 89 -20 89 -20 C 92 -20 92 -17 92 -17 C 92 -17 92 17 92 17 C 92 20 89 20 89 20 C 89 20 -89 20 -89 20 C -92 20 -92 17 -92 17 C -92 17 -92 -17 -92 -17 C -92 -20 -89 -20 -89 -20 C -89 -20 -89 -20 -89 -20 C -89 -20 -89 -20 -89 -20 Z " fill="#a79b0b" stroke="#a79b0b" stroke-width="1" stroke-opacity="1" fill-opacity="1" visibility="visible" stroke-linecap="butt" stroke-linejoin="miter" stroke-miterlimit="4" id="two-51"></path>
        <text transform="matrix(1 0 0 1 1182.894 552.5)" font-family="FiraCode" font-size="16" line-height="17" text-anchor="middle" dominant-baseline="middle" alignment-baseline="middle" font-style="normal" font-weight="500" text-decoration="none" fill="white" stroke="transparent" stroke-width="1" opacity="1" class="" visibility="visible" id="two-52">First Algorithm</text>
        <path transform="matrix(-1 0 -0.001 -1 1231.447 477.5)" d="M -8.661 5 L -0.001 -10 L 8.66 5 L -8.661 4.999 Z " fill="#a79b0b" stroke="#a79b0b" stroke-width="1" stroke-opacity="1" fill-opacity="1" visibility="visible" stroke-linecap="butt" stroke-linejoin="miter" stroke-miterlimit="4" id="two-54"></path>
        <path transform="matrix(1 0 0 1 1231.447 452.5)" d="M -146.6 -20 C -146.6 -20 146.6 -20 146.6 -20 C 149.6 -20 149.6 -17 149.6 -17 C 149.6 -17 149.6 17 149.6 17 C 149.6 20 146.6 20 146.6 20 C 146.6 20 -146.6 20 -146.6 20 C -149.6 20 -149.6 17 -149.6 17 C -149.6 17 -149.6 -17 -149.6 -17 C -149.6 -20 -146.6 -20 -146.6 -20 C -146.6 -20 -146.6 -20 -146.6 -20 C -146.6 -20 -146.6 -20 -146.6 -20 Z " fill="#a79b0b" stroke="#a79b0b" stroke-width="1" stroke-opacity="1" fill-opacity="1" visibility="visible" stroke-linecap="butt" stroke-linejoin="miter" stroke-miterlimit="4" id="two-55"></path>
        <text transform="matrix(1 0 0 1 1231.447 452.5)" font-family="FiraCode" font-size="16" line-height="17" text-anchor="middle" dominant-baseline="middle" alignment-baseline="middle" font-style="normal" font-weight="500" text-decoration="none" fill="white" stroke="transparent" stroke-width="1" opacity="1" class="" visibility="visible" id="two-56">Moscow Mathematical Papyrus</text>
        <path transform="matrix(1 0 0 1 1231.447 642.5)" d="M 3 0 C 3 1.656 1.656 3 0 3 C -1.657 3 -3 1.656 -3 0 C -3.001 -1.657 -1.657 -3 -0.001 -3 C 1.656 -3.001 3 -1.657 3 0 Z " fill="#a79b0b" stroke="#a79b0b" stroke-width="1" stroke-opacity="1" fill-opacity="1" visibility="visible" stroke-linecap="butt" stroke-linejoin="miter" stroke-miterlimit="4" id="two-67"></path>
        <path transform="matrix(-1 0 -0.001 -1 1296.184 377.5)" d="M -8.661 5 L -0.001 -10 L 8.66 5 L -8.661 4.999 Z " fill="#a79b0b" stroke="#a79b0b" stroke-width="1" stroke-opacity="1" fill-opacity="1" visibility="visible" stroke-linecap="butt" stroke-linejoin="miter" stroke-miterlimit="4" id="two-68"></path>
        <path transform="matrix(1 0 0 1 1296.184 352.5)" d="M -141.8 -20 C -141.8 -20 141.8 -20 141.8 -20 C 144.8 -20 144.8 -17 144.8 -17 C 144.8 -17 144.8 17 144.8 17 C 144.8 20 141.8 20 141.8 20 C 141.8 20 -141.8 20 -141.8 20 C -144.8 20 -144.8 17 -144.8 17 C -144.8 17 -144.8 -17 -144.8 -17 C -144.8 -20 -141.8 -20 -141.8 -20 C -141.8 -20 -141.8 -20 -141.8 -20 C -141.8 -20 -141.8 -20 -141.8 -20 Z " fill="#a79b0b" stroke="#a79b0b" stroke-width="1" stroke-opacity="1" fill-opacity="1" visibility="visible" stroke-linecap="butt" stroke-linejoin="miter" stroke-miterlimit="4" id="two-69"></path>
        <text transform="matrix(1 0 0 1 1296.184 352.5)" font-family="FiraCode" font-size="16" line-height="17" text-anchor="middle" dominant-baseline="middle" alignment-baseline="middle" font-style="normal" font-weight="500" text-decoration="none" fill="white" stroke="transparent" stroke-width="1" opacity="1" class="" visibility="visible" id="two-70">Rhind Mathematical Papyrus</text>
        <path transform="matrix(1 0 0 1 1296.184 642.5)" d="M 3 0 C 3 1.656 1.656 3 0 3 C -1.657 3 -3 1.656 -3 0 C -3.001 -1.657 -1.657 -3 -0.001 -3 C 1.656 -3.001 3 -1.657 3 0 Z " fill="#a79b0b" stroke="#a79b0b" stroke-width="1" stroke-opacity="1" fill-opacity="1" visibility="visible" stroke-linecap="butt" stroke-linejoin="miter" stroke-miterlimit="4" id="two-88"></path>
        <path transform="matrix(-1 0 -0.001 -1 956.315 577.5)" d="M -8.661 5 L -0.001 -10 L 8.66 5 L -8.661 4.999 Z " fill="#a79b0b" stroke="#a79b0b" stroke-width="1" stroke-opacity="1" fill-opacity="1" visibility="visible" stroke-linecap="butt" stroke-linejoin="miter" stroke-miterlimit="4" id="two-89"></path>
        <path transform="matrix(1 0 0 1 956.315 552.5)" d="M -55.4 -20 C -55.4 -20 55.4 -20 55.4 -20 C 58.4 -20 58.4 -17 58.4 -17 C 58.4 -17 58.4 17 58.4 17 C 58.4 20 55.4 20 55.4 20 C 55.4 20 -55.4 20 -55.4 20 C -58.4 20 -58.4 17 -58.4 17 C -58.4 17 -58.4 -17 -58.4 -17 C -58.4 -20 -55.4 -20 -55.4 -20 C -55.4 -20 -55.4 -20 -55.4 -20 C -55.4 -20 -55.4 -20 -55.4 -20 Z " fill="#a79b0b" stroke="#a79b0b" stroke-width="1" stroke-opacity="1" fill-opacity="1" visibility="visible" stroke-linecap="butt" stroke-linejoin="miter" stroke-miterlimit="4" id="two-90"></path>
        <text transform="matrix(1 0 0 1 956.315 552.5)" font-family="FiraCode" font-size="16" line-height="17" text-anchor="middle" dominant-baseline="middle" alignment-baseline="middle" font-style="normal" font-weight="500" text-decoration="none" fill="white" stroke="transparent" stroke-width="1" opacity="1" class="" visibility="visible" id="two-91">Pyramids</text>
        <path transform="matrix(1 0 0 1 956.315 642.5)" d="M 3 0 C 3 1.656 1.656 3 0 3 C -1.657 3 -3 1.656 -3 0 C -3.001 -1.657 -1.657 -3 -0.001 -3 C 1.656 -3.001 3 -1.657 3 0 Z " fill="#a79b0b" stroke="#a79b0b" stroke-width="1" stroke-opacity="1" fill-opacity="1" visibility="visible" stroke-linecap="butt" stroke-linejoin="miter" stroke-miterlimit="4" id="two-95"></path>
        <path transform="matrix(1 0 0 1 2480.22 527.5)" d="M -8.661 5 L -0.001 -10 L 8.66 5 L -8.661 4.999 Z " fill="#0ac18e" stroke="#0ac18e" stroke-width="1" stroke-opacity="1" fill-opacity="1" visibility="visible" stroke-linecap="butt" stroke-linejoin="miter" stroke-miterlimit="4" id="two-96"></path>
        <path transform="matrix(-1 0 -0.001 -1 2480.22 577.5)" d="M -8.661 5 L -0.001 -10 L 8.66 5 L -8.661 4.999 Z " fill="#0ac18e" stroke="#0ac18e" stroke-width="1" stroke-opacity="1" fill-opacity="1" visibility="visible" stroke-linecap="butt" stroke-linejoin="miter" stroke-miterlimit="4" id="two-97"></path>
        <path transform="matrix(1 0 0 1 2480.22 552.5)" d="M -50.6 -20 C -50.6 -20 50.6 -20 50.6 -20 C 53.6 -20 53.6 -17 53.6 -17 C 53.6 -17 53.6 17 53.6 17 C 53.6 20 50.6 20 50.6 20 C 50.6 20 -50.6 20 -50.6 20 C -53.6 20 -53.6 17 -53.6 17 C -53.6 17 -53.6 -17 -53.6 -17 C -53.6 -20 -50.6 -20 -50.6 -20 C -50.6 -20 -50.6 -20 -50.6 -20 C -50.6 -20 -50.6 -20 -50.6 -20 Z " fill="#0ac18e" stroke="#0ac18e" stroke-width="1" stroke-opacity="1" fill-opacity="1" visibility="visible" stroke-linecap="butt" stroke-linejoin="miter" stroke-miterlimit="4" id="two-98"></path>
        <text transform="matrix(1 0 0 1 2480.22 552.5)" font-family="FiraCode" font-size="16" line-height="17" text-anchor="middle" dominant-baseline="middle" alignment-baseline="middle" font-style="normal" font-weight="500" text-decoration="none" fill="white" stroke="transparent" stroke-width="1" opacity="1" class="" visibility="visible" id="two-99">Bitcoin</text>
        <path transform="matrix(1 0 0 1 1671.657 927.5)" d="M -8.661 5 L -0.001 -10 L 8.66 5 L -8.661 4.999 Z " fill="#2850ce" stroke="#2850ce" stroke-width="1" stroke-opacity="1" fill-opacity="1" visibility="visible" stroke-linecap="butt" stroke-linejoin="miter" stroke-miterlimit="4" id="two-101"></path>
        <path transform="matrix(-1 0 -0.001 -1 1671.657 977.5)" d="M -8.661 5 L -0.001 -10 L 8.66 5 L -8.661 4.999 Z " fill="#2850ce" stroke="#2850ce" stroke-width="1" stroke-opacity="1" fill-opacity="1" visibility="visible" stroke-linecap="butt" stroke-linejoin="miter" stroke-miterlimit="4" id="two-102"></path>
        <path transform="matrix(1 0 0 1 1671.657 952.5)" d="M -55.4 -20 C -55.4 -20 55.4 -20 55.4 -20 C 58.4 -20 58.4 -17 58.4 -17 C 58.4 -17 58.4 17 58.4 17 C 58.4 20 55.4 20 55.4 20 C 55.4 20 -55.4 20 -55.4 20 C -58.4 20 -58.4 17 -58.4 17 C -58.4 17 -58.4 -17 -58.4 -17 C -58.4 -20 -55.4 -20 -55.4 -20 C -55.4 -20 -55.4 -20 -55.4 -20 C -55.4 -20 -55.4 -20 -55.4 -20 Z " fill="#2850ce" stroke="#2850ce" stroke-width="1" stroke-opacity="1" fill-opacity="1" visibility="visible" stroke-linecap="butt" stroke-linejoin="miter" stroke-miterlimit="4" id="two-103"></path>
        <text transform="matrix(1 0 0 1 1671.657 952.5)" font-family="FiraCode" font-size="16" line-height="17" text-anchor="middle" dominant-baseline="middle" alignment-baseline="middle" font-style="normal" font-weight="500" text-decoration="none" fill="white" stroke="transparent" stroke-width="1" opacity="1" class="" visibility="visible" id="two-104">Marathon</text>
    </g>
</svg>