<svg version="1.1" width="2560" height="1241" style="overflow: hidden; display: block; inset: 0px; position: fixed;"><defs></defs><g id="two-0" transform="matrix(1 0 0 1 0 0)" opacity="1"><g id="two-1" transform="matrix(1 0 0 1 0 0)" opacity="1"><path transform="matrix(1 0 0 1 1280 652.5)" d="M -1280 -652.5 L 1280 -652.5 L 1280 652.5 L -1280 652.5 Z " fill="#2C3C4E" stroke="#2C3C4E" stroke-width="0" stroke-opacity="1" fill-opacity="1" visibility="visible" stroke-linecap="butt" stroke-linejoin="miter" stroke-miterlimit="4" id="two-3"></path><path transform="matrix(1 0 0 1 100 652.5)" d="M -0.5 -652.5 L 0.5 -652.5 L 0.5 652.5 L -0.5 652.5 Z " fill="#354353" stroke="#354353" stroke-width="0" stroke-opacity="1" fill-opacity="1" visibility="visible" stroke-linecap="butt" stroke-linejoin="miter" stroke-miterlimit="4" id="two-7"></path><path transform="matrix(1 0 0 1 215.121 652.5)" d="M -0.5 -652.5 L 0.5 -652.5 L 0.5 652.5 L -0.5 652.5 Z " fill="#354353" stroke="#354353" stroke-width="0" stroke-opacity="1" fill-opacity="1" visibility="visible" stroke-linecap="butt" stroke-linejoin="miter" stroke-miterlimit="4" id="two-10"></path><path transform="matrix(1 0 0 1 330.243 652.5)" d="M -0.5 -652.5 L 0.5 -652.5 L 0.5 652.5 L -0.5 652.5 Z " fill="#354353" stroke="#354353" stroke-width="0" stroke-opacity="1" fill-opacity="1" visibility="visible" stroke-linecap="butt" stroke-linejoin="miter" stroke-miterlimit="4" id="two-13"></path><path transform="matrix(1 0 0 1 445.365 652.5)" d="M -0.5 -652.5 L 0.5 -652.5 L 0.5 652.5 L -0.5 652.5 Z " fill="#354353" stroke="#354353" stroke-width="0" stroke-opacity="1" fill-opacity="1" visibility="visible" stroke-linecap="butt" stroke-linejoin="miter" stroke-miterlimit="4" id="two-16"></path><path transform="matrix(1 0 0 1 560.487 652.5)" d="M -0.5 -652.5 L 0.5 -652.5 L 0.5 652.5 L -0.5 652.5 Z " fill="#354353" stroke="#354353" stroke-width="0" stroke-opacity="1" fill-opacity="1" visibility="visible" stroke-linecap="butt" stroke-linejoin="miter" stroke-miterlimit="4" id="two-19"></path><path transform="matrix(1 0 0 1 675.609 652.5)" d="M -0.5 -652.5 L 0.5 -652.5 L 0.5 652.5 L -0.5 652.5 Z " fill="#354353" stroke="#354353" stroke-width="0" stroke-opacity="1" fill-opacity="1" visibility="visible" stroke-linecap="butt" stroke-linejoin="miter" stroke-miterlimit="4" id="two-22"></path><path transform="matrix(1 0 0 1 790.731 652.5)" d="M -0.5 -652.5 L 0.5 -652.5 L 0.5 652.5 L -0.5 652.5 Z " fill="#354353" stroke="#354353" stroke-width="0" stroke-opacity="1" fill-opacity="1" visibility="visible" stroke-linecap="butt" stroke-linejoin="miter" stroke-miterlimit="4" id="two-25"></path><path transform="matrix(1 0 0 1 905.853 652.5)" d="M -0.5 -652.5 L 0.5 -652.5 L 0.5 652.5 L -0.5 652.5 Z " fill="#354353" stroke="#354353" stroke-width="0" stroke-opacity="1" fill-opacity="1" visibility="visible" stroke-linecap="butt" stroke-linejoin="miter" stroke-miterlimit="4" id="two-28"></path><path transform="matrix(1 0 0 1 1020.975 652.5)" d="M -0.5 -652.5 L 0.5 -652.5 L 0.5 652.5 L -0.5 652.5 Z " fill="#354353" stroke="#354353" stroke-width="0" stroke-opacity="1" fill-opacity="1" visibility="visible" stroke-linecap="butt" stroke-linejoin="miter" stroke-miterlimit="4" id="two-31"></path><path transform="matrix(1 0 0 1 1136.097 652.5)" d="M -0.5 -652.5 L 0.5 -652.5 L 0.5 652.5 L -0.5 652.5 Z " fill="#354353" stroke="#354353" stroke-width="0" stroke-opacity="1" fill-opacity="1" visibility="visible" stroke-linecap="butt" stroke-linejoin="miter" stroke-miterlimit="4" id="two-34"></path><path transform="matrix(1 0 0 1 1251.219 652.5)" d="M -0.5 -652.5 L 0.5 -652.5 L 0.5 652.5 L -0.5 652.5 Z " fill="#354353" stroke="#354353" stroke-width="0" stroke-opacity="1" fill-opacity="1" visibility="visible" stroke-linecap="butt" stroke-linejoin="miter" stroke-miterlimit="4" id="two-37"></path><path transform="matrix(1 0 0 1 1366.341 652.5)" d="M -0.5 -652.5 L 0.5 -652.5 L 0.5 652.5 L -0.5 652.5 Z " fill="#354353" stroke="#354353" stroke-width="0" stroke-opacity="1" fill-opacity="1" visibility="visible" stroke-linecap="butt" stroke-linejoin="miter" stroke-miterlimit="4" id="two-40"></path><path transform="matrix(1 0 0 1 1481.463 652.5)" d="M -0.5 -652.5 L 0.5 -652.5 L 0.5 652.5 L -0.5 652.5 Z " fill="#354353" stroke="#354353" stroke-width="0" stroke-opacity="1" fill-opacity="1" visibility="visible" stroke-linecap="butt" stroke-linejoin="miter" stroke-miterlimit="4" id="two-43"></path><path transform="matrix(1 0 0 1 1596.585 652.5)" d="M -0.5 -652.5 L 0.5 -652.5 L 0.5 652.5 L -0.5 652.5 Z " fill="#354353" stroke="#354353" stroke-width="0" stroke-opacity="1" fill-opacity="1" visibility="visible" stroke-linecap="butt" stroke-linejoin="miter" stroke-miterlimit="4" id="two-46"></path><path transform="matrix(1 0 0 1 1711.707 652.5)" d="M -0.5 -652.5 L 0.5 -652.5 L 0.5 652.5 L -0.5 652.5 Z " fill="#354353" stroke="#354353" stroke-width="0" stroke-opacity="1" fill-opacity="1" visibility="visible" stroke-linecap="butt" stroke-linejoin="miter" stroke-miterlimit="4" id="two-49"></path><path transform="matrix(1 0 0 1 1826.829 652.5)" d="M -0.5 -652.5 L 0.5 -652.5 L 0.5 652.5 L -0.5 652.5 Z " fill="#354353" stroke="#354353" stroke-width="0" stroke-opacity="1" fill-opacity="1" visibility="visible" stroke-linecap="butt" stroke-linejoin="miter" stroke-miterlimit="4" id="two-52"></path><path transform="matrix(1 0 0 1 1941.951 652.5)" d="M -0.5 -652.5 L 0.5 -652.5 L 0.5 652.5 L -0.5 652.5 Z " fill="#354353" stroke="#354353" stroke-width="0" stroke-opacity="1" fill-opacity="1" visibility="visible" stroke-linecap="butt" stroke-linejoin="miter" stroke-miterlimit="4" id="two-55"></path><path transform="matrix(1 0 0 1 2057.073 652.5)" d="M -0.5 -652.5 L 0.5 -652.5 L 0.5 652.5 L -0.5 652.5 Z " fill="#354353" stroke="#354353" stroke-width="0" stroke-opacity="1" fill-opacity="1" visibility="visible" stroke-linecap="butt" stroke-linejoin="miter" stroke-miterlimit="4" id="two-58"></path><path transform="matrix(1 0 0 1 2172.195 652.5)" d="M -0.5 -652.5 L 0.5 -652.5 L 0.5 652.5 L -0.5 652.5 Z " fill="#354353" stroke="#354353" stroke-width="0" stroke-opacity="1" fill-opacity="1" visibility="visible" stroke-linecap="butt" stroke-linejoin="miter" stroke-miterlimit="4" id="two-61"></path><path transform="matrix(1 0 0 1 2287.317 652.5)" d="M -0.5 -652.5 L 0.5 -652.5 L 0.5 652.5 L -0.5 652.5 Z " fill="#354353" stroke="#354353" stroke-width="0" stroke-opacity="1" fill-opacity="1" visibility="visible" stroke-linecap="butt" stroke-linejoin="miter" stroke-miterlimit="4" id="two-64"></path><path transform="matrix(1 0 0 1 2402.438 652.5)" d="M -0.5 -652.5 L 0.5 -652.5 L 0.5 652.5 L -0.5 652.5 Z " fill="#354353" stroke="#354353" stroke-width="0" stroke-opacity="1" fill-opacity="1" visibility="visible" stroke-linecap="butt" stroke-linejoin="miter" stroke-miterlimit="4" id="two-67"></path><path transform="matrix(1 0 0 1 100 652.5)" d="M -1.5 -652.5 L 1.5 -652.5 L 1.5 652.5 L -1.5 652.5 Z " fill="#a79b0b" stroke="#a79b0b" stroke-width="0" stroke-opacity="1" fill-opacity="1" visibility="visible" stroke-linecap="butt" stroke-linejoin="miter" stroke-miterlimit="4" id="two-85"></path><path transform="matrix(1 0 0 1 186.341 497.5)" d="M -1.5 -5 L 1.5 -5 L 1.5 5 L -1.5 5 Z " fill="#a79b0b" stroke="#a79b0b" stroke-width="0" stroke-opacity="0.5" fill-opacity="0.5" visibility="visible" stroke-linecap="butt" stroke-linejoin="miter" stroke-miterlimit="4" id="two-89"></path><path transform="matrix(1 0 0 1 186.341 512.5)" d="M -1.5 -5 L 1.5 -5 L 1.5 5 L -1.5 5 Z " fill="#a79b0b" stroke="#a79b0b" stroke-width="0" stroke-opacity="0.5" fill-opacity="0.5" visibility="visible" stroke-linecap="butt" stroke-linejoin="miter" stroke-miterlimit="4" id="two-90"></path><path transform="matrix(1 0 0 1 186.341 527.5)" d="M -1.5 -5 L 1.5 -5 L 1.5 5 L -1.5 5 Z " fill="#a79b0b" stroke="#a79b0b" stroke-width="0" stroke-opacity="0.5" fill-opacity="0.5" visibility="visible" stroke-linecap="butt" stroke-linejoin="miter" stroke-miterlimit="4" id="two-91"></path><path transform="matrix(1 0 0 1 186.341 542.5)" d="M -1.5 -5 L 1.5 -5 L 1.5 5 L -1.5 5 Z " fill="#a79b0b" stroke="#a79b0b" stroke-width="0" stroke-opacity="0.5" fill-opacity="0.5" visibility="visible" stroke-linecap="butt" stroke-linejoin="miter" stroke-miterlimit="4" id="two-92"></path><path transform="matrix(1 0 0 1 186.341 557.5)" d="M -1.5 -5 L 1.5 -5 L 1.5 5 L -1.5 5 Z " fill="#a79b0b" stroke="#a79b0b" stroke-width="0" stroke-opacity="0.5" fill-opacity="0.5" visibility="visible" stroke-linecap="butt" stroke-linejoin="miter" stroke-miterlimit="4" id="two-93"></path><path transform="matrix(1 0 0 1 186.341 572.5)" d="M -1.5 -5 L 1.5 -5 L 1.5 5 L -1.5 5 Z " fill="#a79b0b" stroke="#a79b0b" stroke-width="0" stroke-opacity="0.5" fill-opacity="0.5" visibility="visible" stroke-linecap="butt" stroke-linejoin="miter" stroke-miterlimit="4" id="two-94"></path><path transform="matrix(1 0 0 1 186.341 587.5)" d="M -1.5 -5 L 1.5 -5 L 1.5 5 L -1.5 5 Z " fill="#a79b0b" stroke="#a79b0b" stroke-width="0" stroke-opacity="0.5" fill-opacity="0.5" visibility="visible" stroke-linecap="butt" stroke-linejoin="miter" stroke-miterlimit="4" id="two-95"></path><path transform="matrix(1 0 0 1 186.341 602.5)" d="M -1.5 -5 L 1.5 -5 L 1.5 5 L -1.5 5 Z " fill="#a79b0b" stroke="#a79b0b" stroke-width="0" stroke-opacity="0.5" fill-opacity="0.5" visibility="visible" stroke-linecap="butt" stroke-linejoin="miter" stroke-miterlimit="4" id="two-96"></path><path transform="matrix(1 0 0 1 186.341 617.5)" d="M -1.5 -5 L 1.5 -5 L 1.5 5 L -1.5 5 Z " fill="#a79b0b" stroke="#a79b0b" stroke-width="0" stroke-opacity="0.5" fill-opacity="0.5" visibility="visible" stroke-linecap="butt" stroke-linejoin="miter" stroke-miterlimit="4" id="two-97"></path><path transform="matrix(1 0 0 1 186.341 632.5)" d="M -1.5 -5 L 1.5 -5 L 1.5 5 L -1.5 5 Z " fill="#a79b0b" stroke="#a79b0b" stroke-width="0" stroke-opacity="0.5" fill-opacity="0.5" visibility="visible" stroke-linecap="butt" stroke-linejoin="miter" stroke-miterlimit="4" id="two-98"></path><path transform="matrix(1 0 0 1 359.024 397.5)" d="M -1.5 -5 L 1.5 -5 L 1.5 5 L -1.5 5 Z " fill="#a79b0b" stroke="#a79b0b" stroke-width="0" stroke-opacity="0.5" fill-opacity="0.5" visibility="visible" stroke-linecap="butt" stroke-linejoin="miter" stroke-miterlimit="4" id="two-103"></path><path transform="matrix(1 0 0 1 359.024 412.5)" d="M -1.5 -5 L 1.5 -5 L 1.5 5 L -1.5 5 Z " fill="#a79b0b" stroke="#a79b0b" stroke-width="0" stroke-opacity="0.5" fill-opacity="0.5" visibility="visible" stroke-linecap="butt" stroke-linejoin="miter" stroke-miterlimit="4" id="two-104"></path><path transform="matrix(1 0 0 1 359.024 427.5)" d="M -1.5 -5 L 1.5 -5 L 1.5 5 L -1.5 5 Z " fill="#a79b0b" stroke="#a79b0b" stroke-width="0" stroke-opacity="0.5" fill-opacity="0.5" visibility="visible" stroke-linecap="butt" stroke-linejoin="miter" stroke-miterlimit="4" id="two-105"></path><path transform="matrix(1 0 0 1 359.024 442.5)" d="M -1.5 -5 L 1.5 -5 L 1.5 5 L -1.5 5 Z " fill="#a79b0b" stroke="#a79b0b" stroke-width="0" stroke-opacity="0.5" fill-opacity="0.5" visibility="visible" stroke-linecap="butt" stroke-linejoin="miter" stroke-miterlimit="4" id="two-106"></path><path transform="matrix(1 0 0 1 359.024 457.5)" d="M -1.5 -5 L 1.5 -5 L 1.5 5 L -1.5 5 Z " fill="#a79b0b" stroke="#a79b0b" stroke-width="0" stroke-opacity="0.5" fill-opacity="0.5" visibility="visible" stroke-linecap="butt" stroke-linejoin="miter" stroke-miterlimit="4" id="two-107"></path><path transform="matrix(1 0 0 1 359.024 472.5)" d="M -1.5 -5 L 1.5 -5 L 1.5 5 L -1.5 5 Z " fill="#a79b0b" stroke="#a79b0b" stroke-width="0" stroke-opacity="0.5" fill-opacity="0.5" visibility="visible" stroke-linecap="butt" stroke-linejoin="miter" stroke-miterlimit="4" id="two-108"></path><path transform="matrix(1 0 0 1 359.024 487.5)" d="M -1.5 -5 L 1.5 -5 L 1.5 5 L -1.5 5 Z " fill="#a79b0b" stroke="#a79b0b" stroke-width="0" stroke-opacity="0.5" fill-opacity="0.5" visibility="visible" stroke-linecap="butt" stroke-linejoin="miter" stroke-miterlimit="4" id="two-109"></path><path transform="matrix(1 0 0 1 359.024 502.5)" d="M -1.5 -5 L 1.5 -5 L 1.5 5 L -1.5 5 Z " fill="#a79b0b" stroke="#a79b0b" stroke-width="0" stroke-opacity="0.5" fill-opacity="0.5" visibility="visible" stroke-linecap="butt" stroke-linejoin="miter" stroke-miterlimit="4" id="two-110"></path><path transform="matrix(1 0 0 1 359.024 517.5)" d="M -1.5 -5 L 1.5 -5 L 1.5 5 L -1.5 5 Z " fill="#a79b0b" stroke="#a79b0b" stroke-width="0" stroke-opacity="0.5" fill-opacity="0.5" visibility="visible" stroke-linecap="butt" stroke-linejoin="miter" stroke-miterlimit="4" id="two-111"></path><path transform="matrix(1 0 0 1 359.024 532.5)" d="M -1.5 -5 L 1.5 -5 L 1.5 5 L -1.5 5 Z " fill="#a79b0b" stroke="#a79b0b" stroke-width="0" stroke-opacity="0.5" fill-opacity="0.5" visibility="visible" stroke-linecap="butt" stroke-linejoin="miter" stroke-miterlimit="4" id="two-112"></path><path transform="matrix(1 0 0 1 359.024 547.5)" d="M -1.5 -5 L 1.5 -5 L 1.5 5 L -1.5 5 Z " fill="#a79b0b" stroke="#a79b0b" stroke-width="0" stroke-opacity="0.5" fill-opacity="0.5" visibility="visible" stroke-linecap="butt" stroke-linejoin="miter" stroke-miterlimit="4" id="two-113"></path><path transform="matrix(1 0 0 1 359.024 562.5)" d="M -1.5 -5 L 1.5 -5 L 1.5 5 L -1.5 5 Z " fill="#a79b0b" stroke="#a79b0b" stroke-width="0" stroke-opacity="0.5" fill-opacity="0.5" visibility="visible" stroke-linecap="butt" stroke-linejoin="miter" stroke-miterlimit="4" id="two-114"></path><path transform="matrix(1 0 0 1 359.024 577.5)" d="M -1.5 -5 L 1.5 -5 L 1.5 5 L -1.5 5 Z " fill="#a79b0b" stroke="#a79b0b" stroke-width="0" stroke-opacity="0.5" fill-opacity="0.5" visibility="visible" stroke-linecap="butt" stroke-linejoin="miter" stroke-miterlimit="4" id="two-115"></path><path transform="matrix(1 0 0 1 359.024 592.5)" d="M -1.5 -5 L 1.5 -5 L 1.5 5 L -1.5 5 Z " fill="#a79b0b" stroke="#a79b0b" stroke-width="0" stroke-opacity="0.5" fill-opacity="0.5" visibility="visible" stroke-linecap="butt" stroke-linejoin="miter" stroke-miterlimit="4" id="two-116"></path><path transform="matrix(1 0 0 1 359.024 607.5)" d="M -1.5 -5 L 1.5 -5 L 1.5 5 L -1.5 5 Z " fill="#a79b0b" stroke="#a79b0b" stroke-width="0" stroke-opacity="0.5" fill-opacity="0.5" visibility="visible" stroke-linecap="butt" stroke-linejoin="miter" stroke-miterlimit="4" id="two-117"></path><path transform="matrix(1 0 0 1 359.024 622.5)" d="M -1.5 -5 L 1.5 -5 L 1.5 5 L -1.5 5 Z " fill="#a79b0b" stroke="#a79b0b" stroke-width="0" stroke-opacity="0.5" fill-opacity="0.5" visibility="visible" stroke-linecap="butt" stroke-linejoin="miter" stroke-miterlimit="4" id="two-118"></path><path transform="matrix(1 0 0 1 359.024 637.5)" d="M -1.5 -5 L 1.5 -5 L 1.5 5 L -1.5 5 Z " fill="#a79b0b" stroke="#a79b0b" stroke-width="0" stroke-opacity="0.5" fill-opacity="0.5" visibility="visible" stroke-linecap="butt" stroke-linejoin="miter" stroke-miterlimit="4" id="two-119"></path><path transform="matrix(1 0 0 1 359.024 604.5)" d="M -1.5 -5 L 1.5 -5 L 1.5 5 L -1.5 5 Z " fill="#a79b0b" stroke="#a79b0b" stroke-width="0" stroke-opacity="0.5" fill-opacity="0.5" visibility="visible" stroke-linecap="butt" stroke-linejoin="miter" stroke-miterlimit="4" id="two-123"></path><path transform="matrix(1 0 0 1 359.024 619.5)" d="M -1.5 -5 L 1.5 -5 L 1.5 5 L -1.5 5 Z " fill="#a79b0b" stroke="#a79b0b" stroke-width="0" stroke-opacity="0.5" fill-opacity="0.5" visibility="visible" stroke-linecap="butt" stroke-linejoin="miter" stroke-miterlimit="4" id="two-124"></path><path transform="matrix(1 0 0 1 359.024 634.5)" d="M -1.5 -5 L 1.5 -5 L 1.5 5 L -1.5 5 Z " fill="#a79b0b" stroke="#a79b0b" stroke-width="0" stroke-opacity="0.5" fill-opacity="0.5" visibility="visible" stroke-linecap="butt" stroke-linejoin="miter" stroke-miterlimit="4" id="two-125"></path><path transform="matrix(1 0 0 1 2407.043 652.5)" d="M -1.5 -652.5 L 1.5 -652.5 L 1.5 652.5 L -1.5 652.5 Z " fill="#0ac18e" stroke="#0ac18e" stroke-width="0" stroke-opacity="1" fill-opacity="1" visibility="visible" stroke-linecap="butt" stroke-linejoin="miter" stroke-miterlimit="4" id="two-131"></path><path transform="matrix(1 0 0 1 2414.526 652.5)" d="M -1.5 -652.5 L 1.5 -652.5 L 1.5 652.5 L -1.5 652.5 Z " fill="#8a8f92" stroke="#8a8f92" stroke-width="0" stroke-opacity="1" fill-opacity="1" visibility="visible" stroke-linecap="butt" stroke-linejoin="miter" stroke-miterlimit="4" id="two-136"></path><path transform="matrix(1 0 0 1 969.17 652.5)" d="M -1.5 -652.5 L 1.5 -652.5 L 1.5 652.5 L -1.5 652.5 Z " fill="#1898e0" stroke="#1898e0" stroke-width="0" stroke-opacity="1" fill-opacity="1" visibility="visible" stroke-linecap="butt" stroke-linejoin="miter" stroke-miterlimit="4" id="two-141"></path></g><g id="two-2" transform="matrix(1 0 0 1 0 0)" opacity="1"></g><path transform="matrix(1 0 0 1 1280 652.5)" d="M -1280 -2.5 L 1280 -2.5 L 1280 2.5 L -1280 2.5 Z " fill="white" stroke="#000" stroke-width="0" stroke-opacity="1" fill-opacity="1" visibility="visible" stroke-linecap="butt" stroke-linejoin="miter" stroke-miterlimit="4" id="two-4"></path><path transform="matrix(1 0 0 1 100 652.5)" d="M 5 0 C 5 2.761 2.761 5 0 5 C -2.762 5 -5 2.761 -5 0 C -5.001 -2.762 -2.762 -5 -0.001 -5 C 2.761 -5.001 5 -2.762 5 0 Z " fill="white" stroke="white" stroke-width="1" stroke-opacity="1" fill-opacity="1" visibility="visible" stroke-linecap="butt" stroke-linejoin="miter" stroke-miterlimit="4" id="two-5"></path><text transform="matrix(1 0 0 1 100 672.5)" font-family="Open Sans" font-size="14" line-height="17" text-anchor="middle" dominant-baseline="middle" alignment-baseline="middle" font-style="normal" font-weight="600" text-decoration="none" fill="white" stroke="transparent" stroke-width="1" opacity="1" class="" visibility="visible" id="two-6">-2000</text><path transform="matrix(1 0 0 1 215.121 652.5)" d="M 5 0 C 5 2.761 2.761 5 0 5 C -2.762 5 -5 2.761 -5 0 C -5.001 -2.762 -2.762 -5 -0.001 -5 C 2.761 -5.001 5 -2.762 5 0 Z " fill="white" stroke="white" stroke-width="1" stroke-opacity="1" fill-opacity="1" visibility="visible" stroke-linecap="butt" stroke-linejoin="miter" stroke-miterlimit="4" id="two-8"></path><text transform="matrix(1 0 0 1 215.121 672.5)" font-family="Open Sans" font-size="12" line-height="17" text-anchor="middle" dominant-baseline="middle" alignment-baseline="middle" font-style="normal" font-weight="500" text-decoration="none" fill="white" stroke="transparent" stroke-width="1" opacity="1" class="" visibility="visible" id="two-9">-1800</text><path transform="matrix(1 0 0 1 330.243 652.5)" d="M 5 0 C 5 2.761 2.761 5 0 5 C -2.762 5 -5 2.761 -5 0 C -5.001 -2.762 -2.762 -5 -0.001 -5 C 2.761 -5.001 5 -2.762 5 0 Z " fill="white" stroke="white" stroke-width="1" stroke-opacity="1" fill-opacity="1" visibility="visible" stroke-linecap="butt" stroke-linejoin="miter" stroke-miterlimit="4" id="two-11"></path><text transform="matrix(1 0 0 1 330.243 672.5)" font-family="Open Sans" font-size="12" line-height="17" text-anchor="middle" dominant-baseline="middle" alignment-baseline="middle" font-style="normal" font-weight="500" text-decoration="none" fill="white" stroke="transparent" stroke-width="1" opacity="1" class="" visibility="visible" id="two-12">-1600</text><path transform="matrix(1 0 0 1 445.365 652.5)" d="M 5 0 C 5 2.761 2.761 5 0 5 C -2.762 5 -5 2.761 -5 0 C -5.001 -2.762 -2.762 -5 -0.001 -5 C 2.761 -5.001 5 -2.762 5 0 Z " fill="white" stroke="white" stroke-width="1" stroke-opacity="1" fill-opacity="1" visibility="visible" stroke-linecap="butt" stroke-linejoin="miter" stroke-miterlimit="4" id="two-14"></path><text transform="matrix(1 0 0 1 445.365 672.5)" font-family="Open Sans" font-size="12" line-height="17" text-anchor="middle" dominant-baseline="middle" alignment-baseline="middle" font-style="normal" font-weight="500" text-decoration="none" fill="white" stroke="transparent" stroke-width="1" opacity="1" class="" visibility="visible" id="two-15">-1400</text><path transform="matrix(1 0 0 1 560.487 652.5)" d="M 5 0 C 5 2.761 2.761 5 0 5 C -2.762 5 -5 2.761 -5 0 C -5.001 -2.762 -2.762 -5 -0.001 -5 C 2.761 -5.001 5 -2.762 5 0 Z " fill="white" stroke="white" stroke-width="1" stroke-opacity="1" fill-opacity="1" visibility="visible" stroke-linecap="butt" stroke-linejoin="miter" stroke-miterlimit="4" id="two-17"></path><text transform="matrix(1 0 0 1 560.487 672.5)" font-family="Open Sans" font-size="12" line-height="17" text-anchor="middle" dominant-baseline="middle" alignment-baseline="middle" font-style="normal" font-weight="500" text-decoration="none" fill="white" stroke="transparent" stroke-width="1" opacity="1" class="" visibility="visible" id="two-18">-1200</text><path transform="matrix(1 0 0 1 675.609 652.5)" d="M 5 0 C 5 2.761 2.761 5 0 5 C -2.762 5 -5 2.761 -5 0 C -5.001 -2.762 -2.762 -5 -0.001 -5 C 2.761 -5.001 5 -2.762 5 0 Z " fill="white" stroke="white" stroke-width="1" stroke-opacity="1" fill-opacity="1" visibility="visible" stroke-linecap="butt" stroke-linejoin="miter" stroke-miterlimit="4" id="two-20"></path><text transform="matrix(1 0 0 1 675.609 672.5)" font-family="Open Sans" font-size="14" line-height="17" text-anchor="middle" dominant-baseline="middle" alignment-baseline="middle" font-style="normal" font-weight="600" text-decoration="none" fill="white" stroke="transparent" stroke-width="1" opacity="1" class="" visibility="visible" id="two-21">-1000</text><path transform="matrix(1 0 0 1 790.731 652.5)" d="M 5 0 C 5 2.761 2.761 5 0 5 C -2.762 5 -5 2.761 -5 0 C -5.001 -2.762 -2.762 -5 -0.001 -5 C 2.761 -5.001 5 -2.762 5 0 Z " fill="white" stroke="white" stroke-width="1" stroke-opacity="1" fill-opacity="1" visibility="visible" stroke-linecap="butt" stroke-linejoin="miter" stroke-miterlimit="4" id="two-23"></path><text transform="matrix(1 0 0 1 790.731 672.5)" font-family="Open Sans" font-size="12" line-height="17" text-anchor="middle" dominant-baseline="middle" alignment-baseline="middle" font-style="normal" font-weight="500" text-decoration="none" fill="white" stroke="transparent" stroke-width="1" opacity="1" class="" visibility="visible" id="two-24">-800</text><path transform="matrix(1 0 0 1 905.853 652.5)" d="M 5 0 C 5 2.761 2.761 5 0 5 C -2.762 5 -5 2.761 -5 0 C -5.001 -2.762 -2.762 -5 -0.001 -5 C 2.761 -5.001 5 -2.762 5 0 Z " fill="white" stroke="white" stroke-width="1" stroke-opacity="1" fill-opacity="1" visibility="visible" stroke-linecap="butt" stroke-linejoin="miter" stroke-miterlimit="4" id="two-26"></path><text transform="matrix(1 0 0 1 905.853 672.5)" font-family="Open Sans" font-size="12" line-height="17" text-anchor="middle" dominant-baseline="middle" alignment-baseline="middle" font-style="normal" font-weight="500" text-decoration="none" fill="white" stroke="transparent" stroke-width="1" opacity="1" class="" visibility="visible" id="two-27">-600</text><path transform="matrix(1 0 0 1 1020.975 652.5)" d="M 5 0 C 5 2.761 2.761 5 0 5 C -2.762 5 -5 2.761 -5 0 C -5.001 -2.762 -2.762 -5 -0.001 -5 C 2.761 -5.001 5 -2.762 5 0 Z " fill="white" stroke="white" stroke-width="1" stroke-opacity="1" fill-opacity="1" visibility="visible" stroke-linecap="butt" stroke-linejoin="miter" stroke-miterlimit="4" id="two-29"></path><text transform="matrix(1 0 0 1 1020.975 672.5)" font-family="Open Sans" font-size="12" line-height="17" text-anchor="middle" dominant-baseline="middle" alignment-baseline="middle" font-style="normal" font-weight="500" text-decoration="none" fill="white" stroke="transparent" stroke-width="1" opacity="1" class="" visibility="visible" id="two-30">-400</text><path transform="matrix(1 0 0 1 1136.097 652.5)" d="M 5 0 C 5 2.761 2.761 5 0 5 C -2.762 5 -5 2.761 -5 0 C -5.001 -2.762 -2.762 -5 -0.001 -5 C 2.761 -5.001 5 -2.762 5 0 Z " fill="white" stroke="white" stroke-width="1" stroke-opacity="1" fill-opacity="1" visibility="visible" stroke-linecap="butt" stroke-linejoin="miter" stroke-miterlimit="4" id="two-32"></path><text transform="matrix(1 0 0 1 1136.097 672.5)" font-family="Open Sans" font-size="12" line-height="17" text-anchor="middle" dominant-baseline="middle" alignment-baseline="middle" font-style="normal" font-weight="500" text-decoration="none" fill="white" stroke="transparent" stroke-width="1" opacity="1" class="" visibility="visible" id="two-33">-200</text><path transform="matrix(1 0 0 1 1251.219 652.5)" d="M 5 0 C 5 2.761 2.761 5 0 5 C -2.762 5 -5 2.761 -5 0 C -5.001 -2.762 -2.762 -5 -0.001 -5 C 2.761 -5.001 5 -2.762 5 0 Z " fill="white" stroke="white" stroke-width="1" stroke-opacity="1" fill-opacity="1" visibility="visible" stroke-linecap="butt" stroke-linejoin="miter" stroke-miterlimit="4" id="two-35"></path><text transform="matrix(1 0 0 1 1251.219 672.5)" font-family="Open Sans" font-size="14" line-height="17" text-anchor="middle" dominant-baseline="middle" alignment-baseline="middle" font-style="normal" font-weight="600" text-decoration="none" fill="white" stroke="transparent" stroke-width="1" opacity="1" class="" visibility="visible" id="two-36"></text><path transform="matrix(1 0 0 1 1366.341 652.5)" d="M 5 0 C 5 2.761 2.761 5 0 5 C -2.762 5 -5 2.761 -5 0 C -5.001 -2.762 -2.762 -5 -0.001 -5 C 2.761 -5.001 5 -2.762 5 0 Z " fill="white" stroke="white" stroke-width="1" stroke-opacity="1" fill-opacity="1" visibility="visible" stroke-linecap="butt" stroke-linejoin="miter" stroke-miterlimit="4" id="two-38"></path><text transform="matrix(1 0 0 1 1366.341 672.5)" font-family="Open Sans" font-size="12" line-height="17" text-anchor="middle" dominant-baseline="middle" alignment-baseline="middle" font-style="normal" font-weight="500" text-decoration="none" fill="white" stroke="transparent" stroke-width="1" opacity="1" class="" visibility="visible" id="two-39">200</text><path transform="matrix(1 0 0 1 1481.463 652.5)" d="M 5 0 C 5 2.761 2.761 5 0 5 C -2.762 5 -5 2.761 -5 0 C -5.001 -2.762 -2.762 -5 -0.001 -5 C 2.761 -5.001 5 -2.762 5 0 Z " fill="white" stroke="white" stroke-width="1" stroke-opacity="1" fill-opacity="1" visibility="visible" stroke-linecap="butt" stroke-linejoin="miter" stroke-miterlimit="4" id="two-41"></path><text transform="matrix(1 0 0 1 1481.463 672.5)" font-family="Open Sans" font-size="12" line-height="17" text-anchor="middle" dominant-baseline="middle" alignment-baseline="middle" font-style="normal" font-weight="500" text-decoration="none" fill="white" stroke="transparent" stroke-width="1" opacity="1" class="" visibility="visible" id="two-42">400</text><path transform="matrix(1 0 0 1 1596.585 652.5)" d="M 5 0 C 5 2.761 2.761 5 0 5 C -2.762 5 -5 2.761 -5 0 C -5.001 -2.762 -2.762 -5 -0.001 -5 C 2.761 -5.001 5 -2.762 5 0 Z " fill="white" stroke="white" stroke-width="1" stroke-opacity="1" fill-opacity="1" visibility="visible" stroke-linecap="butt" stroke-linejoin="miter" stroke-miterlimit="4" id="two-44"></path><text transform="matrix(1 0 0 1 1596.585 672.5)" font-family="Open Sans" font-size="12" line-height="17" text-anchor="middle" dominant-baseline="middle" alignment-baseline="middle" font-style="normal" font-weight="500" text-decoration="none" fill="white" stroke="transparent" stroke-width="1" opacity="1" class="" visibility="visible" id="two-45">600</text><path transform="matrix(1 0 0 1 1711.707 652.5)" d="M 5 0 C 5 2.761 2.761 5 0 5 C -2.762 5 -5 2.761 -5 0 C -5.001 -2.762 -2.762 -5 -0.001 -5 C 2.761 -5.001 5 -2.762 5 0 Z " fill="white" stroke="white" stroke-width="1" stroke-opacity="1" fill-opacity="1" visibility="visible" stroke-linecap="butt" stroke-linejoin="miter" stroke-miterlimit="4" id="two-47"></path><text transform="matrix(1 0 0 1 1711.707 672.5)" font-family="Open Sans" font-size="12" line-height="17" text-anchor="middle" dominant-baseline="middle" alignment-baseline="middle" font-style="normal" font-weight="500" text-decoration="none" fill="white" stroke="transparent" stroke-width="1" opacity="1" class="" visibility="visible" id="two-48">800</text><path transform="matrix(1 0 0 1 1826.829 652.5)" d="M 5 0 C 5 2.761 2.761 5 0 5 C -2.762 5 -5 2.761 -5 0 C -5.001 -2.762 -2.762 -5 -0.001 -5 C 2.761 -5.001 5 -2.762 5 0 Z " fill="white" stroke="white" stroke-width="1" stroke-opacity="1" fill-opacity="1" visibility="visible" stroke-linecap="butt" stroke-linejoin="miter" stroke-miterlimit="4" id="two-50"></path><text transform="matrix(1 0 0 1 1826.829 672.5)" font-family="Open Sans" font-size="14" line-height="17" text-anchor="middle" dominant-baseline="middle" alignment-baseline="middle" font-style="normal" font-weight="600" text-decoration="none" fill="white" stroke="transparent" stroke-width="1" opacity="1" class="" visibility="visible" id="two-51">1000</text><path transform="matrix(1 0 0 1 1941.951 652.5)" d="M 5 0 C 5 2.761 2.761 5 0 5 C -2.762 5 -5 2.761 -5 0 C -5.001 -2.762 -2.762 -5 -0.001 -5 C 2.761 -5.001 5 -2.762 5 0 Z " fill="white" stroke="white" stroke-width="1" stroke-opacity="1" fill-opacity="1" visibility="visible" stroke-linecap="butt" stroke-linejoin="miter" stroke-miterlimit="4" id="two-53"></path><text transform="matrix(1 0 0 1 1941.951 672.5)" font-family="Open Sans" font-size="12" line-height="17" text-anchor="middle" dominant-baseline="middle" alignment-baseline="middle" font-style="normal" font-weight="500" text-decoration="none" fill="white" stroke="transparent" stroke-width="1" opacity="1" class="" visibility="visible" id="two-54">1200</text><path transform="matrix(1 0 0 1 2057.073 652.5)" d="M 5 0 C 5 2.761 2.761 5 0 5 C -2.762 5 -5 2.761 -5 0 C -5.001 -2.762 -2.762 -5 -0.001 -5 C 2.761 -5.001 5 -2.762 5 0 Z " fill="white" stroke="white" stroke-width="1" stroke-opacity="1" fill-opacity="1" visibility="visible" stroke-linecap="butt" stroke-linejoin="miter" stroke-miterlimit="4" id="two-56"></path><text transform="matrix(1 0 0 1 2057.073 672.5)" font-family="Open Sans" font-size="12" line-height="17" text-anchor="middle" dominant-baseline="middle" alignment-baseline="middle" font-style="normal" font-weight="500" text-decoration="none" fill="white" stroke="transparent" stroke-width="1" opacity="1" class="" visibility="visible" id="two-57">1400</text><path transform="matrix(1 0 0 1 2172.195 652.5)" d="M 5 0 C 5 2.761 2.761 5 0 5 C -2.762 5 -5 2.761 -5 0 C -5.001 -2.762 -2.762 -5 -0.001 -5 C 2.761 -5.001 5 -2.762 5 0 Z " fill="white" stroke="white" stroke-width="1" stroke-opacity="1" fill-opacity="1" visibility="visible" stroke-linecap="butt" stroke-linejoin="miter" stroke-miterlimit="4" id="two-59"></path><text transform="matrix(1 0 0 1 2172.195 672.5)" font-family="Open Sans" font-size="12" line-height="17" text-anchor="middle" dominant-baseline="middle" alignment-baseline="middle" font-style="normal" font-weight="500" text-decoration="none" fill="white" stroke="transparent" stroke-width="1" opacity="1" class="" visibility="visible" id="two-60">1600</text><path transform="matrix(1 0 0 1 2287.317 652.5)" d="M 5 0 C 5 2.761 2.761 5 0 5 C -2.762 5 -5 2.761 -5 0 C -5.001 -2.762 -2.762 -5 -0.001 -5 C 2.761 -5.001 5 -2.762 5 0 Z " fill="white" stroke="white" stroke-width="1" stroke-opacity="1" fill-opacity="1" visibility="visible" stroke-linecap="butt" stroke-linejoin="miter" stroke-miterlimit="4" id="two-62"></path><text transform="matrix(1 0 0 1 2287.317 672.5)" font-family="Open Sans" font-size="12" line-height="17" text-anchor="middle" dominant-baseline="middle" alignment-baseline="middle" font-style="normal" font-weight="500" text-decoration="none" fill="white" stroke="transparent" stroke-width="1" opacity="1" class="" visibility="visible" id="two-63">1800</text><path transform="matrix(1 0 0 1 2402.438 652.5)" d="M 5 0 C 5 2.761 2.761 5 0 5 C -2.762 5 -5 2.761 -5 0 C -5.001 -2.762 -2.762 -5 -0.001 -5 C 2.761 -5.001 5 -2.762 5 0 Z " fill="white" stroke="white" stroke-width="1" stroke-opacity="1" fill-opacity="1" visibility="visible" stroke-linecap="butt" stroke-linejoin="miter" stroke-miterlimit="4" id="two-65"></path><text transform="matrix(1 0 0 1 2402.438 672.5)" font-family="Open Sans" font-size="14" line-height="17" text-anchor="middle" dominant-baseline="middle" alignment-baseline="middle" font-style="normal" font-weight="600" text-decoration="none" fill="white" stroke="transparent" stroke-width="1" opacity="1" class="" visibility="visible" id="two-66">2000</text><path transform="matrix(1 0 0 1 1251.219 652.5)" d="M -0.5 -652.5 L 0.5 -652.5 L 0.5 652.5 L -0.5 652.5 Z " fill="black" stroke="#000" stroke-width="1" stroke-opacity="1" fill-opacity="1" visibility="visible" stroke-linecap="butt" stroke-linejoin="miter" stroke-miterlimit="4" id="two-68"></path><path transform="matrix(1 0 0 1 493.717 702.5)" d="M -566.4 -5 L 566.4 -5 L 566.4 5 L -566.4 5 Z " fill="#a79b0b" stroke="#a79b0b" stroke-width="0" stroke-opacity="1" fill-opacity="1" visibility="visible" stroke-linecap="butt" stroke-linejoin="miter" stroke-miterlimit="4" id="two-69"></path><text transform="matrix(1 0 0 1 493.717 722.5)" font-family="Open Sans" font-size="17" line-height="17" text-anchor="middle" dominant-baseline="middle" alignment-baseline="middle" font-style="normal" font-weight="500" text-decoration="none" fill="#a79b0b" stroke="transparent" stroke-width="1" opacity="1" class="" visibility="visible" id="two-70">Ancient Egypt</text><path transform="matrix(1 0 0 1 1084.004 752.5)" d="M -149.371 -5 L 149.37 -5 L 149.37 5 L -149.371 5 Z " fill="#1898e0" stroke="#1898e0" stroke-width="0" stroke-opacity="1" fill-opacity="1" visibility="visible" stroke-linecap="butt" stroke-linejoin="miter" stroke-miterlimit="4" id="two-71"></path><text transform="matrix(1 0 0 1 1084.004 772.5)" font-family="Open Sans" font-size="17" line-height="17" text-anchor="middle" dominant-baseline="middle" alignment-baseline="middle" font-style="normal" font-weight="500" text-decoration="none" fill="#1898e0" stroke="transparent" stroke-width="1" opacity="1" class="" visibility="visible" id="two-72"> Ancient</text><text transform="matrix(1 0 0 1 1084.004 792.5)" font-family="Open Sans" font-size="17" line-height="17" text-anchor="middle" dominant-baseline="middle" alignment-baseline="middle" font-style="normal" font-weight="500" text-decoration="none" fill="#1898e0" stroke="transparent" stroke-width="1" opacity="1" class="" visibility="visible" id="two-73">Greece</text><path transform="matrix(1 0 0 1 1380.443 752.5)" d="M -144.766 -5 L 144.765 -5 L 144.765 5 L -144.766 5 Z " fill="#1898e0" stroke="#1898e0" stroke-width="0" stroke-opacity="1" fill-opacity="1" visibility="visible" stroke-linecap="butt" stroke-linejoin="miter" stroke-miterlimit="4" id="two-74"></path><text transform="matrix(1 0 0 1 1380.443 772.5)" font-family="Open Sans" font-size="17" line-height="17" text-anchor="middle" dominant-baseline="middle" alignment-baseline="middle" font-style="normal" font-weight="500" text-decoration="none" fill="#1898e0" stroke="transparent" stroke-width="1" opacity="1" class="" visibility="visible" id="two-75">Roman</text><text transform="matrix(1 0 0 1 1380.443 792.5)" font-family="Open Sans" font-size="17" line-height="17" text-anchor="middle" dominant-baseline="middle" alignment-baseline="middle" font-style="normal" font-weight="500" text-decoration="none" fill="#1898e0" stroke="transparent" stroke-width="1" opacity="1" class="" visibility="visible" id="two-76">Empire</text><path transform="matrix(1 0 0 1 1817.907 752.5)" d="M -292.122 -5 L 292.121 -5 L 292.121 5 L -292.122 5 Z " fill="#8a8f92" stroke="#8a8f92" stroke-width="0" stroke-opacity="1" fill-opacity="1" visibility="visible" stroke-linecap="butt" stroke-linejoin="miter" stroke-miterlimit="4" id="two-77"></path><text transform="matrix(1 0 0 1 1817.907 772.5)" font-family="Open Sans" font-size="17" line-height="17" text-anchor="middle" dominant-baseline="middle" alignment-baseline="middle" font-style="normal" font-weight="500" text-decoration="none" fill="#8a8f92" stroke="transparent" stroke-width="1" opacity="1" class="" visibility="visible" id="two-78">Middle Ages</text><path transform="matrix(1 0 0 1 1869.712 802.5)" d="M -254.708 -5 L 254.707 -5 L 254.707 5 L -254.708 5 Z " fill="#b15d42" stroke="#b15d42" stroke-width="0" stroke-opacity="1" fill-opacity="1" visibility="visible" stroke-linecap="butt" stroke-linejoin="miter" stroke-miterlimit="4" id="two-79"></path><text transform="matrix(1 0 0 1 1869.712 822.5)" font-family="Open Sans" font-size="17" line-height="17" text-anchor="middle" dominant-baseline="middle" alignment-baseline="middle" font-style="normal" font-weight="500" text-decoration="none" fill="#b15d42" stroke="transparent" stroke-width="1" opacity="1" class="" visibility="visible" id="two-80">Caliphates</text><path transform="matrix(1 0 0 1 100 527.5)" d="M -8.661 5 L -0.001 -10 L 8.66 5 L -8.661 4.999 Z " fill="#a79b0b" stroke="#a79b0b" stroke-width="1" stroke-opacity="1" fill-opacity="1" visibility="visible" stroke-linecap="butt" stroke-linejoin="miter" stroke-miterlimit="4" id="two-81"></path><path transform="matrix(-1 0 -0.001 -1 100 577.5)" d="M -8.661 5 L -0.001 -10 L 8.66 5 L -8.661 4.999 Z " fill="#a79b0b" stroke="#a79b0b" stroke-width="1" stroke-opacity="1" fill-opacity="1" visibility="visible" stroke-linecap="butt" stroke-linejoin="miter" stroke-miterlimit="4" id="two-82"></path><path transform="matrix(1 0 0 1 100 552.5)" d="M -83.5 -20 C -83.5 -20 83.5 -20 83.5 -20 C 86.5 -20 86.5 -17 86.5 -17 C 86.5 -17 86.5 17 86.5 17 C 86.5 20 83.5 20 83.5 20 C 83.5 20 -83.5 20 -83.5 20 C -86.5 20 -86.5 17 -86.5 17 C -86.5 17 -86.5 -17 -86.5 -17 C -86.5 -20 -83.5 -20 -83.5 -20 C -83.5 -20 -83.5 -20 -83.5 -20 C -83.5 -20 -83.5 -20 -83.5 -20 Z " fill="#a79b0b" stroke="#a79b0b" stroke-width="1" stroke-opacity="1" fill-opacity="1" visibility="visible" stroke-linecap="butt" stroke-linejoin="miter" stroke-miterlimit="4" id="two-83"></path><text transform="matrix(1 0 0 1 100 552.5)" font-family="Open Sans" font-size="17" line-height="17" text-anchor="middle" dominant-baseline="middle" alignment-baseline="middle" font-style="normal" font-weight="500" text-decoration="none" fill="white" stroke="transparent" stroke-width="1" opacity="1" class="" visibility="visible" id="two-84">First Algorithm</text><path transform="matrix(-1 0 -0.001 -1 186.341 477.5)" d="M -8.661 5 L -0.001 -10 L 8.66 5 L -8.661 4.999 Z " fill="#a79b0b" stroke="#a79b0b" stroke-width="1" stroke-opacity="1" fill-opacity="1" visibility="visible" stroke-linecap="butt" stroke-linejoin="miter" stroke-miterlimit="4" id="two-86"></path><path transform="matrix(1 0 0 1 186.341 452.5)" d="M -144.7 -20 C -144.7 -20 144.7 -20 144.7 -20 C 147.7 -20 147.7 -17 147.7 -17 C 147.7 -17 147.7 17 147.7 17 C 147.7 20 144.7 20 144.7 20 C 144.7 20 -144.7 20 -144.7 20 C -147.7 20 -147.7 17 -147.7 17 C -147.7 17 -147.7 -17 -147.7 -17 C -147.7 -20 -144.7 -20 -144.7 -20 C -144.7 -20 -144.7 -20 -144.7 -20 C -144.7 -20 -144.7 -20 -144.7 -20 Z " fill="#a79b0b" stroke="#a79b0b" stroke-width="1" stroke-opacity="1" fill-opacity="1" visibility="visible" stroke-linecap="butt" stroke-linejoin="miter" stroke-miterlimit="4" id="two-87"></path><text transform="matrix(1 0 0 1 186.341 452.5)" font-family="Open Sans" font-size="17" line-height="17" text-anchor="middle" dominant-baseline="middle" alignment-baseline="middle" font-style="normal" font-weight="500" text-decoration="none" fill="white" stroke="transparent" stroke-width="1" opacity="1" class="" visibility="visible" id="two-88">Moscow Mathematical Papyrus</text><path transform="matrix(1 0 0 1 186.341 642.5)" d="M 3 0 C 3 1.656 1.656 3 0 3 C -1.657 3 -3 1.656 -3 0 C -3.001 -1.657 -1.657 -3 -0.001 -3 C 1.656 -3.001 3 -1.657 3 0 Z " fill="#a79b0b" stroke="#a79b0b" stroke-width="1" stroke-opacity="1" fill-opacity="1" visibility="visible" stroke-linecap="butt" stroke-linejoin="miter" stroke-miterlimit="4" id="two-99"></path><path transform="matrix(-1 0 -0.001 -1 359.024 377.5)" d="M -8.661 5 L -0.001 -10 L 8.66 5 L -8.661 4.999 Z " fill="#a79b0b" stroke="#a79b0b" stroke-width="1" stroke-opacity="1" fill-opacity="1" visibility="visible" stroke-linecap="butt" stroke-linejoin="miter" stroke-miterlimit="4" id="two-100"></path><path transform="matrix(1 0 0 1 359.024 352.5)" d="M -139.6 -20 C -139.6 -20 139.6 -20 139.6 -20 C 142.6 -20 142.6 -17 142.6 -17 C 142.6 -17 142.6 17 142.6 17 C 142.6 20 139.6 20 139.6 20 C 139.6 20 -139.6 20 -139.6 20 C -142.6 20 -142.6 17 -142.6 17 C -142.6 17 -142.6 -17 -142.6 -17 C -142.6 -20 -139.6 -20 -139.6 -20 C -139.6 -20 -139.6 -20 -139.6 -20 C -139.6 -20 -139.6 -20 -139.6 -20 Z " fill="#a79b0b" stroke="#a79b0b" stroke-width="1" stroke-opacity="1" fill-opacity="1" visibility="visible" stroke-linecap="butt" stroke-linejoin="miter" stroke-miterlimit="4" id="two-101"></path><text transform="matrix(1 0 0 1 359.024 352.5)" font-family="Open Sans" font-size="17" line-height="17" text-anchor="middle" dominant-baseline="middle" alignment-baseline="middle" font-style="normal" font-weight="500" text-decoration="none" fill="white" stroke="transparent" stroke-width="1" opacity="1" class="" visibility="visible" id="two-102">Rhind Mathematical Papyrus</text><path transform="matrix(1 0 0 1 359.024 642.5)" d="M 3 0 C 3 1.656 1.656 3 0 3 C -1.657 3 -3 1.656 -3 0 C -3.001 -1.657 -1.657 -3 -0.001 -3 C 1.656 -3.001 3 -1.657 3 0 Z " fill="#a79b0b" stroke="#a79b0b" stroke-width="1" stroke-opacity="1" fill-opacity="1" visibility="visible" stroke-linecap="butt" stroke-linejoin="miter" stroke-miterlimit="4" id="two-120"></path><path transform="matrix(1 0 0 1 359.024 582.5)" d="M -12.391 -12.5 C -12.391 -12.5 12.39 -12.5 12.39 -12.5 C 14.39 -12.5 14.39 -10.5 14.39 -10.5 C 14.39 -10.5 14.39 10.5 14.39 10.5 C 14.39 12.5 12.39 12.5 12.39 12.5 C 12.39 12.5 -12.391 12.5 -12.391 12.5 C -14.391 12.5 -14.391 10.5 -14.391 10.5 C -14.391 10.5 -14.391 -10.5 -14.391 -10.5 C -14.391 -12.5 -12.391 -12.5 -12.391 -12.5 C -12.391 -12.5 -12.391 -12.5 -12.391 -12.5 C -12.391 -12.5 -12.391 -12.5 -12.391 -12.5 Z " fill="#a79b0b" stroke="#a79b0b" stroke-width="1" stroke-opacity="1" fill-opacity="1" visibility="visible" stroke-linecap="butt" stroke-linejoin="miter" stroke-miterlimit="4" id="two-121"></path><text transform="matrix(1 0 0 1 359.024 557.5)" font-family="Open Sans" font-size="17" line-height="17" text-anchor="middle" dominant-baseline="middle" alignment-baseline="middle" font-style="normal" font-weight="500" text-decoration="none" fill="white" stroke="transparent" stroke-width="1" opacity="1" class="" visibility="visible" id="two-122">Ahmes</text><path transform="matrix(1 0 0 1 359.024 642.5)" d="M 3 0 C 3 1.656 1.656 3 0 3 C -1.657 3 -3 1.656 -3 0 C -3.001 -1.657 -1.657 -3 -0.001 -3 C 1.656 -3.001 3 -1.657 3 0 Z " fill="#a79b0b" stroke="#a79b0b" stroke-width="1" stroke-opacity="1" fill-opacity="1" visibility="visible" stroke-linecap="butt" stroke-linejoin="miter" stroke-miterlimit="4" id="two-126"></path><path transform="matrix(1 0 0 1 2407.043 527.5)" d="M -8.661 5 L -0.001 -10 L 8.66 5 L -8.661 4.999 Z " fill="#0ac18e" stroke="#0ac18e" stroke-width="1" stroke-opacity="1" fill-opacity="1" visibility="visible" stroke-linecap="butt" stroke-linejoin="miter" stroke-miterlimit="4" id="two-127"></path><path transform="matrix(-1 0 -0.001 -1 2407.043 577.5)" d="M -8.661 5 L -0.001 -10 L 8.66 5 L -8.661 4.999 Z " fill="#0ac18e" stroke="#0ac18e" stroke-width="1" stroke-opacity="1" fill-opacity="1" visibility="visible" stroke-linecap="butt" stroke-linejoin="miter" stroke-miterlimit="4" id="two-128"></path><path transform="matrix(1 0 0 1 2407.043 552.5)" d="M -42.7 -20 C -42.7 -20 42.699 -20 42.699 -20 C 45.699 -20 45.699 -17 45.699 -17 C 45.699 -17 45.699 17 45.699 17 C 45.699 20 42.699 20 42.699 20 C 42.699 20 -42.7 20 -42.7 20 C -45.7 20 -45.7 17 -45.7 17 C -45.7 17 -45.7 -17 -45.7 -17 C -45.7 -20 -42.7 -20 -42.7 -20 C -42.7 -20 -42.7 -20 -42.7 -20 C -42.7 -20 -42.7 -20 -42.7 -20 Z " fill="#0ac18e" stroke="#0ac18e" stroke-width="1" stroke-opacity="1" fill-opacity="1" visibility="visible" stroke-linecap="butt" stroke-linejoin="miter" stroke-miterlimit="4" id="two-129"></path><text transform="matrix(1 0 0 1 2407.043 552.5)" font-family="Open Sans" font-size="17" line-height="17" text-anchor="middle" dominant-baseline="middle" alignment-baseline="middle" font-style="normal" font-weight="500" text-decoration="none" fill="white" stroke="transparent" stroke-width="1" opacity="1" class="" visibility="visible" id="two-130">Bitcoin</text><path transform="matrix(1 0 0 1 2414.526 727.5)" d="M -8.661 5 L -0.001 -10 L 8.66 5 L -8.661 4.999 Z " fill="#8a8f92" stroke="#8a8f92" stroke-width="1" stroke-opacity="1" fill-opacity="1" visibility="visible" stroke-linecap="butt" stroke-linejoin="miter" stroke-miterlimit="4" id="two-132"></path><path transform="matrix(-1 0 -0.001 -1 2414.526 777.5)" d="M -8.661 5 L -0.001 -10 L 8.66 5 L -8.661 4.999 Z " fill="#8a8f92" stroke="#8a8f92" stroke-width="1" stroke-opacity="1" fill-opacity="1" visibility="visible" stroke-linecap="butt" stroke-linejoin="miter" stroke-miterlimit="4" id="two-133"></path><path transform="matrix(1 0 0 1 2414.526 752.5)" d="M -32.5 -20 C -32.5 -20 32.5 -20 32.5 -20 C 35.5 -20 35.5 -17 35.5 -17 C 35.5 -17 35.5 17 35.5 17 C 35.5 20 32.5 20 32.5 20 C 32.5 20 -32.5 20 -32.5 20 C -35.5 20 -35.5 17 -35.5 17 C -35.5 17 -35.5 -17 -35.5 -17 C -35.5 -20 -32.5 -20 -32.5 -20 C -32.5 -20 -32.5 -20 -32.5 -20 C -32.5 -20 -32.5 -20 -32.5 -20 Z " fill="#8a8f92" stroke="#8a8f92" stroke-width="1" stroke-opacity="1" fill-opacity="1" visibility="visible" stroke-linecap="butt" stroke-linejoin="miter" stroke-miterlimit="4" id="two-134"></path><text transform="matrix(1 0 0 1 2414.526 752.5)" font-family="Open Sans" font-size="17" line-height="17" text-anchor="middle" dominant-baseline="middle" alignment-baseline="middle" font-style="normal" font-weight="500" text-decoration="none" fill="white" stroke="transparent" stroke-width="1" opacity="1" class="" visibility="visible" id="two-135">Today</text><path transform="matrix(1 0 0 1 969.17 927.5)" d="M -8.661 5 L -0.001 -10 L 8.66 5 L -8.661 4.999 Z " fill="#1898e0" stroke="#1898e0" stroke-width="1" stroke-opacity="1" fill-opacity="1" visibility="visible" stroke-linecap="butt" stroke-linejoin="miter" stroke-miterlimit="4" id="two-137"></path><path transform="matrix(-1 0 -0.001 -1 969.17 977.5)" d="M -8.661 5 L -0.001 -10 L 8.66 5 L -8.661 4.999 Z " fill="#1898e0" stroke="#1898e0" stroke-width="1" stroke-opacity="1" fill-opacity="1" visibility="visible" stroke-linecap="butt" stroke-linejoin="miter" stroke-miterlimit="4" id="two-138"></path><path transform="matrix(1 0 0 1 969.17 952.5)" d="M -47.8 -20 C -47.8 -20 47.8 -20 47.8 -20 C 50.8 -20 50.8 -17 50.8 -17 C 50.8 -17 50.8 17 50.8 17 C 50.8 20 47.8 20 47.8 20 C 47.8 20 -47.8 20 -47.8 20 C -50.8 20 -50.8 17 -50.8 17 C -50.8 17 -50.8 -17 -50.8 -17 C -50.8 -20 -47.8 -20 -47.8 -20 C -47.8 -20 -47.8 -20 -47.8 -20 C -47.8 -20 -47.8 -20 -47.8 -20 Z " fill="#1898e0" stroke="#1898e0" stroke-width="1" stroke-opacity="1" fill-opacity="1" visibility="visible" stroke-linecap="butt" stroke-linejoin="miter" stroke-miterlimit="4" id="two-139"></path><text transform="matrix(1 0 0 1 969.17 952.5)" font-family="Open Sans" font-size="17" line-height="17" text-anchor="middle" dominant-baseline="middle" alignment-baseline="middle" font-style="normal" font-weight="500" text-decoration="none" fill="white" stroke="transparent" stroke-width="1" opacity="1" class="" visibility="visible" id="two-140">Marathon</text></g></svg>